<svg xmlns="http://www.w3.org/2000/svg" xmlns:xlink="http://www.w3.org/1999/xlink" preserveAspectRatio="xMidYMid" width="46" height="46" viewBox="0 0 46 46">
  <defs>
    <style>
      .cls-1 {
        fill: #eb702c;
      }

      .cls-1, .cls-2 {
        fill-rule: evenodd;
      }

      .cls-2 {
        fill: #c5c5c5;
      }
    </style>
  </defs>
  <g>
    <path d="M28.062,32.704 C28.103,33.376 27.863,34.026 27.404,34.486 L24.458,37.431 C25.014,37.660 25.516,37.997 25.952,38.432 L26.050,38.530 C27.702,40.182 27.823,42.750 26.319,44.253 C24.815,45.757 22.247,45.637 20.594,43.984 L20.497,43.887 C20.061,43.450 19.724,42.948 19.496,42.393 L16.553,45.335 C16.128,45.761 15.538,45.998 14.918,45.998 C14.869,45.998 14.820,45.996 14.771,45.993 C14.128,45.954 13.513,45.672 13.040,45.199 L9.627,41.786 C9.452,42.339 9.152,42.836 8.747,43.241 L8.660,43.328 C7.954,44.034 7.014,44.382 6.045,44.382 C4.948,44.382 3.813,43.936 2.935,43.060 C1.283,41.408 1.163,38.839 2.667,37.336 L2.753,37.250 C3.159,36.844 3.656,36.543 4.208,36.369 L0.795,32.956 C-0.211,31.950 -0.272,30.374 0.659,29.443 L3.749,26.354 C4.128,25.975 4.678,25.818 5.221,25.933 C5.812,26.057 6.294,26.469 6.513,27.034 C6.651,27.391 6.863,27.714 7.144,27.995 L7.242,28.093 C7.717,28.568 8.321,28.851 8.943,28.887 C9.524,28.923 10.050,28.736 10.425,28.362 C10.799,27.987 10.986,27.461 10.951,26.880 C10.914,26.258 10.631,25.654 10.156,25.179 L10.058,25.081 C9.777,24.800 9.453,24.588 9.097,24.450 C8.532,24.232 8.120,23.750 7.995,23.159 C7.880,22.616 8.038,22.066 8.416,21.687 L11.510,18.595 C12.441,17.663 14.017,17.724 15.023,18.729 L18.436,22.143 C18.611,21.591 18.911,21.093 19.317,20.688 L19.403,20.602 C20.146,19.858 21.162,19.486 22.264,19.552 C23.324,19.616 24.341,20.084 25.128,20.870 C26.780,22.522 26.901,25.090 25.396,26.593 L25.310,26.680 C24.904,27.086 24.407,27.386 23.855,27.560 L27.268,30.973 C27.741,31.446 28.023,32.061 28.062,32.704 ZM25.998,32.244 L22.427,28.674 C21.969,28.216 21.794,27.563 21.970,26.969 C22.134,26.416 22.569,26.015 23.134,25.894 C23.488,25.820 23.793,25.656 24.039,25.409 L24.126,25.323 C24.929,24.519 24.809,23.092 23.857,22.140 C23.382,21.665 22.777,21.383 22.156,21.345 C21.575,21.311 21.049,21.497 20.674,21.871 L20.587,21.959 C20.341,22.205 20.178,22.509 20.103,22.864 C19.982,23.428 19.581,23.863 19.028,24.027 C18.434,24.203 17.780,24.028 17.323,23.570 L13.752,20.000 C13.452,19.700 13.007,19.638 12.780,19.865 L9.834,22.810 C10.390,23.039 10.893,23.376 11.328,23.811 L11.426,23.909 C13.079,25.562 13.199,28.128 11.695,29.632 C10.191,31.135 7.623,31.016 5.971,29.363 L5.873,29.265 C5.437,28.829 5.101,28.327 4.872,27.773 L1.930,30.714 C1.805,30.838 1.788,31.002 1.795,31.117 C1.807,31.318 1.905,31.526 2.065,31.685 L5.636,35.256 C6.093,35.712 6.268,36.367 6.093,36.961 C5.929,37.513 5.494,37.914 4.929,38.035 C4.575,38.111 4.270,38.273 4.024,38.519 L3.937,38.606 C3.134,39.409 3.255,40.837 4.206,41.788 C5.158,42.740 6.586,42.861 7.389,42.057 L7.476,41.971 C7.722,41.724 7.885,41.419 7.960,41.065 C8.081,40.501 8.482,40.066 9.035,39.902 C9.187,39.858 9.344,39.835 9.500,39.835 C9.952,39.835 10.400,40.019 10.740,40.359 L11.671,41.290 L14.653,38.309 C15.004,37.957 15.573,37.957 15.924,38.309 C16.274,38.659 16.274,39.228 15.924,39.579 L12.942,42.560 L14.311,43.930 C14.471,44.089 14.678,44.188 14.879,44.199 C14.994,44.207 15.158,44.189 15.282,44.065 L18.373,40.975 C18.751,40.596 19.301,40.439 19.845,40.554 C20.435,40.679 20.918,41.090 21.136,41.656 C21.274,42.012 21.486,42.335 21.767,42.615 L21.865,42.714 C22.817,43.666 24.245,43.786 25.048,42.983 C25.851,42.180 25.731,40.752 24.779,39.801 L24.681,39.703 C24.400,39.422 24.077,39.210 23.720,39.072 C23.155,38.853 22.743,38.370 22.618,37.780 C22.504,37.237 22.661,36.687 23.040,36.309 L26.133,33.215 C26.258,33.092 26.275,32.927 26.268,32.812 C26.256,32.610 26.158,32.404 25.998,32.244 ZM17.593,37.537 C17.356,37.537 17.125,37.441 16.958,37.274 C16.791,37.107 16.695,36.875 16.695,36.638 C16.695,36.403 16.791,36.171 16.958,36.004 C17.125,35.837 17.357,35.740 17.593,35.740 C17.830,35.740 18.062,35.837 18.229,36.004 C18.396,36.171 18.492,36.403 18.492,36.638 C18.492,36.875 18.396,37.107 18.229,37.274 C18.062,37.441 17.830,37.537 17.593,37.537 Z" class="cls-1"/>
    <path d="M45.996,14.769 C46.036,15.443 45.796,16.092 45.337,16.551 L42.325,19.563 C42.960,19.785 43.551,20.159 44.039,20.647 L44.137,20.745 C45.789,22.398 45.910,24.965 44.406,26.469 C42.902,27.972 40.334,27.852 38.682,26.200 L38.584,26.102 C38.095,25.614 37.722,25.023 37.499,24.388 L34.487,27.400 C34.045,27.842 33.457,28.061 32.855,28.061 C32.188,28.061 31.502,27.793 30.974,27.265 L27.407,23.695 C26.949,23.237 26.774,22.585 26.950,21.990 C27.113,21.438 27.548,21.037 28.113,20.917 C28.468,20.841 28.772,20.678 29.018,20.432 L29.105,20.345 C29.480,19.971 29.667,19.444 29.631,18.863 C29.594,18.242 29.311,17.637 28.836,17.162 C28.361,16.687 27.757,16.405 27.135,16.367 C26.555,16.332 26.028,16.519 25.653,16.893 L25.566,16.980 C25.320,17.226 25.157,17.531 25.082,17.885 C24.961,18.450 24.560,18.885 24.007,19.048 C23.414,19.224 22.760,19.049 22.302,18.592 L18.728,15.021 C17.722,14.015 17.661,12.439 18.592,11.508 L21.605,8.497 C20.970,8.273 20.379,7.900 19.891,7.412 L19.793,7.314 C18.141,5.662 18.020,3.094 19.524,1.591 C21.028,0.087 23.596,0.208 25.248,1.859 L25.346,1.957 C25.835,2.446 26.208,3.037 26.431,3.671 L29.443,0.659 C30.374,-0.272 31.950,-0.211 32.956,0.794 L36.306,4.144 C36.487,3.673 36.763,3.244 37.117,2.889 L37.204,2.803 C38.708,1.299 41.276,1.420 42.928,3.071 C44.581,4.724 44.701,7.291 43.197,8.795 L43.110,8.882 C42.757,9.236 42.328,9.512 41.856,9.692 L45.202,13.038 C45.675,13.511 45.957,14.125 45.996,14.769 ZM43.931,14.309 L40.444,10.822 C40.001,10.379 39.821,9.744 39.973,9.164 C40.114,8.625 40.518,8.216 41.053,8.067 C41.358,7.982 41.622,7.828 41.840,7.611 L41.926,7.525 C42.730,6.721 42.609,5.293 41.658,4.341 C40.706,3.390 39.278,3.269 38.475,4.073 L38.388,4.159 C38.171,4.377 38.017,4.642 37.932,4.947 C37.783,5.482 37.373,5.885 36.834,6.027 C36.255,6.179 35.619,5.998 35.177,5.556 L31.686,2.065 C31.386,1.766 30.941,1.703 30.714,1.930 L27.550,5.093 C27.159,5.484 26.592,5.638 26.033,5.503 C25.434,5.360 24.944,4.907 24.754,4.322 C24.623,3.919 24.389,3.540 24.076,3.228 L23.978,3.130 C23.026,2.179 21.598,2.058 20.795,2.862 C19.992,3.665 20.112,5.092 21.064,6.043 L21.162,6.141 C21.475,6.454 21.853,6.689 22.256,6.820 C22.841,7.010 23.294,7.500 23.438,8.098 C23.572,8.656 23.418,9.225 23.027,9.615 L19.863,12.779 C19.739,12.903 19.721,13.067 19.728,13.182 C19.740,13.384 19.839,13.591 19.999,13.750 L23.416,17.164 C23.590,16.613 23.890,16.115 24.296,15.710 L24.383,15.623 C25.126,14.880 26.141,14.507 27.243,14.574 C28.304,14.637 29.321,15.105 30.107,15.892 C30.893,16.677 31.361,17.694 31.425,18.755 C31.492,19.856 31.119,20.871 30.376,21.615 L30.289,21.701 C29.883,22.107 29.386,22.407 28.834,22.582 L32.244,25.994 C32.404,26.153 32.611,26.253 32.812,26.264 C32.927,26.272 33.091,26.254 33.216,26.129 L36.380,22.966 C36.771,22.575 37.338,22.422 37.897,22.555 C38.496,22.700 38.986,23.153 39.176,23.737 C39.306,24.140 39.541,24.518 39.854,24.831 L39.952,24.929 C40.904,25.881 42.332,26.001 43.135,25.198 C43.938,24.395 43.818,22.966 42.866,22.016 L42.768,21.917 C42.455,21.605 42.076,21.370 41.673,21.239 C41.088,21.049 40.636,20.560 40.492,19.961 C40.358,19.402 40.511,18.835 40.903,18.443 L41.354,17.992 L38.376,15.015 C38.025,14.664 38.025,14.095 38.376,13.745 C38.727,13.394 39.296,13.394 39.647,13.745 L42.624,16.722 L44.066,15.280 C44.191,15.156 44.209,14.992 44.202,14.877 C44.190,14.676 44.091,14.469 43.931,14.309 ZM36.675,12.941 C36.438,12.941 36.206,12.847 36.039,12.678 C35.872,12.512 35.776,12.280 35.776,12.043 C35.776,11.807 35.872,11.575 36.039,11.408 C36.206,11.240 36.438,11.145 36.675,11.145 C36.911,11.145 37.143,11.240 37.310,11.408 C37.477,11.575 37.573,11.807 37.573,12.043 C37.573,12.280 37.477,12.512 37.310,12.678 C37.143,12.847 36.911,12.941 36.675,12.941 Z" class="cls-2"/>
  </g>
</svg>
