<svg xmlns="http://www.w3.org/2000/svg" xmlns:xlink="http://www.w3.org/1999/xlink" preserveAspectRatio="xMidYMid" width="50" height="28" viewBox="0 0 50 28">
  <defs>
    <style>
      .cls-1 {
        fill: #e66e2c;
      }

      .cls-1, .cls-2 {
        fill-rule: evenodd;
      }

      .cls-2 {
        fill: #c5c5c5;
      }
    </style>
  </defs>
  <g>
    <path d="M44.308,20.902 C41.000,22.346 36.356,23.396 31.231,23.858 C31.201,23.861 31.170,23.863 31.139,23.863 C31.134,23.863 31.130,23.863 31.125,23.863 L26.804,23.803 C26.229,23.796 25.769,23.317 25.777,22.734 C25.785,22.156 26.250,21.693 26.818,21.693 C26.823,21.693 26.828,21.693 26.832,21.693 L31.099,21.752 C35.988,21.307 40.385,20.317 43.484,18.964 C46.301,17.735 47.917,16.258 47.917,14.913 C47.917,13.075 44.963,11.077 40.208,9.700 C39.655,9.540 39.335,8.956 39.493,8.395 C39.651,7.835 40.228,7.511 40.782,7.671 C46.726,9.393 50.000,11.965 50.000,14.913 C50.000,16.512 49.013,18.849 44.308,20.902 ZM18.789,27.651 C18.583,27.882 18.299,27.999 18.015,27.999 C17.766,27.999 17.516,27.910 17.318,27.727 C16.890,27.337 16.857,26.670 17.242,26.237 L19.320,23.905 C14.320,23.495 9.771,22.543 6.379,21.188 C2.206,19.520 -0.000,17.350 -0.000,14.913 C-0.000,13.442 0.799,12.069 2.376,10.833 C3.735,9.767 5.645,8.826 8.054,8.034 C8.601,7.854 9.189,8.158 9.367,8.712 C9.544,9.266 9.244,9.861 8.697,10.041 C4.556,11.402 2.083,13.223 2.083,14.913 C2.083,16.368 3.928,17.940 7.144,19.225 C10.418,20.534 14.871,21.446 19.786,21.826 L17.457,19.036 C17.086,18.592 17.140,17.926 17.580,17.550 C18.018,17.173 18.676,17.228 19.047,17.674 L22.601,21.928 C22.760,22.118 22.847,22.360 22.847,22.609 L22.847,22.690 C22.847,22.951 22.752,23.203 22.579,23.396 L18.789,27.651 Z" class="cls-1"/>
    <path d="M35.542,15.050 L29.153,15.050 C28.578,15.050 28.112,14.578 28.112,13.995 L28.112,1.054 C28.112,0.471 28.578,-0.001 29.153,-0.001 L35.542,-0.001 C36.117,-0.001 36.584,0.471 36.584,1.054 L36.584,13.995 C36.584,14.578 36.117,15.050 35.542,15.050 ZM34.500,2.109 L30.195,2.109 L30.195,12.940 L34.500,12.940 L34.500,2.109 ZM24.892,15.050 L18.503,15.050 C17.927,15.050 17.461,14.578 17.461,13.995 L17.461,1.054 C17.461,0.471 17.927,-0.001 18.503,-0.001 L19.567,-0.001 L23.828,-0.001 L24.892,-0.001 C25.467,-0.001 25.934,0.471 25.934,1.054 L25.934,7.525 L25.934,8.158 L25.934,13.995 C25.934,14.578 25.467,15.050 24.892,15.050 ZM19.544,12.940 L23.850,12.940 L23.850,8.579 L19.544,8.579 L19.544,12.940 ZM19.567,2.109 L19.544,2.109 L19.544,6.470 L23.850,6.470 L23.850,2.109 L23.828,2.109 L19.567,2.109 ZM14.243,15.050 L14.235,15.050 C13.659,15.050 13.192,14.577 13.192,13.993 L13.192,1.055 C13.192,0.472 13.659,-0.001 14.235,-0.001 L14.243,-0.001 C14.819,-0.001 15.286,0.472 15.286,1.055 L15.286,13.993 C15.286,14.577 14.819,15.050 14.243,15.050 Z" class="cls-2"/>
  </g>
</svg>
