<svg xmlns="http://www.w3.org/2000/svg" xmlns:xlink="http://www.w3.org/1999/xlink" preserveAspectRatio="xMidYMid" width="54" height="41" viewBox="0 0 54 41">
  <defs>
    <style>
      .cls-1 {
        fill: #a4a4a4;
      }

      .cls-1, .cls-2 {
        fill-rule: evenodd;
      }

      .cls-2 {
        fill: #e66e2c;
      }
    </style>
  </defs>
  <g>
    <path d="M52.297,36.206 L44.624,36.206 C44.166,36.206 43.795,35.836 43.795,35.380 C43.795,34.923 44.166,34.553 44.624,34.553 L45.219,34.553 L45.219,32.900 L42.909,32.900 L42.909,40.122 C42.910,40.140 42.919,40.156 42.919,40.174 C42.919,40.630 42.549,41.000 42.092,41.000 C41.635,41.000 41.265,40.630 41.265,40.174 L41.252,40.174 L41.252,22.264 C41.252,16.747 38.184,11.759 33.244,9.244 C32.837,9.037 32.675,8.539 32.883,8.132 C33.091,7.726 33.590,7.564 33.997,7.772 C36.634,9.114 38.860,11.149 40.434,13.656 C42.053,16.236 42.909,19.212 42.909,22.264 L42.909,31.247 L49.158,31.247 C49.616,31.247 49.986,31.617 49.986,32.073 C49.986,32.530 49.616,32.900 49.158,32.900 L46.876,32.900 L46.876,34.553 L52.297,34.553 C52.755,34.553 53.125,34.923 53.125,35.380 C53.125,35.836 52.755,36.206 52.297,36.206 ZM29.970,8.046 C28.878,7.790 27.750,7.660 26.618,7.660 C18.548,7.660 11.984,14.211 11.984,22.264 L11.984,40.163 C11.984,40.167 11.986,40.170 11.986,40.174 C11.986,40.630 11.616,41.000 11.159,41.000 C10.702,41.000 10.331,40.630 10.331,40.174 L10.327,40.174 L10.327,31.467 L2.779,31.467 C2.321,31.467 1.951,31.097 1.951,30.640 C1.951,30.184 2.321,29.814 2.779,29.814 L4.694,29.814 L4.694,28.160 L0.663,28.160 C0.391,28.160 0.151,28.030 0.000,27.828 L0.000,26.839 C0.151,26.638 0.391,26.507 0.663,26.507 L7.952,26.507 C8.410,26.507 8.780,26.877 8.780,27.334 C8.780,27.790 8.410,28.160 7.952,28.160 L6.351,28.160 L6.351,29.814 L10.327,29.814 L10.327,22.264 C10.327,13.299 17.635,6.007 26.618,6.007 C27.878,6.007 29.133,6.151 30.350,6.437 C30.795,6.542 31.071,6.987 30.966,7.431 C30.862,7.876 30.415,8.151 29.970,8.046 ZM26.618,10.415 C33.165,10.415 38.491,15.731 38.491,22.264 L38.491,40.105 C38.493,40.129 38.505,40.150 38.505,40.174 C38.505,40.630 38.135,41.000 37.678,41.000 C37.221,41.000 36.850,40.630 36.850,40.174 L36.834,40.174 L36.834,22.264 C36.834,16.642 32.251,12.069 26.618,12.069 C20.985,12.069 16.401,16.642 16.401,22.264 L16.401,34.746 C16.401,35.203 16.031,35.573 15.573,35.573 C15.115,35.573 14.745,35.203 14.745,34.746 L14.745,22.264 C14.745,15.731 20.071,10.415 26.618,10.415 ZM15.573,37.501 C16.031,37.501 16.401,37.872 16.401,38.328 L16.401,40.174 L16.400,40.174 C16.400,40.630 16.030,41.000 15.573,41.000 C15.116,41.000 14.746,40.630 14.746,40.174 L14.745,40.174 L14.745,38.328 C14.745,37.872 15.115,37.501 15.573,37.501 Z" class="cls-1"/>
    <path d="M53.173,9.145 C53.156,9.145 53.141,9.142 53.125,9.141 L53.125,9.148 L46.109,9.148 L46.109,10.801 L48.259,10.801 C48.717,10.801 49.088,11.171 49.088,11.628 C49.088,12.084 48.717,12.454 48.259,12.454 L42.302,12.454 C41.844,12.454 41.473,12.084 41.473,11.628 C41.473,11.171 41.844,10.801 42.302,10.801 L44.452,10.801 L44.452,9.148 L42.302,9.148 C41.844,9.148 41.473,8.778 41.473,8.321 C41.473,7.865 41.844,7.495 42.302,7.495 L53.125,7.495 L53.125,7.499 C53.141,7.498 53.156,7.495 53.173,7.495 C53.630,7.495 54.000,7.864 54.000,8.320 C54.000,8.776 53.630,9.145 53.173,9.145 ZM41.918,1.653 L37.468,1.653 L37.468,3.031 C37.468,3.487 37.097,3.857 36.640,3.857 C36.182,3.857 35.811,3.487 35.811,3.031 L35.811,1.653 L30.757,1.653 C30.299,1.653 29.928,1.283 29.928,0.826 C29.928,0.370 30.299,-0.000 30.757,-0.000 L41.918,-0.000 C42.376,-0.000 42.746,0.370 42.746,0.826 C42.746,1.283 42.376,1.653 41.918,1.653 ZM20.433,5.015 L11.770,5.015 L11.770,6.668 L12.815,6.668 C13.272,6.668 13.643,7.038 13.643,7.495 C13.643,7.951 13.272,8.321 12.815,8.321 L3.866,8.321 C3.408,8.321 3.037,7.951 3.037,7.495 C3.037,7.038 3.408,6.668 3.866,6.668 L10.114,6.668 L10.114,5.015 L9.225,5.015 C8.767,5.015 8.396,4.644 8.396,4.188 C8.396,3.731 8.767,3.361 9.225,3.361 L13.309,3.361 L13.309,1.708 L6.059,1.708 C5.601,1.708 5.231,1.338 5.231,0.881 C5.231,0.425 5.601,0.055 6.059,0.055 L17.354,0.055 C17.811,0.055 18.182,0.425 18.182,0.881 C18.182,1.338 17.811,1.708 17.354,1.708 L14.965,1.708 L14.965,3.361 L20.433,3.361 C20.891,3.361 21.261,3.731 21.261,4.188 C21.261,4.644 20.891,5.015 20.433,5.015 Z" class="cls-2"/>
  </g>
</svg>
