<svg xmlns="http://www.w3.org/2000/svg" xmlns:xlink="http://www.w3.org/1999/xlink" preserveAspectRatio="xMidYMid" width="44" height="44" viewBox="0 0 44 44">
  <defs>
    <style>
      .cls-1 {
        fill: #c5c5c5;
      }

      .cls-1, .cls-2 {
        fill-rule: evenodd;
      }

      .cls-2 {
        fill: #e66e2c;
      }
    </style>
  </defs>
  <g>
    <path d="M41.250,36.666 L39.417,36.666 L39.417,34.833 L41.250,34.833 C41.756,34.833 42.166,34.423 42.166,33.916 L42.166,2.750 C42.166,2.244 41.756,1.833 41.250,1.833 L2.750,1.833 C2.244,1.833 1.833,2.244 1.833,2.750 L1.833,33.916 C1.833,34.423 2.244,34.833 2.750,34.833 L24.750,34.833 L24.750,36.666 L2.750,36.666 C1.231,36.666 -0.000,35.435 -0.000,33.916 L-0.000,2.750 C-0.000,1.231 1.231,-0.000 2.750,-0.000 L41.250,-0.000 C42.769,-0.000 44.000,1.231 44.000,2.750 L44.000,33.916 C44.000,35.435 42.769,36.666 41.250,36.666 ZM11.917,13.749 L11.917,10.083 C11.917,9.577 12.327,9.166 12.833,9.166 L31.167,9.166 C31.673,9.166 32.083,9.576 32.083,10.083 L32.083,13.749 C32.083,14.256 31.673,14.666 31.167,14.666 L12.833,14.666 C12.327,14.666 11.917,14.256 11.917,13.749 ZM13.750,12.833 L30.250,12.833 L30.250,11.000 L13.750,11.000 L13.750,12.833 ZM11.000,17.416 L12.833,17.416 L12.833,19.250 L11.000,19.250 L11.000,17.416 ZM16.500,17.416 L16.500,19.250 L14.667,19.250 L14.667,17.416 L16.500,17.416 ZM22.000,22.916 L11.000,22.916 L11.000,21.083 L22.000,21.083 L22.000,22.916 ZM6.417,32.083 L4.583,32.083 L4.583,30.250 L6.417,30.250 L6.417,32.083 ZM4.583,4.583 L6.417,4.583 L6.417,6.416 L4.583,6.416 L4.583,4.583 ZM37.583,4.583 L39.417,4.583 L39.417,6.416 L37.583,6.416 L37.583,4.583 ZM6.417,10.924 L6.417,25.742 C8.723,26.137 10.530,27.943 10.924,30.250 L22.000,30.250 L22.000,32.083 L10.083,32.083 C9.577,32.083 9.167,31.673 9.167,31.166 C9.167,29.142 7.525,27.500 5.500,27.500 C4.994,27.500 4.583,27.089 4.583,26.583 L4.583,10.083 C4.583,9.577 4.994,9.166 5.500,9.166 C7.525,9.166 9.167,7.525 9.167,5.500 C9.167,4.993 9.577,4.583 10.083,4.583 L33.916,4.583 C34.423,4.583 34.833,4.993 34.833,5.500 C34.833,7.525 36.475,9.166 38.500,9.166 C39.006,9.166 39.417,9.576 39.417,10.083 L39.417,18.333 L37.583,18.333 L37.583,10.924 C35.277,10.529 33.470,8.723 33.076,6.416 L10.924,6.416 C10.530,8.723 8.723,10.529 6.417,10.924 Z" class="cls-1"/>
    <path d="M37.583,33.631 L37.583,43.083 C37.583,43.589 37.173,44.000 36.667,44.000 C36.458,44.000 36.256,43.929 36.094,43.799 L32.083,40.590 L28.073,43.799 C27.678,44.115 27.101,44.051 26.784,43.656 C26.654,43.493 26.583,43.291 26.583,43.083 L26.583,33.636 C24.899,32.126 23.833,29.940 23.833,27.500 C23.833,22.943 27.527,19.250 32.083,19.250 C36.640,19.250 40.333,22.943 40.333,27.500 C40.330,29.937 39.265,32.121 37.583,33.631 ZM28.417,41.176 L31.510,38.700 C31.845,38.432 32.321,38.432 32.656,38.700 L35.750,41.176 L35.750,34.878 C34.644,35.429 33.402,35.748 32.083,35.749 C30.764,35.749 29.522,35.432 28.417,34.882 L28.417,41.176 ZM32.083,21.083 C28.539,21.083 25.667,23.956 25.667,27.500 C25.667,31.044 28.539,33.916 32.083,33.916 C35.627,33.916 38.500,31.044 38.500,27.500 C38.496,23.958 35.625,21.087 32.083,21.083 ZM32.083,32.083 C29.552,32.083 27.500,30.031 27.500,27.500 C27.500,24.968 29.552,22.916 32.083,22.916 C34.615,22.916 36.667,24.968 36.667,27.500 C36.664,30.030 34.613,32.080 32.083,32.083 ZM32.083,24.750 C30.565,24.750 29.333,25.981 29.333,27.500 C29.333,29.018 30.565,30.250 32.083,30.250 C33.602,30.250 34.833,29.018 34.833,27.500 C34.833,25.981 33.602,24.750 32.083,24.750 Z" class="cls-2"/>
  </g>
</svg>
