<svg xmlns="http://www.w3.org/2000/svg" xmlns:xlink="http://www.w3.org/1999/xlink" preserveAspectRatio="xMidYMid" width="52" height="52" viewBox="0 0 52 52">
  <defs>
    <style>
      .cls-1 {
        fill: #eb702c;
      }

      .cls-1, .cls-2 {
        fill-rule: evenodd;
      }

      .cls-2 {
        fill: #c5c5c5;
      }
    </style>
  </defs>
  <g>
    <path d="M46.802,25.130 C45.365,25.130 44.201,23.966 44.201,22.529 C44.201,21.094 45.365,19.929 46.802,19.929 C48.237,19.929 49.401,21.094 49.401,22.529 C49.401,23.966 48.237,25.130 46.802,25.130 ZM46.802,21.663 C46.323,21.663 45.935,22.052 45.935,22.529 C45.935,23.008 46.323,23.397 46.802,23.397 C47.280,23.397 47.668,23.008 47.668,22.529 C47.668,22.052 47.280,21.663 46.802,21.663 ZM47.668,15.597 C47.189,15.597 46.802,15.209 46.802,14.730 C46.802,14.251 47.189,13.863 47.668,13.863 C48.147,13.863 48.535,14.251 48.535,14.730 C48.535,15.209 48.147,15.597 47.668,15.597 ZM44.201,7.796 C43.723,7.796 43.335,7.408 43.335,6.929 C43.335,6.451 43.723,6.064 44.201,6.064 C44.680,6.064 45.068,6.451 45.068,6.929 C45.068,7.408 44.680,7.796 44.201,7.796 ZM39.868,15.597 C39.389,15.597 39.001,15.209 39.001,14.730 C39.001,14.251 39.389,13.863 39.868,13.863 C40.346,13.863 40.735,14.251 40.735,14.730 C40.735,15.209 40.346,15.597 39.868,15.597 ZM20.801,42.464 C19.364,42.464 18.200,41.299 18.200,39.864 C18.200,38.428 19.364,37.265 20.801,37.265 C22.236,37.265 23.400,38.428 23.400,39.864 C23.400,41.299 22.236,42.464 20.801,42.464 ZM20.801,38.997 C20.322,38.997 19.934,39.385 19.934,39.864 C19.934,40.342 20.322,40.730 20.801,40.730 C21.279,40.730 21.667,40.342 21.667,39.864 C21.667,39.385 21.279,38.997 20.801,38.997 ZM18.200,32.064 C17.722,32.064 17.334,31.676 17.334,31.197 C17.334,30.719 17.722,30.331 18.200,30.331 C18.679,30.331 19.067,30.719 19.067,31.197 C19.067,31.676 18.679,32.064 18.200,32.064 ZM15.600,36.397 C15.122,36.397 14.733,36.009 14.733,35.530 C14.733,35.052 15.122,34.665 15.600,34.665 C16.079,34.665 16.467,35.052 16.467,35.530 C16.467,36.009 16.079,36.397 15.600,36.397 Z" class="cls-1"/>
    <path d="M50.268,51.998 L22.534,51.998 C21.576,51.998 20.801,51.222 20.801,50.264 L20.801,48.531 C20.801,47.573 21.576,46.797 22.534,46.797 L26.001,46.797 L26.001,45.064 C26.001,44.107 26.777,43.330 27.734,43.330 L29.833,43.330 C29.350,42.998 28.899,42.623 28.485,42.207 C26.900,40.657 26.005,38.533 26.001,36.315 C26.112,34.316 26.880,32.409 28.185,30.892 C28.793,30.125 29.257,29.255 29.556,28.322 C29.705,27.760 29.792,27.184 29.816,26.604 C29.837,26.339 29.858,26.070 29.889,25.799 C29.923,25.494 30.117,25.229 30.398,25.104 C30.679,24.980 31.005,25.013 31.255,25.193 C32.211,26.063 32.820,27.250 32.970,28.534 C33.301,27.879 33.455,27.149 33.415,26.416 C33.289,25.496 32.944,24.620 32.411,23.861 C32.117,23.427 31.797,23.011 31.453,22.614 C31.401,22.554 31.328,22.458 31.241,22.345 C31.107,22.159 30.963,21.982 30.808,21.811 C30.404,21.636 30.196,21.184 30.325,20.763 C30.454,20.341 30.880,20.083 31.313,20.165 C34.541,20.905 37.468,22.608 39.709,25.047 C39.901,25.265 40.082,25.494 40.248,25.732 C41.967,28.201 42.006,31.277 41.510,33.953 C41.807,33.599 42.049,33.203 42.228,32.778 C42.357,32.463 42.469,32.144 42.561,31.818 C42.610,31.648 42.654,31.481 42.697,31.307 C42.705,31.277 42.721,31.222 42.744,31.155 C42.757,31.110 42.778,31.052 42.793,30.998 C42.797,30.628 43.037,30.300 43.390,30.185 C43.743,30.069 44.130,30.191 44.353,30.487 C45.255,31.703 45.843,33.121 46.062,34.619 C46.520,37.756 44.863,41.148 41.830,43.330 L45.068,43.330 C46.025,43.330 46.802,44.107 46.802,45.064 L46.802,46.797 L50.268,46.797 C51.226,46.797 52.002,47.573 52.002,48.531 L52.002,50.264 C52.002,51.222 51.226,51.998 50.268,51.998 ZM44.344,34.871 C44.263,34.309 44.116,33.757 43.907,33.229 C43.880,33.305 43.850,33.377 43.820,33.450 C43.161,34.976 41.962,36.205 40.452,36.902 C40.140,37.057 39.765,37.011 39.500,36.783 C39.235,36.557 39.132,36.193 39.239,35.861 C40.078,33.175 40.687,29.411 38.817,26.725 C38.688,26.541 38.549,26.363 38.400,26.195 C37.117,24.777 35.556,23.639 33.813,22.852 L33.843,22.896 C34.539,23.891 34.982,25.041 35.131,26.245 C35.183,27.513 34.880,28.770 34.257,29.875 C33.951,30.565 33.601,31.236 33.207,31.881 C33.202,31.889 33.164,31.948 33.159,31.955 C32.945,32.270 32.551,32.409 32.187,32.297 C31.823,32.186 31.574,31.850 31.574,31.470 C31.568,30.801 31.502,30.134 31.378,29.477 C31.346,29.296 31.299,29.031 31.233,28.732 C31.223,28.762 31.214,28.795 31.205,28.825 C30.847,29.953 30.287,31.009 29.554,31.940 C28.486,33.166 27.847,34.706 27.734,36.329 C27.740,38.085 28.453,39.765 29.711,40.991 C30.319,41.597 31.022,42.101 31.791,42.481 C31.623,41.942 31.539,41.382 31.539,40.818 C31.495,36.589 35.407,33.308 35.574,33.172 C35.901,32.903 36.374,32.909 36.693,33.187 C37.012,33.464 37.084,33.932 36.864,34.293 C36.549,34.804 36.847,36.388 38.494,38.161 C39.511,39.372 39.998,40.941 39.844,42.515 C40.117,42.383 40.380,42.233 40.632,42.065 C42.629,40.692 44.799,37.991 44.344,34.871 ZM33.275,40.795 C33.298,42.898 34.527,43.256 35.011,43.317 C35.094,43.319 35.175,43.330 35.262,43.330 C36.194,43.358 37.127,43.288 38.045,43.119 C38.191,42.116 38.241,40.424 37.226,39.332 C36.317,38.399 35.632,37.274 35.219,36.038 C34.056,37.361 33.371,39.035 33.275,40.795 ZM45.068,45.064 L27.734,45.064 L27.734,46.797 L45.068,46.797 L45.068,45.064 ZM50.268,48.531 L22.534,48.531 L22.534,50.264 L50.268,50.264 L50.268,48.531 ZM26.125,26.864 C25.448,27.541 24.351,27.541 23.674,26.864 L20.572,23.773 C17.134,26.674 12.220,27.035 8.394,24.669 C4.569,22.303 2.698,17.744 3.758,13.372 C4.022,12.157 4.535,11.011 5.266,10.005 C5.363,9.882 5.462,9.764 5.562,9.644 C5.736,9.435 5.902,9.230 6.050,9.027 C4.725,8.666 3.466,8.094 2.323,7.333 C1.761,6.964 1.236,6.607 0.745,6.270 C0.279,5.947 0.001,5.416 -0.001,4.850 L-0.001,2.722 C-0.000,2.072 0.364,1.478 0.942,1.180 C1.520,0.884 2.215,0.936 2.743,1.314 C3.263,1.691 3.813,2.071 4.376,2.450 C4.147,1.971 4.153,1.415 4.392,0.942 C4.687,0.360 5.286,-0.006 5.938,-0.004 L8.077,-0.004 C8.654,-0.005 9.195,0.280 9.519,0.759 C10.165,1.699 10.701,2.712 11.118,3.774 C11.475,3.620 11.824,3.432 12.184,3.233 C12.621,2.981 13.074,2.754 13.537,2.554 C14.638,2.092 15.812,1.827 17.004,1.773 C19.426,1.651 21.816,2.373 23.764,3.818 C24.165,4.118 24.544,4.447 24.899,4.800 C28.715,8.628 28.968,14.738 25.480,18.867 L28.575,21.963 C29.251,22.640 29.251,23.737 28.575,24.414 L26.125,26.864 ZM5.444,13.781 C4.733,16.720 5.601,19.819 7.737,21.961 C10.888,25.096 15.898,25.348 19.348,22.543 L18.114,21.311 C16.900,22.256 15.405,22.769 13.867,22.765 L13.854,22.765 C12.016,22.768 10.252,22.035 8.959,20.729 C7.141,18.930 6.472,16.269 7.225,13.825 C7.400,13.179 7.697,12.574 8.101,12.043 C8.233,11.881 8.360,11.725 8.493,11.569 C8.751,11.287 8.983,10.982 9.186,10.657 C9.422,10.256 9.612,9.831 9.755,9.388 C9.632,9.400 9.510,9.396 9.387,9.400 C9.238,9.407 9.088,9.415 8.940,9.415 C8.767,9.415 8.594,9.407 8.420,9.398 C8.281,9.393 8.140,9.388 8.003,9.378 C7.968,9.371 7.921,9.371 7.881,9.371 C7.604,9.867 7.273,10.332 6.895,10.757 L6.622,11.090 C6.051,11.898 5.650,12.813 5.444,13.781 ZM14.473,15.219 L16.932,12.766 C17.609,12.093 18.704,12.093 19.382,12.766 L21.778,15.164 C22.406,14.286 22.744,13.236 22.744,12.156 C22.743,10.480 21.934,8.908 20.571,7.932 C19.209,6.954 17.459,6.694 15.871,7.230 C15.440,7.396 15.023,7.599 14.628,7.838 C14.320,8.011 14.013,8.182 13.694,8.331 C13.027,8.647 12.334,8.901 11.620,9.089 C11.442,9.946 11.127,10.770 10.688,11.528 C10.434,11.944 10.141,12.335 9.815,12.695 C9.700,12.835 9.582,12.975 9.468,13.118 C9.200,13.478 9.005,13.888 8.892,14.321 C8.321,16.157 8.822,18.159 10.192,19.507 C11.162,20.487 12.483,21.037 13.861,21.036 L13.867,21.036 C14.946,21.036 15.997,20.697 16.874,20.069 L14.473,17.673 C14.148,17.348 13.964,16.907 13.964,16.446 C13.964,15.985 14.148,15.544 14.473,15.219 ZM8.085,1.729 L5.938,1.729 L6.413,2.397 C6.781,2.898 7.110,3.426 7.400,3.977 C7.468,3.996 7.537,4.014 7.606,4.030 C7.801,4.076 7.998,4.110 8.197,4.136 C8.310,4.152 8.427,4.166 8.543,4.175 C8.760,4.189 8.978,4.191 9.194,4.181 C9.265,4.175 9.336,4.181 9.408,4.175 C9.052,3.317 8.608,2.497 8.085,1.729 ZM23.670,6.025 C23.371,5.729 23.053,5.453 22.717,5.201 C21.093,3.999 19.101,3.398 17.083,3.503 C16.089,3.549 15.112,3.770 14.195,4.156 C13.790,4.334 13.396,4.533 13.013,4.754 C12.318,5.180 11.566,5.507 10.779,5.722 L10.751,5.722 C10.434,5.798 10.111,5.852 9.786,5.887 C9.672,5.899 9.558,5.899 9.444,5.907 C9.282,5.918 9.120,5.936 8.958,5.936 C8.913,5.936 8.867,5.925 8.821,5.925 C8.557,5.918 8.293,5.896 8.031,5.862 C7.911,5.847 7.790,5.842 7.670,5.821 C7.283,5.757 6.901,5.663 6.527,5.543 C5.712,5.285 4.938,4.912 4.227,4.437 C3.357,3.867 2.513,3.290 1.727,2.718 L1.733,4.850 C2.209,5.173 2.723,5.523 3.276,5.880 C4.539,6.733 5.969,7.305 7.471,7.560 C7.745,7.608 8.021,7.640 8.299,7.657 C9.105,7.712 9.915,7.663 10.709,7.513 C11.490,7.358 12.247,7.104 12.963,6.757 C13.242,6.626 13.510,6.475 13.780,6.323 C14.267,6.032 14.780,5.788 15.312,5.589 C17.814,4.746 20.577,5.390 22.447,7.253 C24.919,9.722 25.164,13.646 23.018,16.404 L24.253,17.638 C27.063,14.190 26.811,9.175 23.670,6.025 ZM23.671,19.511 L18.156,13.995 L15.701,16.446 L18.759,19.497 C18.764,19.502 18.774,19.503 18.774,19.507 L21.227,21.961 L21.234,21.970 L24.902,25.638 L27.347,23.186 L23.671,19.511 Z" class="cls-2"/>
  </g>
</svg>
