<svg xmlns="http://www.w3.org/2000/svg" xmlns:xlink="http://www.w3.org/1999/xlink" preserveAspectRatio="xMidYMid" width="47" height="47" viewBox="0 0 47 47">
  <defs>
    <style>
      .cls-1 {
        fill: #eb702c;
      }

      .cls-1, .cls-2 {
        fill-rule: evenodd;
      }

      .cls-2 {
        fill: #c5c5c5;
      }
    </style>
  </defs>
  <g>
    <path d="M46.082,43.301 L44.759,43.301 C44.252,43.301 43.841,42.891 43.841,42.384 C43.841,41.876 44.252,41.466 44.759,41.466 L46.082,41.466 C46.589,41.466 47.000,41.876 47.000,42.384 C47.000,42.891 46.589,43.301 46.082,43.301 ZM42.410,46.973 C41.903,46.973 41.492,46.563 41.492,46.056 L41.492,44.732 C41.492,44.225 41.903,43.814 42.410,43.814 C42.917,43.814 43.328,44.225 43.328,44.732 L43.328,46.056 C43.328,46.563 42.917,46.973 42.410,46.973 ZM42.410,40.954 C41.903,40.954 41.492,40.543 41.492,40.035 L41.492,38.712 C41.492,38.205 41.903,37.795 42.410,37.795 C42.917,37.795 43.328,38.205 43.328,38.712 L43.328,40.035 C43.328,40.543 42.917,40.954 42.410,40.954 ZM40.061,43.301 L38.738,43.301 C38.231,43.301 37.820,42.891 37.820,42.384 C37.820,41.876 38.231,41.466 38.738,41.466 L40.061,41.466 C40.568,41.466 40.979,41.876 40.979,42.384 C40.979,42.891 40.568,43.301 40.061,43.301 ZM26.346,32.298 L27.156,34.877 C27.292,35.308 27.146,35.778 26.794,36.045 C26.618,36.178 26.412,36.244 26.206,36.244 C25.999,36.244 25.792,36.178 25.616,36.044 L23.511,34.443 L21.407,36.044 C21.054,36.310 20.581,36.311 20.229,36.045 C19.876,35.778 19.731,35.308 19.866,34.877 L20.676,32.298 L18.563,30.705 C18.210,30.440 18.063,29.971 18.197,29.541 C18.331,29.109 18.713,28.819 19.149,28.819 L21.759,28.819 L22.559,26.242 C22.693,25.810 23.076,25.520 23.511,25.520 C23.947,25.520 24.329,25.810 24.463,26.242 L25.263,28.819 L27.874,28.819 C28.309,28.819 28.691,29.109 28.825,29.541 C28.959,29.971 28.813,30.440 28.460,30.705 L26.346,32.298 ZM24.746,30.300 C24.438,30.300 24.165,30.092 24.070,29.787 L23.511,27.987 L22.952,29.787 C22.858,30.092 22.585,30.300 22.277,30.300 L20.448,30.300 L21.930,31.415 C22.180,31.603 22.285,31.939 22.189,32.245 L21.622,34.046 L23.092,32.929 C23.217,32.835 23.364,32.786 23.511,32.786 C23.658,32.786 23.805,32.835 23.930,32.929 L25.400,34.046 L24.834,32.245 C24.738,31.939 24.843,31.603 25.093,31.415 L26.574,30.300 L24.746,30.300 ZM13.113,42.691 C12.871,42.691 12.635,42.593 12.464,42.421 C12.293,42.252 12.195,42.015 12.195,41.772 C12.195,41.530 12.293,41.294 12.464,41.124 C12.635,40.954 12.871,40.855 13.113,40.855 C13.355,40.855 13.591,40.954 13.762,41.124 C13.934,41.294 14.031,41.532 14.031,41.772 C14.031,42.015 13.934,42.252 13.762,42.421 C13.591,42.593 13.355,42.691 13.113,42.691 ZM8.260,16.991 L6.937,16.991 C6.430,16.991 6.019,16.580 6.019,16.073 C6.019,15.567 6.430,15.156 6.937,15.156 L8.260,15.156 C8.768,15.156 9.179,15.567 9.179,16.073 C9.179,16.580 8.768,16.991 8.260,16.991 ZM4.588,20.663 C4.082,20.663 3.670,20.252 3.670,19.744 L3.670,18.422 C3.670,17.915 4.082,17.504 4.588,17.504 C5.095,17.504 5.506,17.915 5.506,18.422 L5.506,19.744 C5.506,20.252 5.095,20.663 4.588,20.663 ZM4.588,14.643 C4.082,14.643 3.670,14.232 3.670,13.724 L3.670,12.402 C3.670,11.895 4.082,11.484 4.588,11.484 C5.095,11.484 5.506,11.895 5.506,12.402 L5.506,13.724 C5.506,14.232 5.095,14.643 4.588,14.643 ZM2.240,16.991 L0.916,16.991 C0.409,16.991 -0.002,16.580 -0.002,16.073 C-0.002,15.567 0.409,15.156 0.916,15.156 L2.240,15.156 C2.747,15.156 3.158,15.567 3.158,16.073 C3.158,16.580 2.747,16.991 2.240,16.991 Z" class="cls-1"/>
    <path d="M29.538,16.992 C31.383,17.765 33.078,18.898 34.535,20.355 C37.482,23.302 39.105,27.221 39.105,31.389 C39.105,35.556 37.482,39.475 34.534,42.421 C31.523,45.433 27.526,46.998 23.490,46.998 C20.772,46.998 18.036,46.288 15.570,44.832 C15.134,44.575 14.989,44.011 15.247,43.575 C15.504,43.139 16.067,42.994 16.504,43.251 C21.910,46.443 28.790,45.569 33.236,41.124 C35.837,38.523 37.269,35.066 37.269,31.389 C37.269,27.711 35.837,24.253 33.236,21.653 C30.635,19.053 27.177,17.620 23.499,17.620 C22.432,17.620 21.383,17.742 20.368,17.977 C20.254,18.032 20.130,18.062 20.004,18.066 C17.664,18.676 15.518,19.898 13.762,21.653 C9.317,26.098 8.441,32.977 11.634,38.383 C11.892,38.819 11.747,39.382 11.311,39.640 C10.874,39.897 10.311,39.752 10.054,39.316 C6.435,33.189 7.426,25.393 12.464,20.355 C13.926,18.893 15.628,17.758 17.480,16.984 L8.456,1.375 C8.292,1.091 8.291,0.741 8.456,0.457 C8.620,0.173 8.923,-0.003 9.251,-0.003 L17.667,-0.003 C17.995,-0.003 18.298,0.172 18.462,0.456 L23.511,9.190 L28.560,0.456 C28.724,0.172 29.027,-0.003 29.355,-0.003 L37.771,-0.003 C38.099,-0.003 38.403,0.173 38.566,0.457 C38.730,0.741 38.730,1.091 38.566,1.375 L29.538,16.992 ZM17.137,1.833 L10.842,1.833 L19.245,16.369 C19.291,16.357 19.337,16.344 19.383,16.331 L22.451,11.023 L17.137,1.833 ZM29.885,1.833 L21.763,15.881 C22.336,15.818 22.915,15.785 23.499,15.785 C24.966,15.785 26.400,15.986 27.774,16.375 L36.180,1.833 L29.885,1.833 ZM23.499,20.190 C29.675,20.190 34.699,25.214 34.699,31.389 C34.699,37.562 29.675,42.587 23.499,42.587 C17.324,42.587 12.300,37.562 12.300,31.389 C12.300,25.214 17.324,20.190 23.499,20.190 ZM23.499,40.751 C28.663,40.751 32.863,36.551 32.863,31.389 C32.863,26.227 28.663,22.027 23.499,22.027 C18.336,22.027 14.136,26.227 14.136,31.389 C14.136,36.551 18.336,40.751 23.499,40.751 Z" class="cls-2"/>
  </g>
</svg>
