<svg xmlns="http://www.w3.org/2000/svg" xmlns:xlink="http://www.w3.org/1999/xlink" preserveAspectRatio="xMidYMid" width="55" height="45" viewBox="0 0 55 45">
  <defs>
    <style>
      .cls-1 {
        fill: #c5c5c5;
      }

      .cls-1, .cls-2 {
        fill-rule: evenodd;
      }

      .cls-2 {
        fill: #e66e2c;
      }
    </style>
  </defs>
  <g>
    <path d="M33.902,30.358 L35.225,31.618 C35.751,32.119 36.466,32.401 37.210,32.401 C37.955,32.401 38.669,32.119 39.195,31.618 L46.473,24.690 C46.999,24.189 47.295,23.509 47.295,22.800 C47.295,22.091 46.999,21.411 46.473,20.910 L45.150,19.650 C43.942,18.510 42.079,18.288 40.613,19.110 L38.736,17.322 L38.241,14.966 C38.133,14.449 37.866,13.973 37.473,13.601 L32.981,9.325 C32.590,8.951 32.091,8.696 31.547,8.594 L29.070,8.123 L27.192,6.335 C28.069,4.942 27.835,3.159 26.625,2.014 L25.302,0.755 C24.191,-0.255 22.442,-0.255 21.331,0.755 L14.053,7.683 C12.958,8.727 12.958,10.418 14.053,11.462 L15.376,12.721 C16.578,13.875 18.451,14.099 19.914,13.263 L21.793,15.051 L22.300,17.469 L0.821,37.918 C-0.275,38.962 -0.275,40.653 0.821,41.697 L3.467,44.217 C3.993,44.718 4.708,45.000 5.452,45.000 C6.196,45.000 6.911,44.718 7.438,44.217 L28.917,23.767 L31.456,24.250 L33.334,26.038 M16.038,33.508 L14.053,31.618 C13.688,31.270 13.095,31.270 12.730,31.617 C12.364,31.965 12.364,32.529 12.729,32.877 L14.715,34.767 L12.731,36.657 L11.406,35.397 C11.039,35.060 10.456,35.065 10.095,35.408 C9.733,35.752 9.729,36.308 10.084,36.657 L11.406,37.918 L9.422,39.807 L7.438,37.918 C7.070,37.581 6.487,37.585 6.126,37.929 C5.764,38.273 5.760,38.828 6.114,39.178 L8.099,41.067 L6.114,42.956 C5.939,43.122 5.701,43.217 5.452,43.217 C5.204,43.217 4.965,43.122 4.790,42.956 L2.144,40.436 C1.779,40.088 1.779,39.524 2.144,39.176 L23.316,19.021 L27.286,22.799 L16.038,33.508 ZM39.195,20.281 L34.563,24.690 L33.241,23.430 L37.872,19.022 L39.195,20.281 ZM43.827,20.911 L45.150,22.171 C45.515,22.520 45.515,23.082 45.150,23.430 L37.871,30.359 C37.501,30.696 36.919,30.696 36.549,30.359 L35.225,29.099 C34.874,28.766 34.677,28.312 34.677,27.840 C34.677,27.367 34.874,26.914 35.225,26.580 L41.180,20.911 C41.531,20.577 42.007,20.389 42.503,20.389 C42.999,20.389 43.476,20.577 43.827,20.911 L43.827,20.911 ZM31.656,10.585 L36.148,14.860 C36.278,14.984 36.368,15.143 36.404,15.315 L36.856,17.469 L31.610,22.463 L29.070,21.979 L24.178,17.322 L23.671,14.905 L28.918,9.910 L31.178,10.341 C31.359,10.374 31.527,10.460 31.656,10.585 L31.656,10.585 ZM22.654,13.352 L21.332,12.091 L25.964,7.683 L27.287,8.943 L22.654,13.352 ZM16.700,11.463 L15.376,10.203 C15.011,9.856 15.011,9.292 15.376,8.944 L22.654,2.016 C23.020,1.668 23.612,1.668 23.978,2.016 L25.302,3.275 C25.652,3.609 25.849,4.062 25.849,4.535 C25.849,5.008 25.652,5.461 25.302,5.795 L19.347,11.463 C18.606,12.137 17.440,12.137 16.700,11.463 L16.700,11.463 Z" class="cls-1"/>
    <path d="M54.064,32.930 L50.756,32.930 C50.240,32.930 49.821,32.531 49.821,32.039 C49.821,31.548 50.240,31.148 50.756,31.148 L54.064,31.148 C54.581,31.148 55.000,31.548 55.000,32.039 C55.000,32.531 54.581,32.930 54.064,32.930 ZM50.251,29.997 C50.017,30.228 49.668,30.321 49.342,30.240 C49.014,30.158 48.759,29.915 48.673,29.604 C48.587,29.292 48.685,28.961 48.928,28.737 L51.268,26.511 C51.634,26.173 52.218,26.178 52.579,26.521 C52.940,26.865 52.945,27.420 52.591,27.770 L50.251,29.997 ZM46.782,32.930 C46.534,32.929 46.297,32.836 46.118,32.671 C45.756,32.320 45.756,31.759 46.118,31.407 L46.258,31.300 C46.310,31.266 46.367,31.239 46.427,31.220 C46.483,31.192 46.543,31.175 46.605,31.166 C46.910,31.113 47.224,31.202 47.447,31.407 C47.717,31.661 47.798,32.046 47.652,32.381 C47.506,32.715 47.163,32.932 46.782,32.930 ZM33.334,26.038 L33.902,30.358 C32.703,29.209 32.470,27.434 33.334,26.038 ZM30.673,32.930 C30.293,32.932 29.949,32.715 29.803,32.381 C29.658,32.046 29.739,31.661 30.008,31.407 C30.232,31.202 30.546,31.113 30.851,31.166 C30.912,31.175 30.972,31.192 31.028,31.220 C31.088,31.239 31.145,31.266 31.198,31.300 L31.337,31.407 C31.699,31.759 31.699,32.320 31.337,32.671 C31.159,32.836 30.921,32.929 30.673,32.930 ZM27.204,29.997 L26.268,29.106 C25.913,28.757 25.918,28.201 26.279,27.857 C26.640,27.514 27.224,27.509 27.591,27.847 L28.527,28.737 C28.892,29.085 28.892,29.649 28.527,29.997 C28.161,30.344 27.569,30.344 27.204,29.997 ZM27.635,32.039 C27.635,32.531 27.216,32.930 26.699,32.930 L23.390,32.930 C22.874,32.930 22.455,32.531 22.455,32.039 C22.455,31.548 22.874,31.148 23.390,31.148 L26.699,31.148 C27.216,31.148 27.635,31.548 27.635,32.039 Z" class="cls-2"/>
  </g>
</svg>
