<svg xmlns="http://www.w3.org/2000/svg" xmlns:xlink="http://www.w3.org/1999/xlink" preserveAspectRatio="xMidYMid" width="55" height="55" viewBox="0 0 55 55">
  <defs>
    <style>
      .cls-1 {
        fill: #c5c5c5;
      }

      .cls-1, .cls-2 {
        fill-rule: evenodd;
      }

      .cls-2 {
        fill: #eb702c;
      }
    </style>
  </defs>
  <g>
    <path d="M17.187,55.000 C12.765,55.000 9.166,51.401 9.166,46.978 C9.166,44.905 9.996,42.900 11.458,41.400 L11.458,5.728 C11.458,2.569 14.028,-0.001 17.187,-0.001 C20.346,-0.001 22.916,2.569 22.916,5.728 L22.916,41.400 C24.379,42.900 25.208,44.905 25.208,46.978 C25.208,51.401 21.609,55.000 17.187,55.000 ZM21.003,42.739 C20.763,42.521 20.625,42.212 20.625,41.887 L20.625,5.728 C20.625,3.833 19.083,2.291 17.187,2.291 C15.292,2.291 13.750,3.833 13.750,5.728 L13.750,41.887 C13.750,42.212 13.612,42.521 13.372,42.739 C12.137,43.850 11.458,45.356 11.458,46.978 C11.458,50.137 14.028,52.708 17.187,52.708 C20.346,52.708 22.916,50.137 22.917,46.978 C22.917,45.356 22.237,43.849 21.003,42.739 ZM8.021,38.957 L1.146,38.957 C0.512,38.957 -0.000,38.445 -0.000,37.812 C-0.000,37.178 0.512,36.666 1.146,36.666 L8.021,36.666 C8.654,36.666 9.166,37.178 9.166,37.812 C9.166,38.445 8.654,38.957 8.021,38.957 ZM8.021,34.374 L5.729,34.374 C5.096,34.374 4.583,33.862 4.583,33.228 C4.583,32.595 5.096,32.083 5.729,32.083 L8.021,32.083 C8.654,32.083 9.166,32.595 9.166,33.228 C9.166,33.862 8.654,34.374 8.021,34.374 ZM8.021,29.791 L5.729,29.791 C5.096,29.791 4.583,29.278 4.583,28.645 C4.583,28.012 5.096,27.499 5.729,27.499 L8.021,27.499 C8.654,27.499 9.166,28.012 9.166,28.645 C9.166,29.278 8.654,29.791 8.021,29.791 ZM8.021,25.207 L1.146,25.207 C0.512,25.207 -0.000,24.695 -0.000,24.062 C-0.000,23.428 0.512,22.916 1.146,22.916 L8.021,22.916 C8.654,22.916 9.166,23.428 9.166,24.062 C9.166,24.695 8.654,25.207 8.021,25.207 ZM8.021,20.624 L5.729,20.624 C5.096,20.624 4.583,20.112 4.583,19.479 C4.583,18.845 5.096,18.333 5.729,18.333 L8.021,18.333 C8.654,18.333 9.166,18.845 9.166,19.479 C9.166,20.112 8.654,20.624 8.021,20.624 ZM8.021,16.041 L5.729,16.041 C5.096,16.041 4.583,15.529 4.583,14.895 C4.583,14.262 5.096,13.749 5.729,13.749 L8.021,13.749 C8.654,13.749 9.166,14.262 9.166,14.895 C9.166,15.529 8.654,16.041 8.021,16.041 ZM8.021,11.458 L1.146,11.458 C0.512,11.458 -0.000,10.945 -0.000,10.312 C-0.000,9.678 0.512,9.166 1.146,9.166 L8.021,9.166 C8.654,9.166 9.166,9.678 9.166,10.312 C9.166,10.945 8.654,11.458 8.021,11.458 Z" class="cls-1"/>
    <path d="M18.333,43.752 L18.333,24.062 C18.333,23.428 17.821,22.916 17.187,22.916 C16.554,22.916 16.041,23.428 16.041,24.062 L16.041,43.752 C14.711,44.227 13.750,45.486 13.750,46.978 C13.750,48.874 15.292,50.416 17.187,50.416 C19.083,50.416 20.625,48.874 20.625,46.978 C20.625,45.486 19.664,44.227 18.333,43.752 ZM17.187,48.124 C16.555,48.124 16.041,47.611 16.041,46.978 C16.041,46.346 16.555,45.833 17.187,45.833 C17.819,45.833 18.333,46.346 18.333,46.978 C18.333,47.611 17.820,48.124 17.187,48.124 Z" class="cls-2"/>
    <path d="M51.562,6.873 C49.667,6.873 48.125,5.331 48.125,3.435 C48.125,1.540 49.667,-0.002 51.562,-0.002 C53.458,-0.002 55.000,1.540 55.000,3.435 C55.000,5.331 53.458,6.873 51.562,6.873 ZM51.562,2.290 C50.930,2.290 50.417,2.803 50.417,3.435 C50.417,4.068 50.930,4.581 51.562,4.581 C52.195,4.581 52.708,4.068 52.708,3.435 C52.708,2.803 52.195,2.290 51.562,2.290 ZM44.688,6.873 C44.054,6.873 43.542,6.361 43.542,5.728 C43.542,3.832 42.000,2.290 40.104,2.290 L37.813,2.290 C35.917,2.290 34.375,3.832 34.375,5.728 L34.375,14.894 C34.375,16.789 35.917,18.331 37.813,18.331 L40.104,18.331 C42.000,18.331 43.542,16.789 43.542,14.894 C43.542,14.261 44.054,13.748 44.688,13.748 C45.321,13.748 45.833,14.261 45.833,14.894 C45.833,18.053 43.263,20.623 40.104,20.623 L37.813,20.623 C34.654,20.623 32.084,18.053 32.084,14.894 L32.084,5.728 C32.084,2.568 34.654,-0.002 37.813,-0.002 L40.105,-0.002 C43.263,-0.002 45.833,2.568 45.833,5.728 C45.833,6.361 45.321,6.873 44.688,6.873 Z" class="cls-2"/>
  </g>
</svg>
