<svg xmlns="http://www.w3.org/2000/svg" xmlns:xlink="http://www.w3.org/1999/xlink" preserveAspectRatio="xMidYMid" width="53" height="53" viewBox="0 0 53 53">
  <defs>
    <style>
      .cls-1 {
        fill: #eb702c;
      }

      .cls-1, .cls-2 {
        fill-rule: evenodd;
      }

      .cls-2 {
        fill: #c5c5c5;
      }
    </style>
  </defs>
  <g>
    <path d="M22.260,42.089 C22.260,39.175 21.102,36.434 19.000,34.374 C15.786,31.224 14.712,26.648 16.197,22.435 C16.297,22.150 16.251,21.836 16.072,21.590 C15.894,21.345 15.606,21.199 15.298,21.199 L15.202,21.199 C11.310,21.199 8.144,24.303 8.144,28.118 L8.144,34.105 C8.144,34.692 7.656,35.170 7.058,35.170 C6.459,35.170 5.972,34.692 5.972,34.105 C5.972,33.752 5.769,33.430 5.447,33.272 C5.125,33.114 4.739,33.148 4.451,33.360 C3.100,34.355 1.980,35.659 1.212,37.132 C0.408,38.676 -0.000,40.344 -0.000,42.089 C-0.000,48.053 4.907,52.914 10.972,52.998 C11.022,52.998 11.073,52.999 11.125,52.999 L11.130,52.999 C11.130,52.999 11.130,52.999 11.130,52.999 C11.183,52.999 11.236,52.998 11.289,52.998 C17.353,52.913 22.260,48.053 22.260,42.089 L22.260,42.089 ZM14.185,49.896 C13.369,50.695 12.284,51.136 11.130,51.136 L11.130,51.136 C9.976,51.136 8.891,50.695 8.075,49.895 C7.259,49.096 6.809,48.032 6.809,46.901 C6.809,45.770 7.259,44.707 8.075,43.906 L11.130,40.912 L14.185,43.906 C15.869,45.557 15.869,48.245 14.185,49.896 L14.185,49.896 ZM16.919,49.129 C17.792,46.940 17.329,44.353 15.529,42.589 L11.802,38.935 C11.624,38.761 11.382,38.663 11.130,38.663 C10.878,38.663 10.636,38.761 10.458,38.935 L6.731,42.589 C5.556,43.740 4.909,45.272 4.909,46.901 C4.909,47.674 5.055,48.424 5.333,49.123 C3.241,47.463 1.900,44.927 1.900,42.089 C1.900,39.664 2.859,37.406 4.570,35.722 C5.105,36.511 6.021,37.032 7.058,37.032 C8.705,37.032 10.044,35.719 10.044,34.105 L10.044,28.118 C10.044,25.736 11.733,23.734 13.998,23.202 C13.544,25.139 13.533,27.156 13.973,29.113 C14.534,31.604 15.807,33.879 17.656,35.692 C19.399,37.400 20.359,39.672 20.359,42.089 C20.359,44.930 19.016,47.469 16.919,49.129 L16.919,49.129 Z" class="cls-1"/>
    <path d="M48.343,31.276 C45.340,34.348 41.347,36.039 37.100,36.039 C32.853,36.039 28.860,34.348 25.857,31.276 C22.854,28.205 21.200,24.121 21.200,19.778 C21.200,15.435 22.854,11.351 25.857,8.280 C27.670,6.425 29.844,5.074 32.217,4.294 C32.575,1.866 34.628,-0.001 37.100,-0.001 C39.571,-0.001 41.625,1.866 41.982,4.294 C44.355,5.074 46.529,6.425 48.343,8.280 C51.346,11.351 53.000,15.435 53.000,19.778 C53.000,24.121 51.346,28.205 48.343,31.276 ZM37.100,2.111 C35.981,2.111 35.009,2.769 34.535,3.726 C35.376,3.587 36.232,3.517 37.100,3.517 C37.967,3.517 38.824,3.587 39.664,3.726 C39.190,2.769 38.219,2.111 37.100,2.111 ZM37.100,5.629 C29.471,5.629 23.265,11.976 23.265,19.778 C23.265,27.580 29.471,33.927 37.100,33.927 C44.728,33.927 50.935,27.580 50.935,19.778 C50.935,11.976 44.728,5.629 37.100,5.629 ZM44.860,20.834 L37.327,20.834 C36.660,20.834 36.117,20.279 36.117,19.596 L36.117,11.899 C36.117,11.316 36.579,10.843 37.149,10.843 C37.719,10.843 38.182,11.316 38.182,11.899 L38.182,18.722 L44.860,18.722 C45.431,18.722 45.893,19.195 45.893,19.778 C45.893,20.361 45.431,20.834 44.860,20.834 ZM41.769,16.192 C41.567,16.398 41.303,16.501 41.039,16.501 C40.775,16.501 40.511,16.398 40.309,16.192 C39.906,15.779 39.906,15.111 40.309,14.698 L41.842,13.130 C42.245,12.719 42.899,12.719 43.302,13.130 C43.705,13.543 43.705,14.212 43.302,14.624 L41.769,16.192 ZM37.100,24.414 C37.670,24.414 38.132,24.887 38.132,25.470 L38.132,27.687 C38.132,28.270 37.670,28.743 37.100,28.743 C36.529,28.743 36.067,28.270 36.067,27.687 L36.067,25.470 C36.067,24.887 36.529,24.414 37.100,24.414 ZM32.358,25.817 C32.156,26.023 31.892,26.126 31.627,26.126 C31.363,26.126 31.099,26.023 30.897,25.817 C30.494,25.405 30.494,24.736 30.897,24.324 L32.431,22.756 C32.834,22.343 33.488,22.343 33.891,22.756 C34.294,23.168 34.294,23.837 33.891,24.249 L32.358,25.817 ZM33.161,16.493 C32.897,16.493 32.632,16.389 32.431,16.183 L30.897,14.615 C30.494,14.203 30.494,13.534 30.897,13.122 C31.301,12.710 31.954,12.710 32.358,13.122 L33.891,14.690 C34.294,15.102 34.294,15.771 33.891,16.183 C33.689,16.389 33.425,16.493 33.161,16.493 ZM32.556,19.778 C32.556,20.361 32.093,20.834 31.523,20.834 L29.355,20.834 C28.785,20.834 28.322,20.361 28.322,19.778 C28.322,19.195 28.785,18.722 29.355,18.722 L31.523,18.722 C32.093,18.722 32.556,19.195 32.556,19.778 ZM41.769,22.748 L43.302,24.315 C43.705,24.728 43.705,25.396 43.302,25.808 C43.100,26.015 42.836,26.118 42.572,26.118 C42.308,26.118 42.044,26.015 41.842,25.808 L40.309,24.241 C39.906,23.828 39.906,23.160 40.309,22.748 C40.712,22.335 41.366,22.335 41.769,22.748 Z" class="cls-2"/>
  </g>
</svg>
