<svg xmlns="http://www.w3.org/2000/svg" xmlns:xlink="http://www.w3.org/1999/xlink" preserveAspectRatio="xMidYMid" width="55.031" height="50" viewBox="0 0 55.031 50">
  <defs>
    <style>
      .cls-1 {
        fill: #eb702c;
      }

      .cls-1, .cls-2 {
        fill-rule: evenodd;
      }

      .cls-2 {
        fill: #c5c5c5;
      }
    </style>
  </defs>
  <g>
    <path d="M47.557,49.988 L47.557,47.948 L49.332,47.948 L49.332,49.988 L47.557,49.988 ZM47.557,43.867 L49.332,43.867 L49.332,45.907 L47.557,45.907 L47.557,43.867 ZM47.557,39.786 L49.332,39.786 L49.332,41.827 L47.557,41.827 L47.557,39.786 ZM44.007,47.948 L45.782,47.948 L45.782,49.988 L44.007,49.988 L44.007,47.948 ZM44.007,43.867 L45.782,43.867 L45.782,45.907 L44.007,45.907 L44.007,43.867 ZM39.569,39.786 L41.344,39.786 L41.344,41.827 L39.569,41.827 L39.569,39.786 ZM34.909,43.867 L36.684,43.867 L36.684,45.907 L34.909,45.907 L34.909,43.867 ZM31.580,47.948 L33.356,47.948 L33.356,49.988 L31.580,49.988 L31.580,47.948 ZM31.580,39.786 L33.356,39.786 L33.356,41.827 L31.580,41.827 L31.580,39.786 ZM28.030,47.948 L29.805,47.948 L29.805,49.988 L28.030,49.988 L28.030,47.948 ZM28.030,43.867 L29.805,43.867 L29.805,45.907 L28.030,45.907 L28.030,43.867 ZM28.030,39.786 L29.805,39.786 L29.805,41.827 L28.030,41.827 L28.030,39.786 ZM23.074,35.705 L24.849,35.705 L24.849,37.745 L23.074,37.745 L23.074,35.705 ZM19.523,47.947 L21.298,47.947 L21.298,49.987 L19.523,49.987 L19.523,47.947 ZM19.523,39.786 L21.298,39.786 L21.298,41.827 L19.523,41.827 L19.523,39.786 ZM19.523,2.040 L21.298,2.040 L21.298,4.080 L19.523,4.080 L19.523,2.040 ZM19.523,8.161 L17.748,8.161 L17.748,6.120 L19.523,6.120 L19.523,8.161 ZM15.973,2.040 L17.748,2.040 L17.748,4.080 L15.973,4.080 L15.973,2.040 ZM15.973,8.161 L14.197,8.161 L14.197,6.120 L15.973,6.120 L15.973,8.161 ZM12.423,2.040 L14.197,2.040 L14.197,4.080 L12.423,4.080 L12.423,2.040 ZM12.423,8.161 L10.647,8.161 L10.647,6.120 L12.423,6.120 L12.423,8.161 ZM8.872,2.040 L10.647,2.040 L10.647,4.080 L8.872,4.080 L8.872,2.040 ZM8.872,8.161 L7.097,8.161 L7.097,6.120 L8.872,6.120 L8.872,8.161 ZM5.321,2.040 L7.097,2.040 L7.097,4.080 L5.321,4.080 L5.321,2.040 ZM5.321,8.161 L3.546,8.161 L3.546,6.120 L5.321,6.120 L5.321,8.161 ZM3.546,49.987 L1.771,49.987 L1.771,47.947 L3.546,47.947 L3.546,49.987 ZM3.546,43.867 L5.321,43.867 L5.321,45.907 L3.546,45.907 L3.546,43.867 ZM7.097,49.987 L5.321,49.987 L5.321,47.947 L7.097,47.947 L7.097,49.987 ZM7.097,43.867 L8.872,43.867 L8.872,45.907 L7.097,45.907 L7.097,43.867 ZM10.647,12.242 L8.872,12.242 L8.872,10.201 L10.647,10.201 L10.647,12.242 ZM8.872,16.322 L7.097,16.322 L7.097,14.282 L8.872,14.282 L8.872,16.322 ZM7.097,41.827 L5.321,41.827 L5.321,39.786 L7.097,39.786 L7.097,41.827 ZM5.321,16.322 L3.546,16.322 L3.546,14.282 L5.321,14.282 L5.321,16.322 ZM7.097,12.242 L5.321,12.242 L5.321,10.201 L7.097,10.201 L7.097,12.242 ZM10.647,49.987 L8.872,49.987 L8.872,47.947 L10.647,47.947 L10.647,49.987 ZM10.647,43.867 L12.423,43.867 L12.423,45.907 L10.647,45.907 L10.647,43.867 ZM14.197,41.827 L12.423,41.827 L12.423,39.786 L14.197,39.786 L14.197,41.827 ZM12.423,16.322 L10.647,16.322 L10.647,14.282 L12.423,14.282 L12.423,16.322 ZM14.197,12.242 L12.423,12.242 L12.423,10.201 L14.197,10.201 L14.197,12.242 ZM14.197,49.987 L12.423,49.987 L12.423,47.947 L14.197,47.947 L14.197,49.987 ZM14.197,43.867 L15.973,43.867 L15.973,45.907 L14.197,45.907 L14.197,43.867 ZM15.973,39.786 L17.748,39.786 L17.748,41.827 L15.973,41.827 L15.973,39.786 ZM19.523,45.907 L17.748,45.907 L17.748,43.867 L19.523,43.867 L19.523,45.907 Z" class="cls-1"/>
    <path d="M55.024,15.600 C54.889,19.373 51.995,22.443 48.574,22.443 C48.217,22.443 47.927,22.777 47.927,23.187 L47.927,28.308 L46.152,28.308 L46.152,23.187 C46.152,21.651 47.238,20.402 48.574,20.402 C51.055,20.402 53.154,18.211 53.249,15.517 C53.342,12.916 51.725,10.660 49.488,10.267 L48.611,10.113 L48.744,9.104 C48.793,8.743 48.815,8.443 48.815,8.161 C48.815,4.785 46.426,2.040 43.489,2.040 C41.899,2.040 40.409,2.860 39.402,4.249 C39.744,5.135 39.939,6.111 39.939,7.141 L38.164,7.141 C38.164,4.328 36.172,2.040 33.725,2.040 C31.815,2.040 30.131,3.474 29.526,5.493 C31.965,6.458 33.725,9.115 33.725,12.242 L31.950,12.242 C31.950,9.429 29.959,7.141 27.512,7.141 C25.331,7.141 23.446,9.011 23.127,11.494 L22.988,12.574 L22.060,12.342 C21.791,12.275 21.541,12.242 21.298,12.242 C20.300,12.242 19.343,12.729 18.671,13.578 C17.990,14.438 17.669,15.557 17.765,16.726 C17.936,18.787 19.572,20.402 21.489,20.402 L30.175,20.402 L30.175,22.443 L21.489,22.443 C18.912,22.443 16.683,20.418 16.118,17.709 C14.909,18.256 13.969,19.377 13.551,20.797 C15.989,21.761 17.748,24.418 17.748,27.544 L15.973,27.544 C15.973,24.732 13.982,22.443 11.535,22.443 C9.354,22.443 7.469,24.314 7.150,26.796 L7.011,27.877 L6.083,27.644 C5.814,27.577 5.564,27.544 5.321,27.544 C4.323,27.544 3.366,28.032 2.693,28.880 C2.012,29.741 1.691,30.860 1.788,32.029 C1.959,34.091 3.595,35.705 5.512,35.705 L21.298,35.705 L21.298,37.745 L5.512,37.745 C2.690,37.745 0.277,35.320 0.021,32.223 C-0.121,30.499 0.373,28.782 1.380,27.508 C2.447,26.159 3.987,25.417 5.585,25.511 C6.356,22.539 8.777,20.402 11.535,20.402 C11.624,20.402 11.709,20.414 11.797,20.419 C12.393,18.088 13.977,16.280 16.013,15.603 C16.144,14.345 16.608,13.152 17.357,12.206 C18.424,10.857 19.965,10.109 21.562,10.209 C22.333,7.237 24.754,5.100 27.512,5.100 C27.600,5.100 27.686,5.112 27.773,5.116 C28.544,2.142 30.965,-0.000 33.725,-0.000 C35.597,-0.000 37.276,0.960 38.416,2.471 C39.741,0.912 41.559,-0.000 43.489,-0.000 C47.404,-0.000 50.590,3.660 50.590,8.161 C50.590,8.261 50.588,8.360 50.585,8.461 C53.279,9.375 55.142,12.289 55.024,15.600 ZM33.725,22.443 L31.950,22.443 L31.950,20.402 L33.725,20.402 L33.725,22.443 ZM35.501,20.402 L37.276,20.402 L37.276,22.443 L35.501,22.443 L35.501,20.402 ZM35.501,28.308 L33.725,28.308 L33.725,24.484 L35.501,24.484 L35.501,28.308 ZM44.377,23.463 L44.377,28.308 L42.601,28.308 L42.601,23.463 C42.601,22.901 42.203,22.443 41.714,22.443 L39.051,22.443 L39.051,20.402 L41.714,20.402 C43.182,20.402 44.377,21.776 44.377,23.463 Z" class="cls-2"/>
  </g>
</svg>
