<svg xmlns="http://www.w3.org/2000/svg" xmlns:xlink="http://www.w3.org/1999/xlink" preserveAspectRatio="xMidYMid" width="51" height="51.03" viewBox="0 0 51 51.03">
  <defs>
    <style>
      .cls-1 {
        fill: #a4a4a4;
      }

      .cls-1, .cls-2 {
        fill-rule: evenodd;
      }

      .cls-2 {
        fill: #eb702c;
      }
    </style>
  </defs>
  <g>
    <path d="M46.429,7.312 C44.473,5.430 42.784,3.804 42.784,1.036 C42.784,0.655 42.588,0.304 42.270,0.121 C41.953,-0.063 41.566,-0.050 41.260,0.154 C41.215,0.184 41.162,0.219 41.103,0.259 C40.117,0.911 37.497,2.645 35.077,5.265 C31.945,8.657 30.357,12.209 30.357,15.823 C30.357,21.706 34.792,26.515 40.315,26.718 C40.403,26.723 40.491,26.725 40.579,26.725 C40.596,26.725 40.612,26.725 40.629,26.724 C40.646,26.725 40.662,26.725 40.678,26.725 C43.232,26.725 45.685,25.735 47.585,23.936 C47.992,23.550 48.026,22.890 47.659,22.461 C47.292,22.032 46.665,21.997 46.257,22.383 C45.937,22.687 45.596,22.962 45.240,23.207 C45.403,22.695 45.492,22.148 45.492,21.579 C45.492,19.589 44.366,18.465 43.372,17.473 C42.437,16.540 41.699,15.803 41.699,14.403 C41.699,13.996 41.474,13.626 41.123,13.455 C40.772,13.284 40.359,13.343 40.064,13.607 C39.884,13.767 35.667,17.580 35.667,21.579 C35.667,22.076 35.734,22.557 35.861,23.012 C33.733,21.414 32.342,18.787 32.342,15.823 C32.342,11.413 35.401,6.835 40.991,2.831 C41.208,3.813 41.612,4.744 42.209,5.643 C43.013,6.855 44.068,7.871 45.088,8.853 C47.098,10.788 48.996,12.616 49.015,15.829 C49.020,16.659 48.915,17.480 48.702,18.269 C48.552,18.824 48.858,19.401 49.385,19.558 C49.913,19.716 50.462,19.394 50.611,18.839 C50.875,17.860 51.006,16.843 51.000,15.817 C50.975,11.691 48.560,9.365 46.429,7.312 L46.429,7.312 ZM37.652,21.579 C37.652,19.807 38.977,17.821 40.120,16.481 C40.578,17.563 41.344,18.328 42.006,18.989 C42.965,19.945 43.507,20.537 43.507,21.579 C43.507,23.253 42.212,24.617 40.613,24.636 C40.568,24.636 40.522,24.635 40.478,24.634 C40.468,24.634 40.460,24.634 40.450,24.633 C40.441,24.633 40.431,24.632 40.421,24.632 C38.880,24.546 37.652,23.210 37.652,21.579 L37.652,21.579 Z" class="cls-1"/>
    <path d="M25.500,38.521 C25.500,35.180 24.174,32.039 21.766,29.677 C18.084,26.065 16.854,20.821 18.554,15.990 C18.669,15.664 18.616,15.303 18.412,15.021 C18.207,14.741 17.877,14.573 17.525,14.573 L17.414,14.573 C12.956,14.573 9.329,18.131 9.329,22.505 L9.329,29.369 C9.329,30.042 8.771,30.589 8.085,30.589 C7.400,30.589 6.842,30.042 6.842,29.369 C6.842,28.964 6.609,28.595 6.240,28.414 C5.871,28.233 5.429,28.272 5.099,28.515 C3.551,29.655 2.268,31.151 1.389,32.838 C0.467,34.609 -0.000,36.520 -0.000,38.522 C-0.000,45.359 5.621,50.931 12.569,51.027 C12.627,51.029 12.685,51.029 12.744,51.029 L12.750,51.029 C12.750,51.029 12.750,51.029 12.750,51.029 C12.811,51.029 12.872,51.029 12.932,51.027 C19.879,50.931 25.500,45.358 25.500,38.521 L25.500,38.521 ZM16.249,47.472 C15.315,48.388 14.072,48.893 12.750,48.893 L12.750,48.893 C11.428,48.893 10.185,48.388 9.250,47.471 C8.315,46.554 7.801,45.335 7.801,44.038 C7.801,42.741 8.315,41.522 9.250,40.605 L12.750,37.172 L16.249,40.605 C18.179,42.498 18.179,45.578 16.249,47.472 L16.249,47.472 ZM19.382,46.592 C20.382,44.083 19.852,41.118 17.789,39.095 L13.520,34.906 C13.316,34.706 13.039,34.594 12.750,34.594 C12.461,34.594 12.184,34.706 11.980,34.906 L7.711,39.095 C6.365,40.415 5.623,42.171 5.623,44.038 C5.623,44.924 5.790,45.785 6.110,46.586 C3.713,44.683 2.177,41.775 2.177,38.521 C2.177,35.741 3.276,33.153 5.235,31.222 C5.848,32.127 6.897,32.725 8.085,32.725 C9.971,32.725 11.506,31.219 11.506,29.369 L11.506,22.505 C11.506,19.775 13.440,17.480 16.035,16.869 C15.515,19.090 15.502,21.403 16.007,23.646 C16.649,26.502 18.108,29.110 20.226,31.187 C22.223,33.146 23.323,35.751 23.323,38.522 C23.323,41.779 21.784,44.690 19.382,46.592 L19.382,46.592 Z" class="cls-2"/>
  </g>
</svg>
