<svg xmlns="http://www.w3.org/2000/svg" xmlns:xlink="http://www.w3.org/1999/xlink" preserveAspectRatio="xMidYMid" width="6" height="3" viewBox="0 0 6 3">
  <defs>
    <style>

      .cls-2 {
        fill: #ffffff;
      }
    </style>
  </defs>
  <path d="M4.823,0.920 C4.823,0.920 2.922,2.822 2.922,2.822 C2.802,2.942 2.641,2.988 2.484,2.974 C2.327,2.988 2.167,2.942 2.046,2.822 C2.046,2.822 0.145,0.920 0.145,0.920 C-0.070,0.705 -0.070,0.355 0.145,0.140 C0.361,-0.075 0.710,-0.075 0.925,0.140 C0.925,0.140 2.484,1.699 2.484,1.699 C2.484,1.699 4.043,0.140 4.043,0.140 C4.259,-0.075 4.608,-0.075 4.823,0.140 C5.039,0.355 5.039,0.705 4.823,0.920 Z" id="path-1" class="cls-2" fill-rule="evenodd"/>
</svg>
