<svg xmlns="http://www.w3.org/2000/svg" xmlns:xlink="http://www.w3.org/1999/xlink" preserveAspectRatio="xMidYMid" width="14" height="15" viewBox="0 0 14 15">
  <defs>
    <style>
      .cls-1 {
        fill: #eb702c;
        fill-rule: evenodd;
      }
    </style>
  </defs>
  <path d="M13.981,3.409 C13.882,2.494 13.423,1.672 12.689,1.096 L12.266,0.764 C11.639,0.271 10.849,-0.001 10.041,-0.001 C8.964,-0.001 7.960,0.464 7.285,1.274 L0.789,9.067 C0.194,9.781 -0.079,10.678 0.020,11.591 C0.119,12.504 0.579,13.326 1.314,13.903 L1.737,14.235 C2.364,14.728 3.154,15.000 3.961,15.000 C4.086,15.000 4.212,14.993 4.336,14.980 C5.271,14.885 6.113,14.444 6.704,13.741 C6.706,13.739 6.707,13.737 11.087,8.484 C11.867,7.548 11.717,6.170 10.753,5.413 L10.532,5.239 C10.133,4.926 9.632,4.754 9.119,4.754 C8.435,4.754 7.797,5.049 7.369,5.563 L2.995,10.811 C2.709,11.154 2.764,11.659 3.117,11.936 C3.263,12.051 3.447,12.114 3.635,12.114 C3.885,12.114 4.119,12.006 4.276,11.818 L8.650,6.570 C8.765,6.432 8.935,6.354 9.118,6.354 C9.257,6.354 9.387,6.399 9.495,6.483 L9.716,6.657 C9.841,6.755 9.918,6.894 9.935,7.049 C9.952,7.205 9.906,7.357 9.805,7.477 L5.436,12.719 C5.075,13.152 4.538,13.400 3.963,13.400 C3.531,13.400 3.109,13.255 2.774,12.991 L2.351,12.660 C1.958,12.351 1.712,11.912 1.659,11.423 C1.606,10.935 1.752,10.456 2.070,10.074 L8.566,2.280 C8.927,1.848 9.464,1.599 10.040,1.599 C10.472,1.599 10.894,1.744 11.229,2.008 L11.652,2.340 C12.463,2.977 12.589,4.137 11.933,4.925 C11.794,5.091 11.730,5.300 11.754,5.512 C11.777,5.725 11.884,5.916 12.055,6.051 C12.201,6.166 12.385,6.229 12.573,6.229 C12.823,6.229 13.057,6.121 13.214,5.932 C13.808,5.219 14.081,4.323 13.981,3.409 L13.981,3.409 Z" class="cls-1"/>
</svg>
