<svg xmlns="http://www.w3.org/2000/svg" xmlns:xlink="http://www.w3.org/1999/xlink" preserveAspectRatio="xMidYMid" width="20" height="12" viewBox="0 0 20 12">
  <defs>
    <style>
      .cls-1 {
        fill: #fff;
        fill-rule: evenodd;
      }
    </style>
  </defs>
  <path d="M19.000,7.000 L1.000,7.000 C0.448,7.000 -0.000,6.552 -0.000,6.000 C-0.000,5.447 0.448,5.000 1.000,5.000 L19.000,5.000 C19.552,5.000 20.000,5.447 20.000,6.000 C20.000,6.552 19.552,7.000 19.000,7.000 ZM15.000,2.000 L1.000,2.000 C0.448,2.000 -0.000,1.552 -0.000,1.000 C-0.000,0.448 0.448,-0.000 1.000,-0.000 L15.000,-0.000 C15.552,-0.000 16.000,0.448 16.000,1.000 C16.000,1.552 15.552,2.000 15.000,2.000 ZM1.000,10.000 L15.000,10.000 C15.552,10.000 16.000,10.448 16.000,11.000 C16.000,11.552 15.552,12.000 15.000,12.000 L1.000,12.000 C0.448,12.000 -0.000,11.552 -0.000,11.000 C-0.000,10.448 0.448,10.000 1.000,10.000 Z" class="cls-1"/>
</svg>
