<svg xmlns="http://www.w3.org/2000/svg" xmlns:xlink="http://www.w3.org/1999/xlink" preserveAspectRatio="xMidYMid" width="50" height="52" viewBox="0 0 50 52">
  <defs>
    <style>
      .cls-1 {
        fill: #eb702c;
      }

      .cls-1, .cls-2 {
        fill-rule: evenodd;
      }

      .cls-2 {
        fill: #fff;
      }
    </style>
  </defs>
  <g>
    <path d="M26.723,23.413 C26.979,23.660 27.323,23.789 27.667,23.789 C28.011,23.789 28.344,23.660 28.610,23.413 L36.813,15.489 C37.335,14.985 37.335,14.170 36.813,13.666 C36.291,13.162 35.448,13.162 34.926,13.666 L27.667,20.690 L24.736,17.859 C24.215,17.355 23.371,17.355 22.849,17.859 C22.328,18.363 22.328,19.178 22.849,19.682 L26.723,23.413 Z" class="cls-1"/>
    <path d="M14.180,34.136 L44.028,34.136 C47.325,34.136 50.000,31.541 50.000,28.367 L50.000,16.218 C50.000,15.511 49.400,14.932 48.668,14.932 C47.935,14.932 47.336,15.511 47.336,16.218 L47.336,28.356 C47.336,30.126 45.849,31.552 44.028,31.552 L14.180,31.552 C12.349,31.552 10.873,30.115 10.873,28.356 L10.873,21.204 L10.873,13.205 L10.873,12.165 L10.873,4.638 C10.873,4.595 10.873,4.541 10.861,4.498 C10.861,4.488 10.861,4.477 10.861,4.466 C10.861,4.434 10.850,4.402 10.850,4.381 C10.850,4.359 10.839,4.327 10.828,4.305 C10.828,4.295 10.817,4.273 10.817,4.263 C10.806,4.230 10.795,4.209 10.784,4.177 C10.784,4.166 10.773,4.155 10.773,4.145 C10.762,4.123 10.750,4.091 10.739,4.070 C10.728,4.059 10.728,4.037 10.717,4.027 C10.706,4.005 10.695,3.984 10.684,3.962 C10.673,3.941 10.662,3.930 10.651,3.909 C10.639,3.898 10.628,3.877 10.617,3.866 C10.606,3.844 10.584,3.823 10.573,3.812 C10.562,3.801 10.551,3.791 10.540,3.780 C10.517,3.759 10.506,3.737 10.484,3.716 C10.473,3.705 10.462,3.694 10.451,3.694 C10.429,3.673 10.406,3.651 10.384,3.641 C10.373,3.630 10.362,3.619 10.351,3.608 C10.329,3.598 10.306,3.576 10.284,3.566 C10.262,3.544 10.229,3.533 10.207,3.512 C10.196,3.512 10.184,3.501 10.184,3.490 C10.140,3.469 10.096,3.448 10.051,3.426 L1.848,0.102 C1.171,-0.177 0.394,0.134 0.106,0.788 C-0.183,1.432 0.139,2.193 0.816,2.472 L8.198,5.485 L8.198,12.165 L8.198,13.205 L8.198,21.204 L8.198,28.356 L8.198,37.396 C8.198,40.419 10.606,42.896 13.670,43.143 C13.048,44.044 12.682,45.127 12.682,46.295 C12.682,49.437 15.335,52.000 18.587,52.000 C21.839,52.000 24.492,49.437 24.492,46.295 C24.492,45.137 24.137,44.065 23.527,43.164 L37.657,43.164 C37.046,44.065 36.691,45.137 36.691,46.295 C36.691,49.437 39.344,52.000 42.596,52.000 C45.849,52.000 48.501,49.437 48.501,46.295 C48.501,43.154 45.849,40.591 42.596,40.591 L14.180,40.591 C12.349,40.591 10.873,39.154 10.873,37.396 L10.873,33.160 C11.816,33.771 12.959,34.136 14.180,34.136 ZM21.828,46.295 C21.828,48.022 20.374,49.427 18.587,49.427 C16.800,49.427 15.346,48.022 15.346,46.295 C15.346,44.569 16.800,43.164 18.587,43.164 C20.374,43.164 21.828,44.569 21.828,46.295 ZM45.826,46.295 C45.826,48.022 44.372,49.427 42.585,49.427 C40.798,49.427 39.344,48.022 39.344,46.295 C39.344,44.569 40.798,43.164 42.585,43.164 C44.372,43.164 45.826,44.569 45.826,46.295 Z" class="cls-2"/>
  </g>
</svg>
