<svg xmlns="http://www.w3.org/2000/svg" xmlns:xlink="http://www.w3.org/1999/xlink" preserveAspectRatio="xMidYMid" width="42" height="42" viewBox="0 0 42 42">
  <defs>
    <style>

      .cls-3 {
        fill: #ffffff;
      }

      .cls-4 {
        fill: #fc793f;
      }
    </style>
  </defs>
  <g id="ик-5">
    <path d="M33.912,29.325 C33.912,29.325 21.970,35.941 21.970,35.941 C21.666,36.109 21.333,36.194 20.999,36.194 C20.666,36.194 20.332,36.109 20.028,35.941 C20.028,35.941 8.086,29.325 8.086,29.325 C7.448,28.972 7.053,28.301 7.053,27.573 C7.053,27.573 7.053,14.425 7.053,14.425 C7.053,13.697 7.448,13.026 8.086,12.673 C8.086,12.673 20.028,6.057 20.028,6.057 C20.635,5.721 21.362,5.721 21.968,6.057 C21.968,6.057 33.912,12.673 33.912,12.673 C34.549,13.026 34.944,13.697 34.944,14.425 C34.944,14.425 34.944,27.573 34.944,27.573 C34.944,28.301 34.549,28.972 33.912,29.325 ZM8.694,27.573 C8.694,27.705 8.766,27.826 8.882,27.890 C8.882,27.890 20.178,34.149 20.178,34.149 C20.178,34.149 20.178,21.654 20.178,21.654 C20.178,21.654 14.028,18.157 14.028,18.157 C14.027,18.157 14.026,18.156 14.023,18.156 C14.023,18.156 8.694,15.126 8.694,15.126 C8.694,15.126 8.694,27.573 8.694,27.573 ZM21.174,7.492 C21.065,7.431 20.933,7.431 20.823,7.492 C20.823,7.492 9.562,13.731 9.562,13.731 C9.562,13.731 14.441,16.506 14.441,16.506 C14.441,16.506 25.943,10.134 25.943,10.134 C25.943,10.134 21.174,7.492 21.174,7.492 ZM27.635,11.072 C27.635,11.072 16.113,17.455 16.113,17.455 C16.113,17.455 21.004,20.236 21.004,20.236 C21.004,20.236 32.591,13.817 32.591,13.817 C32.591,13.817 27.635,11.072 27.635,11.072 ZM33.303,15.298 C33.303,15.298 21.819,21.660 21.819,21.660 C21.819,21.660 21.819,34.149 21.819,34.149 C21.819,34.149 33.116,27.890 33.116,27.890 C33.232,27.826 33.303,27.705 33.303,27.573 C33.303,27.573 33.303,15.298 33.303,15.298 ZM15.666,21.593 C15.666,21.593 15.666,25.060 15.666,25.060 C15.666,25.350 15.513,25.619 15.263,25.766 C15.135,25.843 14.990,25.880 14.846,25.880 C14.710,25.880 14.574,25.846 14.449,25.779 C14.449,25.779 10.103,23.385 10.103,23.385 C9.842,23.240 9.678,22.966 9.678,22.666 C9.678,22.666 9.678,19.199 9.678,19.199 C9.678,18.909 9.832,18.641 10.081,18.494 C10.331,18.346 10.641,18.341 10.895,18.481 C10.895,18.481 15.241,20.874 15.241,20.874 C15.502,21.019 15.666,21.294 15.666,21.593 ZM14.024,22.077 C14.024,22.077 11.320,20.587 11.320,20.587 C11.320,20.587 11.320,22.182 11.320,22.182 C11.320,22.182 14.024,23.672 14.024,23.672 C14.024,23.672 14.024,22.077 14.024,22.077 ZM16.490,28.350 C16.490,28.350 18.663,29.546 18.663,29.546 C19.060,29.765 19.205,30.263 18.986,30.660 C18.836,30.932 18.556,31.085 18.267,31.085 C18.133,31.085 17.996,31.053 17.872,30.982 C17.872,30.982 15.699,29.786 15.699,29.786 C15.302,29.567 15.158,29.069 15.375,28.672 C15.594,28.275 16.092,28.130 16.490,28.350 Z" id="path-1" class="cls-3" fill-rule="evenodd"/>
    <path d="M38.166,8.903 C40.937,12.826 42.278,17.607 41.949,22.432 C41.606,27.492 39.439,32.256 35.848,35.846 C32.813,38.880 28.987,40.888 24.783,41.654 C23.519,41.885 22.247,41.999 20.981,41.999 C18.132,41.999 15.312,41.420 12.668,40.279 C12.252,40.100 12.060,39.617 12.240,39.201 C12.419,38.785 12.902,38.593 13.318,38.773 C20.651,41.938 29.039,40.334 34.687,34.686 C41.255,28.119 42.185,17.678 36.988,10.082 C36.988,10.082 35.605,11.463 35.605,11.463 C35.449,11.620 35.239,11.704 35.025,11.704 C34.920,11.704 34.814,11.683 34.711,11.641 C34.405,11.514 34.205,11.216 34.205,10.883 C34.205,10.883 34.205,6.810 34.205,6.810 C34.205,6.356 34.573,5.990 35.025,5.990 C35.025,5.990 39.100,5.990 39.100,5.990 C39.431,5.990 39.731,6.189 39.857,6.496 C39.985,6.803 39.915,7.155 39.680,7.390 C39.680,7.390 38.166,8.903 38.166,8.903 ZM35.846,7.630 C35.846,7.630 35.846,8.903 35.846,8.903 C35.846,8.903 37.120,7.630 37.120,7.630 C37.120,7.630 35.846,7.630 35.846,7.630 ZM28.638,3.207 C21.315,0.067 12.944,1.679 7.309,7.312 C0.742,13.879 -0.187,24.320 5.009,31.916 C5.009,31.916 6.391,30.535 6.391,30.535 C6.626,30.301 6.979,30.230 7.285,30.357 C7.592,30.484 7.792,30.783 7.792,31.115 C7.792,31.115 7.792,35.188 7.792,35.188 C7.792,35.641 7.424,36.009 6.972,36.009 C6.972,36.009 2.897,36.009 2.897,36.009 C2.565,36.009 2.266,35.809 2.139,35.502 C2.013,35.196 2.082,34.843 2.318,34.608 C2.318,34.608 3.830,33.095 3.830,33.095 C1.061,29.173 -0.280,24.391 0.047,19.566 C0.391,14.506 2.559,9.743 6.150,6.152 C9.177,3.125 12.994,1.118 17.190,0.349 C21.287,-0.403 25.469,0.064 29.284,1.699 C29.699,1.879 29.893,2.360 29.714,2.777 C29.535,3.193 29.053,3.385 28.638,3.207 ZM6.152,34.368 C6.152,34.368 6.152,33.095 6.152,33.095 C6.152,33.095 4.878,34.368 4.878,34.368 C4.878,34.368 6.152,34.368 6.152,34.368 Z" id="path-2" class="cls-4" fill-rule="evenodd"/>
  </g>
</svg>
