<svg xmlns="http://www.w3.org/2000/svg" xmlns:xlink="http://www.w3.org/1999/xlink" preserveAspectRatio="xMidYMid" width="38" height="44" viewBox="0 0 38 44">
  <defs>
    <style>

      .cls-3 {
        fill: #ffffff;
      }

      .cls-4 {
        fill: #fc793f;
      }
    </style>
  </defs>
  <g id="ик-1">
    <path d="M37.137,43.999 C37.137,43.999 0.861,43.999 0.861,43.999 C0.384,43.999 -0.001,43.613 -0.001,43.139 C-0.001,43.139 -0.001,34.870 -0.001,34.870 C-0.001,30.134 5.404,26.437 10.019,26.263 C10.019,26.263 12.395,24.132 12.395,24.132 C9.560,22.044 7.838,18.689 7.838,15.123 C7.838,15.123 7.838,9.451 7.838,9.451 C7.838,4.225 12.050,-0.001 17.285,-0.001 C17.285,-0.001 20.730,-0.001 20.730,-0.001 C25.972,-0.001 30.237,4.240 30.237,9.451 C30.237,9.451 30.237,15.123 30.237,15.123 C30.237,18.695 28.494,22.056 25.619,24.148 C25.619,24.148 27.979,26.263 27.979,26.263 C32.603,26.438 37.999,30.144 37.999,34.870 C37.999,34.870 37.999,43.139 37.999,43.139 C37.999,43.613 37.612,43.999 37.137,43.999 ZM11.399,27.335 C11.399,27.335 14.237,33.699 14.237,33.699 C14.237,33.699 17.766,31.938 17.766,31.938 C17.766,31.938 13.629,25.336 13.629,25.336 C13.629,25.336 11.399,27.335 11.399,27.335 ZM18.999,30.663 C18.999,30.663 21.987,25.892 21.987,25.892 C21.021,26.158 20.019,26.295 19.007,26.295 C17.987,26.295 16.977,26.156 16.005,25.886 C16.005,25.886 18.999,30.663 18.999,30.663 ZM28.514,9.451 C28.514,5.186 25.023,1.717 20.730,1.717 C20.730,1.717 17.285,1.717 17.285,1.717 C13.026,1.717 9.561,5.186 9.561,9.451 C9.561,9.451 9.561,10.088 9.561,10.088 C9.561,10.088 11.098,7.844 11.098,7.844 C11.242,7.631 11.476,7.495 11.732,7.472 C11.989,7.450 12.243,7.543 12.424,7.728 C14.176,9.515 16.205,10.311 18.999,10.311 C21.795,10.311 23.821,9.515 25.574,7.728 C25.752,7.544 26.004,7.450 26.261,7.472 C26.517,7.494 26.750,7.628 26.897,7.838 C26.897,7.838 28.514,10.162 28.514,10.162 C28.514,10.162 28.514,9.451 28.514,9.451 ZM28.514,15.123 C28.514,15.123 28.514,13.176 28.514,13.176 C28.514,13.176 26.049,9.634 26.049,9.634 C24.132,11.265 21.865,12.029 18.999,12.029 C16.137,12.029 13.871,11.266 11.954,9.640 C11.954,9.640 9.561,13.137 9.561,13.137 C9.561,13.137 9.561,15.123 9.561,15.123 C9.561,20.284 13.735,24.577 19.007,24.577 C24.298,24.577 28.514,20.270 28.514,15.123 ZM24.368,25.336 C24.368,25.336 20.232,31.938 20.232,31.938 C20.232,31.938 23.761,33.699 23.761,33.699 C23.761,33.699 26.599,27.335 26.599,27.335 C26.599,27.335 24.368,25.336 24.368,25.336 ZM36.276,34.870 C36.276,31.329 31.962,28.273 28.191,27.994 C28.191,27.994 24.968,35.219 24.968,35.219 C24.874,35.433 24.693,35.599 24.472,35.678 C24.252,35.757 24.008,35.744 23.796,35.638 C23.796,35.638 23.234,35.358 23.234,35.358 C23.234,35.358 21.010,34.248 21.010,34.248 C21.010,34.248 18.999,33.245 18.999,33.245 C18.999,33.245 17.225,34.130 17.225,34.130 C17.225,34.130 14.815,35.332 14.815,35.332 C14.815,35.332 14.202,35.638 14.202,35.638 C13.991,35.743 13.748,35.758 13.526,35.678 C13.305,35.599 13.125,35.433 13.029,35.219 C13.029,35.219 9.806,27.994 9.806,27.994 C6.036,28.272 1.722,31.329 1.722,34.870 C1.722,34.870 1.722,42.280 1.722,42.280 C1.722,42.280 12.286,42.280 12.286,42.280 C12.286,42.280 14.391,42.280 14.391,42.280 C14.391,42.280 16.161,42.280 16.161,42.280 C16.161,42.280 21.805,42.280 21.805,42.280 C21.805,42.280 23.573,42.280 23.573,42.280 C23.573,42.280 24.077,42.280 24.077,42.280 C24.077,42.280 36.276,42.280 36.276,42.280 C36.276,42.280 36.276,34.870 36.276,34.870 ZM26.753,38.327 C26.753,38.327 30.199,38.327 30.199,38.327 C30.674,38.327 31.060,38.711 31.060,39.186 C31.060,39.661 30.674,40.046 30.199,40.046 C30.199,40.046 26.753,40.046 26.753,40.046 C26.277,40.046 25.891,39.661 25.891,39.186 C25.891,38.711 26.277,38.327 26.753,38.327 ZM33.597,38.327 C34.073,38.327 34.459,38.712 34.459,39.186 C34.459,39.660 34.073,40.046 33.597,40.046 C33.121,40.046 32.735,39.660 32.735,39.186 C32.735,38.712 33.121,38.327 33.597,38.327 ZM16.696,21.374 C16.265,21.172 16.080,20.660 16.284,20.230 C16.487,19.801 17.001,19.617 17.431,19.820 C17.923,20.051 18.450,20.168 18.999,20.168 C19.535,20.168 20.053,20.055 20.538,19.833 C20.971,19.635 21.483,19.824 21.680,20.255 C21.879,20.686 21.689,21.197 21.257,21.395 C20.546,21.721 19.786,21.887 18.999,21.887 C18.195,21.887 17.419,21.714 16.696,21.374 ZM23.306,13.749 C23.783,13.749 24.168,14.134 24.168,14.608 C24.168,15.082 23.783,15.467 23.306,15.467 C22.831,15.467 22.446,15.082 22.446,14.608 C22.446,14.134 22.831,13.749 23.306,13.749 ZM14.691,15.467 C14.215,15.467 13.830,15.082 13.830,14.608 C13.830,14.134 14.215,13.749 14.691,13.749 C15.168,13.749 15.553,14.134 15.553,14.608 C15.553,15.082 15.168,15.467 14.691,15.467 Z" id="path-1" class="cls-3" fill-rule="evenodd"/>
    <path d="M22.477,37.518 C22.477,37.518 23.224,35.359 23.224,35.359 C23.224,35.359 21.194,34.344 21.194,34.344 C21.194,34.344 21.675,34.585 21.675,34.585 C21.675,34.585 20.975,36.610 20.975,36.610 C20.975,36.610 17.047,36.610 17.047,36.610 C17.047,36.610 16.387,34.556 16.387,34.556 C16.387,34.556 17.034,34.233 17.034,34.233 C17.034,34.233 14.834,35.334 14.834,35.334 C14.834,35.334 15.530,37.505 15.530,37.505 C15.530,37.505 14.412,42.281 14.412,42.281 C14.412,42.281 16.175,42.281 16.175,42.281 C16.175,42.281 17.101,38.329 17.101,38.329 C17.101,38.329 20.901,38.329 20.901,38.329 C20.901,38.329 21.801,42.281 21.801,42.281 C21.801,42.281 23.561,42.281 23.561,42.281 C23.561,42.281 22.477,37.518 22.477,37.518 Z" id="path-2" class="cls-4" fill-rule="evenodd"/>
  </g>
</svg>
