<svg xmlns="http://www.w3.org/2000/svg" xmlns:xlink="http://www.w3.org/1999/xlink" preserveAspectRatio="xMidYMid" width="34" height="44" viewBox="0 0 34 44">
  <defs>
    <style>

      .cls-3 {
        fill: #ffffff;
      }

      .cls-4 {
        fill: #fc793f;
      }
    </style>
  </defs>
  <g id="ик-3">
    <path d="M29.791,27.671 C30.012,27.671 30.230,27.763 30.385,27.923 C30.542,28.083 30.632,28.304 30.632,28.530 C30.632,28.756 30.542,28.978 30.385,29.138 C30.230,29.298 30.012,29.390 29.791,29.390 C29.569,29.390 29.352,29.298 29.196,29.138 C29.039,28.978 28.949,28.756 28.949,28.530 C28.949,28.304 29.039,28.083 29.196,27.923 C29.352,27.763 29.569,27.671 29.791,27.671 ZM28.949,16.757 C28.949,16.282 29.326,15.898 29.791,15.898 C30.255,15.898 30.632,16.282 30.632,16.757 C30.632,16.757 30.632,25.353 30.632,25.353 C30.632,25.829 30.255,26.213 29.791,26.213 C29.326,26.213 28.949,25.829 28.949,25.353 C28.949,25.353 28.949,16.757 28.949,16.757 ZM0.840,24.494 C1.061,24.494 1.279,24.586 1.435,24.746 C1.591,24.906 1.682,25.127 1.682,25.353 C1.682,25.579 1.591,25.801 1.435,25.961 C1.279,26.120 1.061,26.212 0.840,26.212 C0.619,26.212 0.402,26.120 0.245,25.961 C0.088,25.801 -0.001,25.580 -0.001,25.353 C-0.001,25.127 0.088,24.906 0.245,24.746 C0.402,24.586 0.619,24.494 0.840,24.494 ZM33.363,43.130 C33.362,43.130 33.362,43.131 33.361,43.131 C32.898,43.663 32.224,44.000 31.474,44.000 C31.474,44.000 2.523,44.000 2.523,44.000 C1.774,44.000 1.099,43.663 0.636,43.131 C0.636,43.131 0.635,43.130 0.634,43.130 C0.240,42.674 -0.001,42.076 -0.001,41.421 C-0.001,41.421 -0.001,28.530 -0.001,28.530 C-0.001,28.056 0.375,27.671 0.840,27.671 C1.304,27.671 1.682,28.056 1.682,28.530 C1.682,28.530 1.682,40.536 1.682,40.536 C1.682,40.536 3.278,38.336 3.278,38.336 C3.595,37.900 4.100,37.640 4.631,37.640 C4.631,37.640 29.367,37.640 29.367,37.640 C29.898,37.640 30.403,37.900 30.719,38.336 C30.719,38.336 32.315,40.536 32.315,40.536 C32.315,40.536 32.315,10.554 32.315,10.554 C31.315,11.550 29.948,12.165 28.444,12.165 C28.444,12.165 23.690,12.165 23.690,12.165 C23.690,12.165 23.690,10.446 23.690,10.446 C23.690,10.446 28.444,10.446 28.444,10.446 C30.579,10.446 32.315,8.673 32.315,6.493 C32.315,6.493 32.315,2.578 32.315,2.578 C32.315,2.103 31.937,1.718 31.474,1.718 C31.474,1.718 2.523,1.718 2.523,1.718 C2.060,1.718 1.682,2.103 1.682,2.578 C1.682,2.578 1.682,6.493 1.682,6.493 C1.682,8.673 3.418,10.446 5.553,10.446 C5.553,10.446 10.309,10.446 10.309,10.446 C10.309,10.446 10.309,12.165 10.309,12.165 C10.309,12.165 5.553,12.165 5.553,12.165 C4.049,12.165 2.683,11.550 1.682,10.555 C1.682,10.555 1.682,21.999 1.682,21.999 C1.682,22.474 1.304,22.859 0.840,22.859 C0.375,22.859 -0.001,22.474 -0.001,21.999 C-0.001,21.999 -0.001,6.493 -0.001,6.493 C-0.001,6.493 -0.001,2.578 -0.001,2.578 C-0.001,1.156 1.131,-0.001 2.523,-0.001 C2.523,-0.001 31.474,-0.001 31.474,-0.001 C32.866,-0.001 33.999,1.156 33.999,2.578 C33.999,2.578 33.999,6.493 33.999,6.493 C33.999,6.493 33.999,41.421 33.999,41.421 C33.999,42.076 33.758,42.674 33.363,43.130 ZM29.367,39.359 C29.367,39.359 4.631,39.359 4.631,39.359 C4.631,39.359 2.511,42.279 2.511,42.279 C2.516,42.279 2.520,42.281 2.523,42.281 C2.523,42.281 31.474,42.281 31.474,42.281 C31.479,42.281 31.482,42.279 31.486,42.279 C31.486,42.279 29.367,39.359 29.367,39.359 Z" id="path-1" class="cls-3" fill-rule="evenodd"/>
    <path d="M16.998,22.859 C14.678,22.859 12.791,20.931 12.791,18.562 C12.791,18.562 12.791,13.535 12.791,13.535 C12.791,13.535 12.791,12.165 12.791,12.165 C12.791,12.165 12.791,10.446 12.791,10.446 C12.791,10.446 12.791,8.293 12.791,8.293 C12.791,8.293 12.791,7.868 12.791,7.868 C12.791,5.499 14.678,3.571 16.998,3.571 C19.319,3.571 21.208,5.499 21.208,7.868 C21.208,7.868 21.208,8.894 21.208,8.894 C21.208,8.894 21.208,10.446 21.208,10.446 C21.208,10.446 21.208,12.165 21.208,12.165 C21.208,12.165 21.208,14.136 21.208,14.136 C21.208,14.136 21.208,18.562 21.208,18.562 C21.208,20.931 19.319,22.859 16.998,22.859 ZM16.998,5.290 C15.607,5.290 14.473,6.446 14.473,7.868 C14.473,9.290 15.607,10.446 16.998,10.446 C18.390,10.446 19.524,9.290 19.524,7.868 C19.524,6.446 18.390,5.290 16.998,5.290 ZM19.524,11.303 C18.820,11.844 17.946,12.165 16.998,12.165 C16.053,12.165 15.178,11.844 14.473,11.303 C14.473,11.303 14.473,15.126 14.473,15.126 C15.178,14.586 16.053,14.265 16.998,14.265 C17.946,14.265 18.820,14.586 19.524,15.126 C19.524,15.126 19.524,11.303 19.524,11.303 ZM16.998,15.984 C15.607,15.984 14.473,17.140 14.473,18.562 C14.473,19.983 15.607,21.140 16.998,21.140 C18.390,21.140 19.524,19.983 19.524,18.562 C19.524,17.140 18.390,15.984 16.998,15.984 ZM17.594,19.170 C17.437,19.329 17.219,19.421 16.998,19.421 C16.777,19.421 16.560,19.329 16.403,19.170 C16.247,19.010 16.157,18.788 16.157,18.562 C16.157,18.336 16.247,18.114 16.403,17.954 C16.560,17.794 16.777,17.702 16.998,17.702 C17.219,17.702 17.437,17.794 17.594,17.954 C17.751,18.113 17.840,18.336 17.840,18.562 C17.840,18.788 17.751,19.010 17.594,19.170 ZM17.594,8.475 C17.437,8.636 17.219,8.727 16.998,8.727 C16.777,8.727 16.560,8.636 16.403,8.475 C16.247,8.316 16.157,8.095 16.157,7.868 C16.157,7.642 16.247,7.420 16.403,7.260 C16.560,7.100 16.777,7.008 16.998,7.008 C17.219,7.008 17.437,7.100 17.594,7.260 C17.751,7.420 17.840,7.642 17.840,7.868 C17.840,8.094 17.751,8.316 17.594,8.475 Z" id="path-2" class="cls-4" fill-rule="evenodd"/>
  </g>
</svg>
