<svg xmlns="http://www.w3.org/2000/svg" xmlns:xlink="http://www.w3.org/1999/xlink" preserveAspectRatio="xMidYMid" width="42" height="45" viewBox="0 0 42 45">
  <defs>
    <style>

      .cls-3 {
        fill: #ffffff;
      }

      .cls-4 {
        fill: #fc793f;
      }
    </style>
  </defs>
  <g id="ик-5">
    <path d="M16.121,33.748 C16.121,33.748 16.122,33.748 16.122,33.748 C16.122,33.748 2.621,33.748 2.621,33.748 C2.140,33.748 1.747,33.354 1.747,32.869 C1.747,32.869 1.747,18.632 1.747,18.632 C1.747,18.632 5.987,18.632 5.987,18.632 C6.206,19.864 7.278,20.801 8.568,20.801 C9.855,20.801 10.928,19.864 11.149,18.632 C11.149,18.632 28.896,18.632 28.896,18.632 C29.116,19.864 30.188,20.801 31.477,20.801 C32.764,20.801 33.837,19.864 34.058,18.632 C34.058,18.632 38.471,18.632 38.471,18.632 C38.471,18.632 38.471,32.869 38.471,32.869 C38.989,32.863 39.599,32.854 40.220,32.843 C40.220,32.843 40.220,9.667 40.220,9.667 C40.220,8.213 39.042,7.030 37.597,7.030 C37.597,7.030 27.279,7.030 27.279,7.030 C27.279,7.030 27.279,2.256 27.279,2.256 C27.279,1.011 26.272,-0.000 25.034,-0.000 C25.034,-0.000 15.184,-0.000 15.184,-0.000 C13.946,-0.000 12.939,1.011 12.939,2.256 C12.939,2.256 12.939,7.030 12.939,7.030 C12.939,7.030 2.621,7.030 2.621,7.030 C1.175,7.030 -0.002,8.213 -0.002,9.667 C-0.002,9.667 -0.002,32.869 -0.002,32.869 C-0.002,34.323 1.175,35.506 2.621,35.506 C2.621,35.506 16.615,35.506 16.615,35.506 C16.615,35.506 16.121,33.748 16.121,33.748 ZM9.441,18.164 C9.441,18.649 9.049,19.043 8.568,19.043 C8.085,19.043 7.693,18.649 7.693,18.164 C7.693,18.164 7.693,15.820 7.693,15.820 C7.693,15.335 8.085,14.940 8.568,14.940 C9.049,14.940 9.441,15.335 9.441,15.820 C9.441,15.820 9.441,18.164 9.441,18.164 ZM32.351,18.164 C32.351,18.649 31.957,19.043 31.477,19.043 C30.993,19.043 30.602,18.649 30.602,18.164 C30.602,18.164 30.602,15.820 30.602,15.820 C30.602,15.335 30.993,14.940 31.477,14.940 C31.957,14.940 32.351,15.335 32.351,15.820 C32.351,15.820 32.351,18.164 32.351,18.164 ZM14.687,2.256 C14.687,1.980 14.911,1.758 15.184,1.758 C15.184,1.758 25.034,1.758 25.034,1.758 C25.307,1.758 25.530,1.980 25.530,2.256 C25.530,2.256 25.530,7.030 25.530,7.030 C25.530,7.030 14.687,7.030 14.687,7.030 C14.687,7.030 14.687,2.256 14.687,2.256 ZM1.747,9.667 C1.747,9.183 2.140,8.788 2.621,8.788 C2.621,8.788 37.597,8.788 37.597,8.788 C38.078,8.788 38.471,9.183 38.471,9.667 C38.471,9.667 38.471,16.874 38.471,16.874 C38.471,16.874 34.099,16.874 34.099,16.874 C34.099,16.874 34.099,15.820 34.099,15.820 C34.099,14.366 32.922,13.183 31.477,13.183 C30.029,13.183 28.853,14.366 28.853,15.820 C28.853,15.820 28.853,16.874 28.853,16.874 C28.853,16.874 11.190,16.874 11.190,16.874 C11.190,16.874 11.190,15.820 11.190,15.820 C11.190,14.366 10.014,13.183 8.568,13.183 C7.120,13.183 5.944,14.366 5.944,15.820 C5.944,15.820 5.944,16.874 5.944,16.874 C5.944,16.874 1.747,16.874 1.747,16.874 C1.747,16.874 1.747,9.667 1.747,9.667 Z" id="path-1" class="cls-3" fill-rule="evenodd"/>
    <path d="M39.547,34.631 C39.556,34.620 39.565,34.609 39.575,34.598 C38.971,34.238 38.085,33.872 37.742,33.735 C37.694,33.744 37.645,33.748 37.597,33.748 C37.597,33.748 33.855,33.748 33.855,33.748 C34.741,32.930 35.299,31.758 35.299,30.458 C35.299,30.458 35.299,27.851 35.299,27.851 C36.084,27.179 36.585,26.178 36.585,25.061 C36.585,25.061 36.585,22.873 36.585,22.873 C36.585,22.388 36.194,21.995 35.710,21.995 C35.710,21.995 31.155,21.995 31.155,21.995 C28.538,21.995 26.409,24.135 26.409,26.765 C26.409,26.765 26.409,30.458 26.409,30.458 C26.409,31.758 26.964,32.930 27.851,33.748 C27.851,33.748 24.185,33.748 24.185,33.748 C24.185,33.748 24.110,33.815 24.110,33.815 C24.110,33.815 22.389,34.472 21.759,34.989 C21.518,35.186 21.284,35.363 21.089,35.506 C21.089,35.506 21.127,35.506 21.127,35.506 C20.246,36.466 19.708,37.746 19.708,39.152 C19.708,39.152 19.708,44.121 19.708,44.121 C19.708,44.606 20.099,44.999 20.583,44.999 C20.583,44.999 41.124,44.999 41.124,44.999 C41.607,44.999 41.997,44.606 41.997,44.121 C41.997,44.121 41.997,39.152 41.997,39.152 C41.997,37.259 41.020,35.592 39.547,34.631 ZM28.157,26.765 C28.157,25.104 29.502,23.753 31.155,23.753 C31.155,23.753 34.835,23.753 34.835,23.753 C34.835,23.753 34.835,25.060 34.835,25.060 C34.835,26.113 33.984,26.968 32.936,26.968 C32.936,26.968 28.157,26.968 28.157,26.968 C28.157,26.968 28.157,26.765 28.157,26.765 ZM21.457,43.241 C21.457,43.241 21.457,39.152 21.457,39.152 C21.457,37.388 22.714,35.916 24.374,35.592 C24.374,35.592 23.469,39.150 23.469,39.150 C23.402,39.416 23.462,39.699 23.632,39.915 C23.632,39.915 26.269,43.241 26.269,43.241 C26.269,43.241 21.457,43.241 21.457,43.241 ZM27.887,42.461 C27.887,42.461 25.271,39.161 25.271,39.161 C25.271,39.161 26.182,35.583 26.182,35.583 C26.187,35.564 26.190,35.544 26.194,35.524 C26.194,35.524 27.887,35.524 27.887,35.524 C27.887,35.524 27.887,42.461 27.887,42.461 ZM32.072,43.241 C32.072,43.241 29.636,43.241 29.636,43.241 C29.636,43.241 29.636,34.753 29.636,34.753 C30.022,34.864 30.430,34.924 30.854,34.924 C31.275,34.924 31.683,34.864 32.072,34.753 C32.072,34.753 32.072,43.241 32.072,43.241 ZM33.549,30.458 C33.549,31.951 32.339,33.167 30.853,33.167 C29.366,33.167 28.157,31.951 28.157,30.458 M28.157,30.458 C28.157,30.458 28.157,28.726 28.157,28.726 C28.157,28.726 32.936,28.726 32.936,28.726 C32.936,28.726 33.549,28.726 33.549,28.726 C33.549,28.726 33.549,30.458 33.549,30.458 M33.819,35.524 C33.819,35.524 35.499,35.524 35.499,35.524 C35.503,35.544 35.506,35.564 35.512,35.583 C35.512,35.583 36.423,39.161 36.423,39.161 C36.423,39.161 33.819,42.444 33.819,42.444 C33.819,42.444 33.819,35.524 33.819,35.524 ZM40.250,43.241 C40.250,43.241 35.423,43.241 35.423,43.241 C35.423,43.241 38.061,39.915 38.061,39.915 C38.231,39.699 38.292,39.416 38.224,39.150 C38.224,39.150 37.319,35.589 37.319,35.589 C38.985,35.909 40.250,37.385 40.250,39.152 C40.250,39.152 40.250,43.241 40.250,43.241 Z" id="path-2" class="cls-4" fill-rule="evenodd"/>
  </g>
</svg>
