<svg xmlns="http://www.w3.org/2000/svg" xmlns:xlink="http://www.w3.org/1999/xlink" preserveAspectRatio="xMidYMid" width="43" height="43" viewBox="0 0 43 43">
  <defs>
    <style>

      .cls-3 {
        fill: #ffffff;
      }

      .cls-4 {
        fill: #fc793f;
      }
    </style>
  </defs>
  <g id="ик-3">
    <path d="M41.104,26.218 C41.104,26.218 38.824,26.218 38.824,26.218 C38.424,27.684 37.839,29.092 37.084,30.410 C37.084,30.410 38.699,32.024 38.699,32.024 C39.056,32.383 39.254,32.858 39.254,33.365 C39.254,33.871 39.057,34.347 38.699,34.705 C38.699,34.705 34.705,38.699 34.705,38.699 C34.347,39.057 33.871,39.255 33.363,39.255 C32.858,39.255 32.382,39.057 32.024,38.699 C32.024,38.699 30.403,37.078 30.403,37.078 C29.086,37.831 27.679,38.412 26.219,38.809 C26.219,38.809 26.219,41.104 26.219,41.104 C26.219,42.149 25.368,42.999 24.323,42.999 C24.323,42.999 18.675,42.999 18.675,42.999 C17.629,42.999 16.780,42.149 16.780,41.104 C16.780,41.104 16.780,38.803 16.780,38.803 C15.320,38.406 13.916,37.823 12.601,37.071 C12.601,37.071 10.974,38.699 10.974,38.699 C10.616,39.057 10.139,39.255 9.633,39.255 C9.127,39.255 8.651,39.057 8.293,38.699 C8.293,38.699 4.299,34.705 4.299,34.705 C3.941,34.347 3.745,33.871 3.745,33.365 C3.745,32.858 3.941,32.383 4.299,32.024 C4.299,32.024 5.927,30.396 5.927,30.396 C5.175,29.082 4.592,27.679 4.195,26.219 C4.195,26.219 1.893,26.219 1.893,26.219 C0.848,26.219 -0.001,25.369 -0.001,24.324 C-0.001,24.324 -0.001,18.675 -0.001,18.675 C-0.001,17.630 0.848,16.780 1.893,16.780 C1.893,16.780 4.190,16.780 4.190,16.780 C4.586,15.318 5.167,13.911 5.920,12.595 C5.920,12.595 4.299,10.974 4.299,10.974 C3.941,10.616 3.745,10.140 3.745,9.634 C3.745,9.127 3.941,8.651 4.299,8.294 C4.299,8.294 8.293,4.299 8.293,4.299 C8.651,3.941 9.127,3.744 9.633,3.744 C10.139,3.744 10.616,3.941 10.974,4.299 C10.974,4.299 12.588,5.914 12.588,5.914 C13.906,5.158 15.315,4.573 16.780,4.174 C16.780,4.174 16.780,1.894 16.780,1.894 C16.780,0.849 17.630,-0.001 18.675,-0.001 C18.675,-0.001 24.323,-0.001 24.323,-0.001 C25.368,-0.001 26.219,0.849 26.219,1.894 C26.219,1.894 26.219,4.169 26.219,4.169 C27.685,4.566 29.096,5.150 30.417,5.907 C30.417,5.907 32.024,4.299 32.024,4.299 C32.382,3.941 32.858,3.744 33.363,3.744 C33.871,3.744 34.347,3.941 34.705,4.299 C34.705,4.299 38.699,8.294 38.699,8.294 C39.057,8.651 39.254,9.127 39.254,9.633 C39.254,10.140 39.057,10.616 38.699,10.974 C38.699,10.974 37.092,12.581 37.092,12.581 C37.847,13.901 38.432,15.313 38.830,16.779 C38.830,16.779 41.104,16.779 41.104,16.779 C42.149,16.779 42.999,17.630 42.999,18.675 C42.999,18.675 42.999,24.323 42.999,24.323 C42.999,25.369 42.149,26.218 41.104,26.218 ZM40.869,18.908 C40.869,18.908 38.650,18.908 38.650,18.908 C37.788,18.908 37.033,18.328 36.817,17.496 C36.452,16.094 35.896,14.748 35.162,13.498 C34.727,12.756 34.850,11.812 35.459,11.203 C35.459,11.203 37.028,9.634 37.028,9.634 C37.028,9.634 33.363,5.970 33.363,5.970 C33.363,5.970 31.794,7.539 31.794,7.539 C31.186,8.148 30.242,8.270 29.500,7.836 C28.249,7.102 26.905,6.545 25.503,6.180 C24.671,5.964 24.090,5.211 24.090,4.349 C24.090,4.349 24.090,2.128 24.090,2.128 C24.090,2.128 18.907,2.128 18.907,2.128 C18.907,2.128 18.907,4.354 18.907,4.354 C18.907,5.216 18.328,5.968 17.498,6.185 C16.097,6.551 14.754,7.109 13.506,7.842 C12.764,8.278 11.820,8.156 11.210,7.546 C11.210,7.546 9.633,5.970 9.633,5.970 C9.633,5.970 5.969,9.633 5.969,9.633 C5.969,9.633 7.552,11.216 7.552,11.216 C8.162,11.825 8.283,12.769 7.849,13.509 C7.119,14.757 6.565,16.098 6.201,17.495 C5.984,18.328 5.232,18.908 4.369,18.908 C4.369,18.908 2.128,18.908 2.128,18.908 C2.128,18.908 2.128,24.090 2.128,24.090 C2.128,24.090 4.374,24.090 4.374,24.090 C5.236,24.090 5.988,24.670 6.206,25.500 C6.571,26.896 7.125,28.234 7.856,29.480 C8.291,30.221 8.170,31.165 7.559,31.775 C7.559,31.775 5.969,33.365 5.969,33.365 C5.969,33.365 9.633,37.029 9.633,37.029 C9.633,37.029 11.223,35.438 11.223,35.438 C11.832,34.829 12.777,34.706 13.518,35.142 C14.763,35.872 16.101,36.427 17.498,36.792 C18.328,37.009 18.907,37.763 18.907,38.624 C18.907,38.624 18.907,40.870 18.907,40.870 C18.907,40.870 24.090,40.870 24.090,40.870 C24.090,40.870 24.090,38.629 24.090,38.629 C24.090,37.766 24.671,37.013 25.503,36.797 C26.899,36.433 28.241,35.879 29.488,35.148 C30.229,34.714 31.173,34.837 31.781,35.446 C31.781,35.446 33.363,37.029 33.363,37.029 C33.363,37.029 37.028,33.365 37.028,33.365 C37.028,33.365 35.451,31.788 35.451,31.788 C34.841,31.178 34.719,30.233 35.155,29.492 C35.890,28.244 36.447,26.901 36.813,25.500 C37.029,24.670 37.783,24.090 38.644,24.090 C38.644,24.090 40.869,24.090 40.869,24.090 C40.869,24.090 40.869,18.908 40.869,18.908 ZM21.500,34.059 C14.574,34.059 8.939,28.424 8.939,21.499 C8.939,18.932 9.709,16.464 11.164,14.360 C12.586,12.306 14.560,10.736 16.873,9.819 C17.420,9.603 18.039,9.870 18.255,10.417 C18.471,10.963 18.205,11.582 17.657,11.798 C13.655,13.385 11.068,17.193 11.068,21.499 C11.068,27.251 15.747,31.930 21.500,31.930 C27.251,31.930 31.929,27.251 31.929,21.499 C31.929,17.134 29.177,13.196 25.077,11.698 C24.526,11.497 24.242,10.886 24.443,10.334 C24.644,9.781 25.255,9.497 25.808,9.699 C30.743,11.501 34.059,16.243 34.059,21.499 C34.059,28.424 28.424,34.059 21.500,34.059 ZM21.552,11.069 C21.550,11.069 21.548,11.069 21.545,11.069 C21.545,11.069 21.500,11.069 21.500,11.069 C20.912,11.069 20.434,10.592 20.434,10.004 C20.434,9.416 20.912,8.940 21.500,8.940 C21.500,8.940 21.558,8.940 21.558,8.940 C22.146,8.944 22.621,9.423 22.617,10.010 C22.613,10.596 22.137,11.069 21.552,11.069 Z" id="path-1" class="cls-3" fill-rule="evenodd"/>
    <path d="M27.697,21.224 C27.206,21.224 26.792,20.889 26.671,20.437 C26.671,20.437 23.289,23.817 23.289,23.817 C23.089,24.016 22.818,24.129 22.538,24.129 C22.255,24.129 21.984,24.016 21.784,23.817 C21.784,23.817 19.592,21.625 19.592,21.625 C19.592,21.625 18.346,22.870 18.346,22.870 C17.931,23.286 17.258,23.286 16.841,22.870 C16.426,22.455 16.426,21.781 16.841,21.365 C16.841,21.365 18.840,19.367 18.840,19.367 C19.255,18.951 19.928,18.951 20.345,19.367 C20.345,19.367 22.538,21.559 22.538,21.559 C22.538,21.559 25.164,18.932 25.164,18.932 C24.712,18.808 24.379,18.397 24.379,17.905 C24.379,17.318 24.856,16.841 25.442,16.841 C25.442,16.841 27.697,16.841 27.697,16.841 C28.285,16.841 28.762,17.318 28.762,17.905 C28.762,17.905 28.762,20.159 28.762,20.159 C28.762,20.747 28.285,21.224 27.697,21.224 ZM15.145,25.630 C14.865,25.630 14.591,25.516 14.394,25.318 C14.195,25.120 14.081,24.845 14.081,24.565 C14.081,24.285 14.195,24.012 14.394,23.814 C14.591,23.615 14.865,23.501 15.145,23.501 C15.427,23.501 15.700,23.615 15.899,23.814 C16.096,24.010 16.210,24.285 16.210,24.565 C16.210,24.845 16.096,25.120 15.899,25.318 C15.700,25.516 15.427,25.630 15.145,25.630 Z" id="path-2" class="cls-4" fill-rule="evenodd"/>
  </g>
</svg>
