<svg xmlns="http://www.w3.org/2000/svg" xmlns:xlink="http://www.w3.org/1999/xlink" preserveAspectRatio="xMidYMid" width="45" height="45" viewBox="0 0 45 45">
  <defs>
    <style>

      .cls-3 {
        fill: #ffffff;
      }

      .cls-4 {
        fill: #fc793f;
      }
    </style>
  </defs>
  <g id="ик-4">
    <path d="M42.362,-0.001 C42.362,-0.001 7.206,-0.001 7.206,-0.001 C5.753,-0.001 4.569,1.182 4.569,2.635 C4.569,2.635 4.569,28.652 4.569,28.652 C4.569,30.106 5.753,31.288 7.206,31.288 C7.206,31.288 9.770,31.288 9.770,31.288 C9.995,31.618 10.253,31.924 10.539,32.200 C10.539,32.200 10.539,32.840 10.539,32.840 C10.539,33.230 10.262,33.568 9.881,33.648 C9.881,33.648 5.383,34.582 5.383,34.582 C2.263,35.230 -0.002,38.014 -0.002,41.200 C-0.002,41.200 -0.002,44.120 -0.002,44.120 C-0.002,44.606 0.392,44.999 0.877,44.999 C0.877,44.999 28.299,44.999 28.299,44.999 C28.784,44.999 29.178,44.606 29.178,44.120 C29.178,44.120 29.178,41.204 29.178,41.204 C29.178,38.014 26.911,35.231 23.789,34.585 C23.789,34.585 19.261,33.647 19.261,33.647 C18.879,33.568 18.603,33.228 18.603,32.839 C18.603,32.839 18.603,32.200 18.603,32.200 C19.692,31.145 20.372,29.670 20.372,28.036 C20.372,28.036 20.372,27.773 20.372,27.773 C20.372,27.773 40.605,27.773 40.605,27.773 C41.091,27.773 41.483,27.379 41.483,26.894 C41.483,26.894 41.483,4.394 41.483,4.394 C41.483,3.908 41.091,3.515 40.605,3.515 C40.605,3.515 8.965,3.515 8.965,3.515 C8.479,3.515 8.086,3.908 8.086,4.394 C8.086,4.394 8.086,16.523 8.086,16.523 C8.086,17.008 8.479,17.402 8.965,17.402 C9.449,17.402 9.844,17.008 9.844,16.523 C9.844,16.523 9.844,5.273 9.844,5.273 C9.844,5.273 39.726,5.273 39.726,5.273 C39.726,5.273 39.726,26.015 39.726,26.015 C39.726,26.015 20.372,26.015 20.372,26.015 C20.372,26.015 20.372,22.977 20.372,22.977 C20.372,22.977 20.372,22.587 20.372,22.587 C20.372,22.587 20.372,22.510 20.372,22.510 C20.372,22.485 20.369,22.458 20.368,22.433 C20.320,20.629 19.445,19.028 18.109,17.996 C18.150,17.893 18.175,17.783 18.175,17.666 C18.175,15.678 16.558,14.062 14.571,14.062 C12.584,14.062 10.967,15.678 10.967,17.666 C10.967,17.783 10.991,17.893 11.033,17.996 C9.697,19.028 8.822,20.629 8.774,22.433 C8.772,22.458 8.770,22.485 8.770,22.510 C8.770,22.510 8.770,22.587 8.770,22.587 C8.770,22.587 8.770,22.977 8.770,22.977 C8.770,22.977 8.770,26.225 8.770,26.225 C8.770,26.225 8.770,27.738 8.770,27.738 C8.770,27.738 8.770,28.036 8.770,28.036 C8.770,28.553 8.839,29.054 8.967,29.531 C8.967,29.531 7.206,29.531 7.206,29.531 C6.721,29.531 6.327,29.136 6.327,28.652 C6.327,28.652 6.327,2.637 6.327,2.637 C6.327,2.152 6.721,1.757 7.206,1.757 C7.206,1.757 42.362,1.757 42.362,1.757 C42.846,1.757 43.241,2.152 43.241,2.637 C43.241,2.637 43.241,28.652 43.241,28.652 C43.241,29.136 42.846,29.531 42.362,29.531 C42.362,29.531 26.520,29.531 26.520,29.531 C26.034,29.531 25.642,29.924 25.642,30.409 C25.642,30.895 26.034,31.288 26.520,31.288 C26.520,31.288 42.362,31.288 42.362,31.288 C43.816,31.288 44.999,30.106 44.999,28.652 C44.999,28.652 44.999,2.637 44.999,2.637 C44.999,1.182 43.816,-0.001 42.362,-0.001 ZM10.850,29.618 C10.850,29.618 13.570,29.618 13.570,29.618 C13.937,29.618 14.281,29.510 14.571,29.326 C14.861,29.510 15.204,29.618 15.571,29.618 C15.571,29.618 18.291,29.618 18.291,29.618 C17.674,31.064 16.238,32.079 14.571,32.079 C12.903,32.079 11.468,31.064 10.850,29.618 ZM18.491,26.103 C18.559,26.103 18.614,26.158 18.614,26.225 C18.614,26.225 18.614,27.738 18.614,27.738 C18.614,27.805 18.559,27.860 18.491,27.860 C18.491,27.860 15.571,27.860 15.571,27.860 C15.504,27.860 15.450,27.805 15.450,27.738 C15.450,27.738 15.450,26.225 15.450,26.225 C15.450,26.158 15.504,26.103 15.571,26.103 C15.571,26.103 17.246,26.103 17.246,26.103 C17.246,26.103 18.491,26.103 18.491,26.103 C18.491,26.103 18.491,26.103 18.491,26.103 ZM13.570,26.103 C13.637,26.103 13.692,26.158 13.692,26.225 C13.692,26.225 13.692,27.738 13.692,27.738 C13.692,27.805 13.637,27.860 13.570,27.860 C13.570,27.860 10.651,27.860 10.651,27.860 C10.584,27.860 10.528,27.805 10.528,27.738 C10.528,27.738 10.528,26.225 10.528,26.225 C10.528,26.158 10.584,26.103 10.651,26.103 C10.651,26.103 11.896,26.103 11.896,26.103 C11.896,26.103 12.392,26.103 12.392,26.103 C12.392,26.103 12.539,26.103 12.539,26.103 C12.539,26.103 13.570,26.103 13.570,26.103 C13.570,26.103 13.570,26.103 13.570,26.103 ZM23.433,36.306 C25.743,36.785 27.419,38.844 27.419,41.204 C27.419,41.204 27.419,43.241 27.419,43.241 C27.419,43.241 1.756,43.241 1.756,43.241 C1.756,43.241 1.756,41.200 1.756,41.200 C1.756,38.843 3.432,36.783 5.741,36.303 C5.741,36.303 10.238,35.368 10.238,35.368 C10.257,35.365 10.275,35.360 10.294,35.356 C10.294,35.356 13.827,40.984 13.827,40.984 C13.987,41.241 14.269,41.396 14.571,41.396 C14.873,41.396 15.155,41.241 15.316,40.984 C15.316,40.984 18.848,35.356 18.848,35.356 C18.867,35.360 18.886,35.365 18.905,35.368 C18.905,35.368 23.433,36.306 23.433,36.306 ZM17.374,34.399 C17.374,34.399 14.571,38.864 14.571,38.864 C14.571,38.864 11.768,34.399 11.768,34.399 C12.002,34.093 12.166,33.734 12.244,33.349 C12.957,33.662 13.745,33.837 14.571,33.837 C15.397,33.837 16.185,33.662 16.897,33.349 C16.975,33.734 17.141,34.092 17.374,34.399 ZM18.614,22.977 C18.614,23.731 18.000,24.345 17.246,24.345 C17.246,24.345 16.184,24.345 16.184,24.345 C16.586,23.839 16.888,23.242 17.054,22.581 C17.171,22.110 16.885,21.633 16.415,21.515 C15.943,21.397 15.466,21.683 15.347,22.153 C15.024,23.444 13.869,24.345 12.539,24.345 C12.539,24.345 12.392,24.345 12.392,24.345 C12.392,24.345 11.896,24.345 11.896,24.345 C11.141,24.345 10.528,23.731 10.528,22.977 C10.528,22.977 10.528,22.587 10.528,22.587 C10.528,20.357 12.341,18.544 14.571,18.544 C16.799,18.544 18.614,20.357 18.614,22.587 C18.614,22.587 18.614,22.977 18.614,22.977 C18.614,22.977 18.614,22.977 18.614,22.977 ZM14.571,15.820 C15.374,15.820 16.056,16.336 16.309,17.054 C15.761,16.880 15.176,16.787 14.571,16.787 C13.966,16.787 13.381,16.880 12.832,17.054 C13.086,16.336 13.769,15.820 14.571,15.820 Z" id="path-1" class="cls-3" fill-rule="evenodd"/>
    <path d="M37.089,19.335 C37.089,19.335 22.499,19.335 22.499,19.335 C22.014,19.335 21.621,18.942 21.621,18.457 C21.621,18.457 21.621,7.909 21.621,7.909 C21.621,7.424 22.014,7.030 22.499,7.030 C22.499,7.030 37.089,7.030 37.089,7.030 C37.574,7.030 37.968,7.424 37.968,7.909 C37.968,7.909 37.968,18.457 37.968,18.457 C37.968,18.942 37.574,19.335 37.089,19.335 ZM36.210,8.788 C36.210,8.788 23.378,8.788 23.378,8.788 C23.378,8.788 23.378,17.577 23.378,17.577 C23.378,17.577 36.210,17.577 36.210,17.577 C36.210,17.577 36.210,8.788 36.210,8.788 ZM27.875,10.397 C28.494,10.039 29.234,10.039 29.853,10.397 C29.853,10.397 31.712,11.471 31.712,11.471 C32.332,11.828 32.702,12.467 32.702,13.183 C32.702,13.898 32.332,14.538 31.712,14.895 C31.712,14.895 29.853,15.969 29.853,15.969 C29.543,16.148 29.203,16.237 28.865,16.237 C28.525,16.237 28.186,16.148 27.875,15.969 C27.257,15.611 26.887,14.971 26.887,14.256 C26.887,14.256 26.887,12.109 26.887,12.109 C26.887,11.394 27.256,10.754 27.875,10.397 ZM28.645,14.256 C28.645,14.361 28.705,14.417 28.754,14.447 C28.804,14.476 28.883,14.499 28.974,14.447 C28.974,14.447 30.835,13.373 30.835,13.373 C30.924,13.321 30.944,13.241 30.944,13.183 C30.944,13.125 30.924,13.046 30.835,12.992 C30.835,12.992 28.974,11.919 28.974,11.919 C28.936,11.896 28.898,11.888 28.865,11.888 C28.820,11.888 28.783,11.902 28.754,11.919 C28.705,11.948 28.645,12.004 28.645,12.109 C28.645,12.109 28.645,14.256 28.645,14.256 Z" id="path-2" class="cls-4" fill-rule="evenodd"/>
  </g>
</svg>
