<svg xmlns="http://www.w3.org/2000/svg" xmlns:xlink="http://www.w3.org/1999/xlink" preserveAspectRatio="xMidYMid" width="49" height="45" viewBox="0 0 49 45">
  <defs>
    <style>

      .cls-3 {
        fill: #ffffff;
      }

      .cls-4 {
        fill: #fc793f;
      }
    </style>
  </defs>
  <g id="ик-1">
    <path d="M43.471,22.745 C43.471,22.745 38.142,14.654 38.142,14.654 C37.728,14.027 37.028,13.651 36.268,13.651 C36.268,13.651 12.746,13.651 12.746,13.651 C11.988,13.651 11.289,14.026 10.875,14.651 C10.875,14.651 5.527,22.743 5.527,22.743 C4.981,23.570 5.065,24.662 5.733,25.397 C5.733,25.397 22.831,44.264 22.831,44.264 C23.254,44.732 23.861,44.999 24.498,44.999 C24.498,44.999 24.498,44.999 24.498,44.999 C25.133,44.999 25.742,44.732 26.164,44.264 C26.164,44.264 43.265,25.397 43.265,25.397 C43.933,24.662 44.017,23.571 43.471,22.745 ZM35.188,15.533 C35.188,15.533 30.704,22.347 30.704,22.347 C30.704,22.347 26.218,15.533 26.218,15.533 C26.218,15.533 35.188,15.533 35.188,15.533 ZM28.945,23.138 C28.945,23.138 20.050,23.138 20.050,23.138 C20.050,23.138 24.498,16.383 24.498,16.383 C24.498,16.383 28.945,23.138 28.945,23.138 ZM22.778,15.533 C22.778,15.533 18.303,22.329 18.303,22.329 C18.303,22.329 13.831,15.533 13.831,15.533 C13.831,15.533 22.778,15.533 22.778,15.533 ZM12.061,16.307 C12.061,16.307 16.558,23.138 16.558,23.138 C16.558,23.138 7.548,23.138 7.548,23.138 C7.548,23.138 12.061,16.307 12.061,16.307 ZM7.952,25.019 C7.952,25.019 17.585,25.019 17.585,25.019 C17.585,25.019 22.677,41.267 22.677,41.267 C22.677,41.267 7.952,25.019 7.952,25.019 ZM24.498,40.684 C24.498,40.684 19.588,25.019 19.588,25.019 C19.588,25.019 29.409,25.019 29.409,25.019 C29.409,25.019 24.498,40.684 24.498,40.684 ZM26.318,41.267 C26.318,41.267 31.412,25.020 31.412,25.020 C31.412,25.020 41.044,25.020 41.044,25.020 C41.044,25.020 26.318,41.267 26.318,41.267 ZM32.463,23.138 C32.463,23.138 36.954,16.312 36.954,16.312 C36.954,16.312 41.451,23.138 41.451,23.138 C41.451,23.138 32.463,23.138 32.463,23.138 Z" id="path-1" class="cls-3" fill-rule="evenodd"/>
    <path d="M48.041,25.019 C48.041,25.019 46.096,25.019 46.096,25.019 C45.568,25.019 45.139,24.598 45.139,24.079 C45.139,23.560 45.568,23.138 46.096,23.138 C46.096,23.138 48.041,23.138 48.041,23.138 C48.571,23.138 48.999,23.560 48.999,24.079 C48.999,24.598 48.571,25.019 48.041,25.019 ZM38.656,11.512 C38.470,11.696 38.224,11.786 37.979,11.786 C37.735,11.786 37.489,11.696 37.303,11.512 C36.929,11.144 36.929,10.549 37.303,10.181 C37.303,10.181 40.482,7.057 40.482,7.057 C40.855,6.690 41.460,6.690 41.835,7.057 C42.208,7.424 42.208,8.020 41.835,8.387 C41.835,8.387 38.656,11.512 38.656,11.512 ZM24.523,11.192 C24.271,11.192 24.024,11.093 23.846,10.916 C23.668,10.742 23.566,10.500 23.566,10.251 C23.566,10.004 23.668,9.762 23.846,9.587 C24.024,9.411 24.271,9.311 24.523,9.311 C24.774,9.311 25.021,9.411 25.199,9.587 C25.378,9.762 25.480,10.004 25.480,10.251 C25.480,10.499 25.378,10.742 25.199,10.916 C25.021,11.093 24.774,11.192 24.523,11.192 ZM24.523,8.010 C23.994,8.010 23.566,7.589 23.566,7.069 C23.566,7.069 23.566,0.939 23.566,0.939 C23.566,0.420 23.994,-0.001 24.523,-0.001 C25.052,-0.001 25.480,0.420 25.480,0.939 C25.480,0.939 25.480,7.069 25.480,7.069 C25.480,7.589 25.052,8.010 24.523,8.010 ZM11.060,11.770 C10.814,11.770 10.570,11.679 10.383,11.495 C10.383,11.495 7.204,8.370 7.204,8.370 C6.830,8.003 6.830,7.408 7.204,7.040 C7.577,6.673 8.185,6.673 8.558,7.040 C8.558,7.040 11.737,10.165 11.737,10.165 C12.110,10.532 12.110,11.127 11.737,11.495 C11.550,11.679 11.304,11.770 11.060,11.770 ZM2.902,25.019 C2.902,25.019 0.956,25.019 0.956,25.019 C0.427,25.019 -0.002,24.598 -0.002,24.079 C-0.002,23.560 0.427,23.138 0.956,23.138 C0.956,23.138 2.902,23.138 2.902,23.138 C3.430,23.138 3.859,23.560 3.859,24.079 C3.859,24.598 3.430,25.019 2.902,25.019 Z" id="path-2" class="cls-4" fill-rule="evenodd"/>
  </g>
</svg>
