<svg xmlns="http://www.w3.org/2000/svg" xmlns:xlink="http://www.w3.org/1999/xlink" preserveAspectRatio="xMidYMid" width="44" height="44" viewBox="0 0 44 44">
  <defs>
    <style>

      .cls-3 {
        fill: #ffffff;
      }

      .cls-4 {
        fill: #fc793f;
      }
    </style>
  </defs>
  <g id="ик-2">
    <path d="M43.274,26.607 C43.274,26.607 40.104,27.112 40.104,27.112 C40.104,27.112 38.424,31.173 38.424,31.173 C38.424,31.173 40.310,33.771 40.310,33.771 C40.559,34.113 40.522,34.584 40.223,34.884 C40.223,34.884 34.896,40.214 34.896,40.214 C34.598,40.513 34.126,40.550 33.784,40.302 C33.784,40.302 31.184,38.416 31.184,38.416 C31.184,38.416 27.126,40.099 27.126,40.099 C27.126,40.099 26.623,43.271 26.623,43.271 C26.556,43.689 26.197,43.995 25.775,43.996 C25.775,43.996 18.239,43.999 18.239,43.999 C17.817,43.999 17.457,43.692 17.391,43.275 C17.391,43.275 16.886,40.104 16.886,40.104 C16.886,40.104 12.824,38.424 12.824,38.424 C12.824,38.424 10.227,40.311 10.227,40.311 C9.886,40.559 9.413,40.522 9.114,40.223 C9.114,40.223 3.785,34.897 3.785,34.897 C3.485,34.598 3.449,34.127 3.697,33.784 C3.697,33.784 5.582,31.184 5.582,31.184 C5.582,31.184 3.900,27.127 3.900,27.127 C3.900,27.127 0.727,26.624 0.727,26.624 C0.309,26.558 0.003,26.197 0.003,25.775 C0.003,25.775 -0.001,18.240 -0.001,18.240 C-0.001,17.817 0.306,17.457 0.724,17.391 C0.724,17.391 3.894,16.886 3.894,16.886 C3.894,16.886 5.574,12.825 5.574,12.825 C5.574,12.825 3.688,10.227 3.688,10.227 C3.439,9.886 3.476,9.413 3.775,9.114 C3.775,9.114 9.101,3.784 9.101,3.784 C9.399,3.486 9.872,3.448 10.213,3.697 C10.213,3.697 12.814,5.583 12.814,5.583 C12.814,5.583 16.872,3.900 16.872,3.900 C16.872,3.900 17.375,0.727 17.375,0.727 C17.442,0.310 17.800,0.002 18.223,0.002 C18.223,0.002 25.758,-0.001 25.758,-0.001 C26.181,-0.001 26.541,0.306 26.607,0.724 C26.607,0.724 27.113,3.894 27.113,3.894 C27.113,3.894 31.174,5.574 31.174,5.574 C31.174,5.574 33.771,3.688 33.771,3.688 C34.113,3.439 34.584,3.476 34.883,3.775 C34.883,3.775 40.213,9.102 40.213,9.102 C40.512,9.400 40.550,9.871 40.302,10.214 C40.302,10.214 38.416,12.814 38.416,12.814 C38.416,12.814 40.098,16.872 40.098,16.872 C40.098,16.872 43.271,17.376 43.271,17.376 C43.689,17.441 43.996,17.801 43.996,18.224 C43.996,18.224 43.999,25.759 43.999,25.759 C43.999,26.181 43.692,26.541 43.274,26.607 ZM42.277,18.958 C42.277,18.958 39.355,18.495 39.355,18.495 C39.060,18.448 38.809,18.251 38.695,17.975 C38.695,17.975 36.644,13.028 36.644,13.028 C36.529,12.752 36.566,12.436 36.742,12.194 C36.742,12.194 38.480,9.799 38.480,9.799 C38.480,9.799 34.188,5.510 34.188,5.510 C34.188,5.510 31.795,7.248 31.795,7.248 C31.552,7.424 31.237,7.461 30.961,7.347 C30.961,7.347 26.010,5.298 26.010,5.298 C25.734,5.184 25.537,4.934 25.491,4.639 C25.491,4.639 25.025,1.718 25.025,1.718 C25.025,1.718 18.958,1.721 18.958,1.721 C18.958,1.721 18.495,4.643 18.495,4.643 C18.447,4.939 18.250,5.189 17.975,5.303 C17.975,5.303 13.028,7.354 13.028,7.354 C12.752,7.468 12.437,7.432 12.193,7.257 C12.193,7.257 9.799,5.519 9.799,5.519 C9.799,5.519 5.510,9.811 5.510,9.811 C5.510,9.811 7.248,12.204 7.248,12.204 C7.423,12.445 7.461,12.761 7.346,13.037 C7.346,13.037 5.298,17.988 5.298,17.988 C5.184,18.264 4.935,18.461 4.640,18.508 C4.640,18.508 1.718,18.973 1.718,18.973 C1.718,18.973 1.720,25.041 1.720,25.041 C1.720,25.041 4.644,25.504 4.644,25.504 C4.939,25.551 5.188,25.747 5.303,26.023 C5.303,26.023 7.355,30.971 7.355,30.971 C7.469,31.247 7.432,31.562 7.256,31.805 C7.256,31.805 5.519,34.200 5.519,34.200 C5.519,34.200 9.810,38.489 9.810,38.489 C9.810,38.489 12.204,36.751 12.204,36.751 C12.352,36.642 12.530,36.587 12.708,36.587 C12.820,36.587 12.931,36.608 13.038,36.652 C13.038,36.652 17.988,38.700 17.988,38.700 C18.264,38.815 18.460,39.064 18.508,39.359 C18.508,39.359 18.972,42.280 18.972,42.280 C18.972,42.280 25.040,42.278 25.040,42.278 C25.040,42.278 25.503,39.355 25.503,39.355 C25.550,39.060 25.747,38.810 26.024,38.696 C26.024,38.696 30.970,36.644 30.970,36.644 C31.247,36.530 31.563,36.567 31.804,36.743 C31.804,36.743 34.200,38.480 34.200,38.480 C34.200,38.480 38.489,34.188 38.489,34.188 C38.489,34.188 36.750,31.795 36.750,31.795 C36.574,31.553 36.537,31.237 36.651,30.961 C36.651,30.961 38.700,26.011 38.700,26.011 C38.813,25.734 39.063,25.537 39.358,25.491 C39.358,25.491 42.280,25.025 42.280,25.025 C42.280,25.025 42.277,18.958 42.277,18.958 ZM24.195,12.279 C26.424,12.780 28.433,14.053 29.848,15.863 C30.141,16.236 30.076,16.776 29.702,17.069 C29.544,17.192 29.357,17.251 29.173,17.251 C28.917,17.251 28.665,17.139 28.495,16.922 C27.323,15.424 25.661,14.371 23.817,13.955 C23.354,13.851 23.064,13.392 23.168,12.928 C23.272,12.465 23.732,12.175 24.195,12.279 ZM21.987,35.923 C19.586,35.923 17.168,35.303 14.986,34.030 C14.578,33.791 14.439,33.265 14.678,32.855 C14.917,32.445 15.444,32.307 15.854,32.546 C20.633,35.335 26.708,34.547 30.628,30.629 C35.386,25.870 35.386,18.129 30.628,13.370 C25.870,8.612 18.129,8.612 13.370,13.370 C9.475,17.266 8.672,23.316 11.417,28.084 C11.654,28.495 11.512,29.020 11.101,29.257 C10.690,29.494 10.165,29.352 9.928,28.941 C6.795,23.502 7.711,16.599 12.155,12.155 C17.583,6.727 26.415,6.727 31.843,12.155 C37.271,17.584 37.271,26.415 31.843,31.844 C29.160,34.526 25.591,35.923 21.987,35.923 Z" id="path-1" class="cls-3" fill-rule="evenodd"/>
    <path d="M18.120,22.107 C18.120,22.107 21.890,25.878 21.890,25.878 C21.659,27.374 22.151,28.914 23.233,29.996 C24.149,30.911 25.368,31.397 26.613,31.397 C27.216,31.397 27.825,31.283 28.408,31.047 C28.675,30.939 28.871,30.704 28.928,30.422 C28.986,30.139 28.898,29.847 28.694,29.643 C28.694,29.643 27.453,28.403 27.453,28.403 C27.190,28.139 27.190,27.709 27.453,27.445 C27.718,27.182 28.147,27.182 28.410,27.445 C28.410,27.445 29.648,28.684 29.648,28.684 C29.852,28.888 30.146,28.976 30.428,28.918 C30.710,28.860 30.946,28.664 31.054,28.396 C31.793,26.549 31.302,24.409 29.828,23.070 C28.753,22.093 27.309,21.669 25.883,21.891 C25.883,21.891 22.109,18.117 22.109,18.117 C22.339,16.622 21.845,15.084 20.765,14.003 C19.409,12.648 17.384,12.233 15.605,12.945 C15.336,13.053 15.140,13.288 15.081,13.571 C15.024,13.854 15.111,14.147 15.316,14.351 C15.316,14.351 16.561,15.597 16.561,15.597 C16.826,15.860 16.826,16.290 16.561,16.554 C16.297,16.818 15.868,16.818 15.606,16.554 C15.606,16.554 14.355,15.303 14.355,15.303 C14.151,15.100 13.859,15.011 13.576,15.069 C13.294,15.126 13.058,15.322 12.951,15.589 C12.200,17.439 12.691,19.585 14.170,20.928 C15.247,21.906 16.692,22.330 18.120,22.107 ZM17.736,14.341 C18.409,14.419 19.050,14.719 19.549,15.219 C20.318,15.988 20.623,17.122 20.343,18.177 C20.264,18.472 20.350,18.788 20.566,19.005 C20.566,19.005 24.995,23.434 24.995,23.434 C25.212,23.651 25.526,23.736 25.822,23.658 C26.839,23.389 27.905,23.645 28.673,24.342 C29.231,24.850 29.570,25.538 29.655,26.260 C29.655,26.260 29.625,26.230 29.625,26.230 C28.692,25.296 27.172,25.296 26.238,26.230 C25.304,27.164 25.304,28.684 26.238,29.618 C26.238,29.618 26.279,29.660 26.279,29.660 C25.601,29.585 24.953,29.285 24.449,28.780 C23.678,28.009 23.374,26.875 23.655,25.819 C23.735,25.523 23.651,25.207 23.433,24.991 C23.433,24.991 19.006,20.564 19.006,20.564 C18.844,20.400 18.623,20.312 18.398,20.312 C18.325,20.312 18.250,20.321 18.177,20.341 C17.161,20.611 16.094,20.355 15.325,19.657 C14.761,19.144 14.422,18.448 14.340,17.720 C14.340,17.720 14.390,17.770 14.390,17.770 C15.324,18.703 16.843,18.703 17.777,17.770 C18.711,16.835 18.711,15.315 17.777,14.382 " id="path-2" class="cls-4" fill-rule="evenodd"/>
  </g>
</svg>
