<svg xmlns="http://www.w3.org/2000/svg" xmlns:xlink="http://www.w3.org/1999/xlink" preserveAspectRatio="xMidYMid" width="39" height="39" viewBox="0 0 39 39">
  <defs>
    <style>

      .cls-3 {
        fill: #ffffff;
      }

      .cls-4 {
        fill: #fc793f;
      }
    </style>
  </defs>
  <g id="ик-4">
    <path d="M38.997,6.978 C38.997,6.978 38.997,17.771 38.997,17.771 C38.997,17.972 38.917,18.167 38.774,18.309 C38.774,18.309 31.294,25.789 31.294,25.789 C30.998,26.086 30.514,26.086 30.217,25.789 C29.920,25.492 29.920,25.009 30.217,24.712 C30.217,24.712 37.474,17.455 37.474,17.455 C37.474,17.455 37.474,7.294 37.474,7.294 C37.474,7.294 37.184,7.004 37.184,7.004 C37.184,7.004 35.422,8.766 35.422,8.766 C35.565,9.064 35.645,9.397 35.645,9.750 C35.645,11.010 34.621,12.035 33.360,12.035 C32.100,12.035 31.076,11.010 31.076,9.750 C31.076,8.490 32.100,7.466 33.360,7.466 C33.713,7.466 34.046,7.545 34.345,7.688 C34.345,7.688 36.106,5.926 36.106,5.926 C36.106,5.926 35.816,5.636 35.816,5.636 C35.816,5.636 25.655,5.636 25.655,5.636 C25.655,5.636 5.992,25.300 5.992,25.300 C5.762,25.531 5.635,25.836 5.635,26.163 C5.635,26.488 5.762,26.794 5.992,27.025 C5.992,27.025 16.085,37.119 16.085,37.119 C16.317,37.349 16.623,37.476 16.948,37.476 C17.273,37.476 17.581,37.349 17.811,37.119 C17.811,37.119 25.370,29.559 25.370,29.559 C25.667,29.262 26.150,29.262 26.447,29.559 C26.744,29.857 26.744,30.339 26.447,30.636 C26.447,30.636 18.887,38.196 18.887,38.196 C18.369,38.714 17.680,38.999 16.948,38.999 C16.215,38.999 15.527,38.714 15.008,38.196 C15.008,38.196 4.914,28.102 4.914,28.102 C4.397,27.584 4.112,26.895 4.112,26.163 C4.112,25.430 4.397,24.741 4.914,24.223 C4.914,24.223 9.377,19.761 9.377,19.761 C9.377,19.761 2.742,19.761 2.742,19.761 C1.229,19.761 -0.002,18.530 -0.002,17.017 C-0.002,17.017 -0.002,2.743 -0.002,2.743 C-0.002,1.230 1.229,-0.001 2.742,-0.001 C2.742,-0.001 30.865,-0.001 30.865,-0.001 C31.067,-0.001 31.260,0.079 31.402,0.223 C31.402,0.223 35.294,4.113 35.294,4.113 C35.294,4.113 36.131,4.113 36.131,4.113 C36.334,4.113 36.527,4.193 36.670,4.336 C36.670,4.336 37.184,4.849 37.184,4.849 C37.184,4.849 37.697,4.336 37.697,4.336 C37.995,4.038 38.476,4.038 38.774,4.336 C39.071,4.633 39.071,5.115 38.774,5.413 C38.774,5.413 38.260,5.926 38.260,5.926 C38.260,5.926 38.774,6.440 38.774,6.440 C38.917,6.582 38.997,6.776 38.997,6.978 ZM33.965,9.288 C33.938,9.268 33.912,9.246 33.888,9.222 C33.864,9.198 33.843,9.172 33.822,9.145 C33.694,9.047 33.534,8.988 33.360,8.988 C32.940,8.988 32.598,9.329 32.598,9.750 C32.598,10.170 32.940,10.512 33.360,10.512 C33.780,10.512 34.122,10.170 34.122,9.750 C34.122,9.576 34.062,9.416 33.965,9.288 ZM14.439,12.905 C14.439,12.485 14.096,12.143 13.677,12.143 C13.256,12.143 12.915,12.485 12.915,12.905 C12.915,13.325 13.256,13.667 13.677,13.667 C14.096,13.667 14.439,13.325 14.439,12.905 ZM30.550,1.523 C30.550,1.523 2.742,1.523 2.742,1.523 C2.069,1.523 1.522,2.070 1.522,2.743 C1.522,2.743 1.522,17.017 1.522,17.017 C1.522,17.689 2.069,18.237 2.742,18.237 C2.742,18.237 10.901,18.237 10.901,18.237 C10.901,18.237 13.966,15.171 13.966,15.171 C13.871,15.183 13.775,15.190 13.677,15.190 C12.417,15.190 11.392,14.166 11.392,12.905 C11.392,11.645 12.417,10.620 13.677,10.620 C14.937,10.620 15.963,11.645 15.963,12.905 C15.963,13.003 15.955,13.099 15.942,13.194 C15.942,13.194 24.801,4.336 24.801,4.336 C24.944,4.193 25.137,4.113 25.339,4.113 C25.339,4.113 33.139,4.113 33.139,4.113 C33.139,4.113 30.550,1.523 30.550,1.523 ZM8.425,14.657 C8.285,14.906 8.027,15.045 7.760,15.045 C7.634,15.045 7.505,15.013 7.387,14.946 C7.020,14.740 6.893,14.275 7.098,13.908 C7.098,13.908 12.011,5.206 12.011,5.206 C12.218,4.839 12.682,4.710 13.049,4.917 C13.416,5.123 13.544,5.588 13.338,5.955 C13.338,5.955 8.425,14.657 8.425,14.657 ZM7.248,9.140 C5.987,9.140 4.961,8.115 4.961,6.854 C4.961,5.594 5.987,4.569 7.248,4.569 C8.508,4.569 9.534,5.594 9.534,6.854 C9.534,8.115 8.508,9.140 7.248,9.140 ZM7.248,6.093 C6.828,6.093 6.486,6.434 6.486,6.854 C6.486,7.274 6.828,7.617 7.248,7.617 C7.667,7.617 8.009,7.274 8.009,6.854 C8.009,6.434 7.667,6.093 7.248,6.093 ZM28.332,26.912 C28.533,26.912 28.730,26.993 28.871,27.135 C29.013,27.276 29.094,27.473 29.094,27.674 C29.094,27.874 29.013,28.070 28.871,28.212 C28.730,28.354 28.533,28.435 28.332,28.435 C28.131,28.435 27.935,28.354 27.794,28.212 C27.652,28.070 27.571,27.874 27.571,27.674 C27.571,27.473 27.652,27.276 27.794,27.135 C27.935,26.993 28.131,26.912 28.332,26.912 Z" id="path-1" class="cls-3" fill-rule="evenodd"/>
    <path d="M31.256,16.924 C31.256,16.924 29.749,18.432 29.749,18.432 C29.600,18.581 29.405,18.655 29.209,18.655 C29.015,18.655 28.819,18.581 28.671,18.432 C28.671,18.432 24.362,14.123 24.362,14.123 C24.219,13.980 24.139,13.787 24.139,13.585 C24.139,13.382 24.219,13.189 24.362,13.047 C24.362,13.047 25.871,11.538 25.871,11.538 C26.167,11.240 26.651,11.240 26.947,11.538 C27.245,11.836 27.245,12.318 26.947,12.616 C26.947,12.616 25.979,13.585 25.979,13.585 C25.979,13.585 27.054,14.662 27.054,14.662 C27.054,14.662 28.024,13.693 28.024,13.693 C28.322,13.395 28.804,13.395 29.102,13.693 C29.399,13.989 29.399,14.473 29.102,14.770 C29.102,14.770 28.132,15.739 28.132,15.739 C28.132,15.739 29.209,16.817 29.209,16.817 C29.209,16.817 30.180,15.846 30.180,15.846 C30.477,15.550 30.959,15.550 31.256,15.846 C31.554,16.144 31.554,16.626 31.256,16.924 ZM26.517,19.509 C26.814,19.212 27.296,19.212 27.594,19.509 C27.892,19.807 27.892,20.289 27.594,20.587 C27.594,20.587 25.871,22.310 25.871,22.310 C25.728,22.453 25.534,22.533 25.332,22.533 C25.129,22.533 24.936,22.453 24.794,22.310 C24.794,22.310 20.485,18.001 20.485,18.001 C20.187,17.704 20.187,17.222 20.485,16.924 C20.781,16.626 21.265,16.626 21.562,16.924 C21.562,16.924 25.332,20.694 25.332,20.694 C25.332,20.694 26.517,19.509 26.517,19.509 ZM23.857,24.272 C23.665,24.647 23.206,24.796 22.832,24.605 C22.832,24.605 22.373,24.371 22.373,24.371 C22.373,24.371 20.823,25.922 20.823,25.922 C20.823,25.922 21.056,26.381 21.056,26.381 C21.246,26.756 21.097,27.214 20.722,27.405 C20.613,27.462 20.494,27.488 20.378,27.488 C20.101,27.488 19.832,27.337 19.698,27.072 C19.698,27.072 16.790,21.363 16.790,21.363 C16.640,21.069 16.696,20.712 16.930,20.479 C17.163,20.246 17.520,20.189 17.814,20.339 C17.814,20.339 23.522,23.247 23.522,23.247 C23.898,23.439 24.047,23.897 23.857,24.272 ZM19.211,22.760 C19.211,22.760 20.095,24.495 20.095,24.495 C20.095,24.495 20.946,23.644 20.946,23.644 C20.946,23.644 19.211,22.760 19.211,22.760 ZM13.914,27.488 C14.118,27.488 14.308,27.409 14.452,27.265 C14.452,27.265 14.508,27.209 14.508,27.209 C14.533,27.184 14.561,27.161 14.589,27.140 C15.486,26.377 16.838,26.418 17.683,27.265 C18.575,28.157 18.575,29.606 17.683,30.497 C17.683,30.497 16.607,31.574 16.607,31.574 C16.457,31.723 16.263,31.798 16.068,31.798 C15.874,31.798 15.678,31.723 15.530,31.574 C15.232,31.277 15.232,30.795 15.530,30.497 C15.530,30.497 16.607,29.420 16.607,29.420 C16.750,29.276 16.830,29.085 16.830,28.881 C16.830,28.678 16.750,28.486 16.607,28.343 C16.309,28.045 15.826,28.045 15.530,28.343 C15.529,28.343 15.529,28.343 15.528,28.345 C15.096,28.775 14.524,29.012 13.913,29.012 C13.304,29.012 12.729,28.775 12.298,28.343 C11.407,27.452 11.407,26.001 12.298,25.111 C12.298,25.111 13.375,24.033 13.375,24.033 C13.673,23.737 14.155,23.737 14.452,24.033 C14.750,24.331 14.750,24.813 14.452,25.111 C14.452,25.111 13.375,26.188 13.375,26.188 C13.079,26.486 13.079,26.968 13.375,27.265 C13.519,27.409 13.710,27.488 13.914,27.488 Z" id="path-2" class="cls-4" fill-rule="evenodd"/>
  </g>
</svg>
