<svg xmlns="http://www.w3.org/2000/svg" xmlns:xlink="http://www.w3.org/1999/xlink" preserveAspectRatio="xMidYMid" width="39" height="42" viewBox="0 0 39 42">
  <defs>
    <style>

      .cls-3 {
        fill: #ffffff;
      }

      .cls-4 {
        fill: #fc793f;
      }
    </style>
  </defs>
  <g id="ик-5">
    <path d="M14.970,31.498 C14.970,31.498 14.971,31.498 14.971,31.498 C14.971,31.498 2.435,31.498 2.435,31.498 C1.987,31.498 1.623,31.130 1.623,30.679 C1.623,30.679 1.623,17.390 1.623,17.390 C1.623,17.390 5.559,17.390 5.559,17.390 C5.763,18.539 6.758,19.414 7.956,19.414 C9.151,19.414 10.147,18.539 10.352,17.390 C10.352,17.390 26.832,17.390 26.832,17.390 C27.035,18.539 28.032,19.414 29.228,19.414 C30.424,19.414 31.420,18.539 31.625,17.390 C31.625,17.390 35.723,17.390 35.723,17.390 C35.723,17.390 35.723,30.679 35.723,30.679 C36.204,30.672 36.770,30.664 37.347,30.654 C37.347,30.654 37.347,9.023 37.347,9.023 C37.347,7.666 36.253,6.562 34.911,6.562 C34.911,6.562 25.330,6.562 25.330,6.562 C25.330,6.562 25.330,2.105 25.330,2.105 C25.330,0.944 24.396,-0.001 23.246,-0.001 C23.246,-0.001 14.099,-0.001 14.099,-0.001 C12.950,-0.001 12.015,0.944 12.015,2.105 C12.015,2.105 12.015,6.562 12.015,6.562 C12.015,6.562 2.435,6.562 2.435,6.562 C1.091,6.562 -0.002,7.666 -0.002,9.023 C-0.002,9.023 -0.002,30.679 -0.002,30.679 C-0.002,32.034 1.091,33.139 2.435,33.139 C2.435,33.139 15.428,33.139 15.428,33.139 C15.428,33.139 14.970,31.498 14.970,31.498 ZM8.766,16.953 C8.766,17.406 8.404,17.774 7.956,17.774 C7.507,17.774 7.143,17.406 7.143,16.953 C7.143,16.953 7.143,14.764 7.143,14.764 C7.143,14.312 7.507,13.945 7.956,13.945 C8.404,13.945 8.766,14.312 8.766,14.764 C8.766,14.764 8.766,16.953 8.766,16.953 ZM30.039,16.953 C30.039,17.406 29.675,17.774 29.228,17.774 C28.779,17.774 28.416,17.406 28.416,16.953 C28.416,16.953 28.416,14.764 28.416,14.764 C28.416,14.312 28.779,13.945 29.228,13.945 C29.675,13.945 30.039,14.312 30.039,14.764 C30.039,14.764 30.039,16.953 30.039,16.953 ZM13.638,2.105 C13.638,1.849 13.845,1.640 14.099,1.640 C14.099,1.640 23.246,1.640 23.246,1.640 C23.499,1.640 23.706,1.849 23.706,2.105 C23.706,2.105 23.706,6.562 23.706,6.562 C23.706,6.562 13.638,6.562 13.638,6.562 C13.638,6.562 13.638,2.105 13.638,2.105 ZM1.623,9.023 C1.623,8.570 1.987,8.202 2.435,8.202 C2.435,8.202 34.911,8.202 34.911,8.202 C35.358,8.202 35.723,8.570 35.723,9.023 C35.723,9.023 35.723,15.749 35.723,15.749 C35.723,15.749 31.663,15.749 31.663,15.749 C31.663,15.749 31.663,14.764 31.663,14.764 C31.663,13.408 30.570,12.304 29.228,12.304 C27.884,12.304 26.792,13.408 26.792,14.764 C26.792,14.764 26.792,15.749 26.792,15.749 C26.792,15.749 10.390,15.749 10.390,15.749 C10.390,15.749 10.390,14.764 10.390,14.764 C10.390,13.408 9.299,12.304 7.956,12.304 C6.611,12.304 5.519,13.408 5.519,14.764 C5.519,14.764 5.519,15.749 5.519,15.749 C5.519,15.749 1.623,15.749 1.623,15.749 C1.623,15.749 1.623,9.023 1.623,9.023 Z" id="path-1" class="cls-3" fill-rule="evenodd"/>
    <path d="M36.722,32.323 C36.731,32.312 36.739,32.301 36.747,32.292 C36.188,31.956 35.365,31.614 35.045,31.486 C35.001,31.494 34.957,31.498 34.911,31.498 C34.911,31.498 31.437,31.498 31.437,31.498 C32.259,30.735 32.777,29.641 32.777,28.427 C32.777,28.427 32.777,25.995 32.777,25.995 C33.507,25.367 33.971,24.433 33.971,23.391 C33.971,23.391 33.971,21.349 33.971,21.349 C33.971,20.896 33.609,20.529 33.160,20.529 C33.160,20.529 28.930,20.529 28.930,20.529 C26.499,20.529 24.522,22.526 24.522,24.981 C24.522,24.981 24.522,28.427 24.522,28.427 C24.522,29.641 25.038,30.735 25.861,31.498 C25.861,31.498 22.457,31.498 22.457,31.498 C22.457,31.498 22.387,31.561 22.387,31.561 C22.387,31.561 20.790,32.174 20.205,32.656 C19.981,32.840 19.764,33.005 19.582,33.139 C19.582,33.139 19.618,33.139 19.618,33.139 C18.801,34.035 18.300,35.230 18.300,36.541 C18.300,36.541 18.300,41.179 18.300,41.179 C18.300,41.632 18.664,41.999 19.112,41.999 C19.112,41.999 38.186,41.999 38.186,41.999 C38.635,41.999 38.998,41.632 38.998,41.179 C38.998,41.179 38.998,36.541 38.998,36.541 C38.998,34.775 38.089,33.219 36.722,32.323 ZM26.145,24.981 C26.145,23.430 27.394,22.169 28.930,22.169 C28.930,22.169 32.347,22.169 32.347,22.169 C32.347,22.169 32.347,23.391 32.347,23.391 C32.347,24.372 31.557,25.171 30.585,25.171 C30.585,25.171 26.145,25.171 26.145,25.171 C26.145,25.171 26.145,24.981 26.145,24.981 ZM19.924,40.358 C19.924,40.358 19.924,36.541 19.924,36.541 C19.924,34.896 21.091,33.522 22.633,33.219 C22.633,33.219 21.792,36.539 21.792,36.539 C21.730,36.788 21.786,37.053 21.944,37.254 C21.944,37.254 24.393,40.358 24.393,40.358 C24.393,40.358 19.924,40.358 19.924,40.358 ZM25.895,39.630 C25.895,39.630 23.467,36.551 23.467,36.551 C23.467,36.551 24.311,33.211 24.311,33.211 C24.316,33.192 24.320,33.174 24.323,33.156 C24.323,33.156 25.895,33.156 25.895,33.156 C25.895,33.156 25.895,39.630 25.895,39.630 ZM29.781,40.358 C29.781,40.358 27.519,40.358 27.519,40.358 C27.519,40.358 27.519,32.436 27.519,32.436 C27.878,32.539 28.257,32.597 28.650,32.597 C29.042,32.597 29.421,32.539 29.781,32.436 C29.781,32.436 29.781,40.358 29.781,40.358 ZM31.152,28.427 C31.152,29.821 30.030,30.956 28.649,30.956 C27.269,30.956 26.145,29.821 26.145,28.427 M26.145,28.427 C26.145,28.427 26.145,26.812 26.145,26.812 C26.145,26.812 30.585,26.812 30.585,26.812 C30.585,26.812 31.152,26.812 31.152,26.812 C31.152,26.812 31.152,28.427 31.152,28.427 M31.404,33.156 C31.404,33.156 32.964,33.156 32.964,33.156 C32.967,33.174 32.970,33.192 32.976,33.211 C32.976,33.211 33.820,36.551 33.820,36.551 C33.820,36.551 31.404,39.615 31.404,39.615 C31.404,39.615 31.404,33.156 31.404,33.156 ZM37.375,40.358 C37.375,40.358 32.893,40.358 32.893,40.358 C32.893,40.358 35.342,37.254 35.342,37.254 C35.500,37.053 35.557,36.788 35.494,36.539 C35.494,36.539 34.654,33.216 34.654,33.216 C36.201,33.515 37.375,34.892 37.375,36.541 C37.375,36.541 37.375,40.358 37.375,40.358 Z" id="path-2" class="cls-4" fill-rule="evenodd"/>
  </g>
</svg>
