<svg xmlns="http://www.w3.org/2000/svg" xmlns:xlink="http://www.w3.org/1999/xlink" preserveAspectRatio="xMidYMid" width="34" height="44" viewBox="0 0 34 44">
  <defs>
    <style>

      .cls-3 {
        fill: #ffffff;
      }

      .cls-4 {
        fill: #fc793f;
      }
    </style>
  </defs>
  <g id="ик-1">
    <path d="M33.157,43.221 C32.693,43.221 32.315,42.836 32.315,42.361 C32.315,42.361 32.315,7.734 32.315,7.734 C32.315,6.312 31.183,5.155 29.791,5.155 C29.791,5.155 25.041,5.155 25.041,5.155 C24.939,6.482 23.850,7.531 22.525,7.531 C22.060,7.531 21.683,7.146 21.683,6.672 C21.683,6.197 22.060,5.812 22.525,5.812 C22.920,5.812 23.252,5.532 23.343,5.155 C23.343,5.155 12.922,5.155 12.922,5.155 C12.821,6.482 11.731,7.531 10.406,7.531 C9.942,7.531 9.565,7.146 9.565,6.672 C9.565,6.197 9.942,5.812 10.406,5.812 C10.803,5.812 11.134,5.532 11.223,5.155 C11.223,5.155 4.207,5.155 4.207,5.155 C2.815,5.155 1.683,6.312 1.683,7.734 C1.683,7.734 1.683,22.085 1.683,22.085 C1.683,22.560 1.306,22.945 0.841,22.945 C0.376,22.945 -0.001,22.560 -0.001,22.085 C-0.001,22.085 -0.001,7.734 -0.001,7.734 C-0.001,5.364 1.887,3.436 4.207,3.436 C4.207,3.436 7.882,3.436 7.882,3.436 C7.882,3.436 7.882,2.578 7.882,2.578 C7.882,1.156 9.014,-0.001 10.406,-0.001 C11.798,-0.001 12.930,1.156 12.930,2.578 C12.930,2.578 12.930,3.436 12.930,3.436 C12.930,3.436 20.000,3.436 20.000,3.436 C20.000,3.436 20.000,2.578 20.000,2.578 C20.000,1.156 21.133,-0.001 22.526,-0.001 C23.917,-0.001 25.050,1.156 25.050,2.578 C25.050,2.578 25.050,3.436 25.050,3.436 C25.050,3.436 29.791,3.436 29.791,3.436 C32.112,3.436 33.999,5.364 33.999,7.734 C33.999,7.734 33.999,42.361 33.999,42.361 C33.999,42.836 33.622,43.221 33.157,43.221 ZM11.248,2.578 C11.248,2.104 10.871,1.719 10.406,1.719 C9.943,1.719 9.565,2.104 9.565,2.578 C9.565,2.578 9.565,3.436 9.565,3.436 C9.565,3.436 11.248,3.436 11.248,3.436 C11.248,3.436 11.248,2.578 11.248,2.578 ZM23.367,2.578 C23.367,2.104 22.989,1.719 22.526,1.719 C22.061,1.719 21.683,2.104 21.683,2.578 C21.683,2.578 21.683,3.436 21.683,3.436 C21.683,3.436 23.367,3.436 23.367,3.436 C23.367,3.436 23.367,2.578 23.367,2.578 ZM0.841,24.587 C1.062,24.587 1.279,24.679 1.435,24.839 C1.593,24.999 1.683,25.221 1.683,25.447 C1.683,25.674 1.593,25.895 1.435,26.054 C1.279,26.215 1.062,26.306 0.841,26.306 C0.618,26.306 0.402,26.215 0.245,26.054 C0.088,25.895 -0.001,25.674 -0.001,25.447 C-0.001,25.221 0.088,24.999 0.245,24.839 C0.402,24.679 0.618,24.587 0.841,24.587 ZM16.228,35.424 C16.228,35.424 16.228,38.499 16.228,38.499 C16.228,38.974 15.851,39.358 15.387,39.358 C15.387,39.358 4.544,39.358 4.544,39.358 C4.078,39.358 3.702,38.974 3.702,38.499 C3.702,38.499 3.702,35.424 3.702,35.424 C3.702,33.400 5.206,31.729 7.132,31.513 C6.866,31.032 6.713,30.478 6.713,29.887 C6.713,29.887 6.713,29.272 6.713,29.272 C6.713,27.442 8.172,25.953 9.965,25.953 C11.757,25.953 13.216,27.442 13.216,29.272 C13.216,29.272 13.216,29.887 13.216,29.887 C13.216,30.478 13.064,31.032 12.798,31.513 C14.725,31.729 16.228,33.400 16.228,35.424 ZM11.533,29.272 C11.533,28.389 10.830,27.671 9.965,27.671 C9.100,27.671 8.397,28.389 8.397,29.272 C8.397,29.272 8.397,29.887 8.397,29.887 C8.397,30.770 9.100,31.488 9.965,31.488 C10.830,31.488 11.533,30.770 11.533,29.887 C11.533,29.887 11.533,29.272 11.533,29.272 ZM14.544,35.424 C14.544,34.201 13.571,33.207 12.375,33.207 C12.375,33.207 7.555,33.207 7.555,33.207 C6.358,33.207 5.385,34.201 5.385,35.424 C5.385,35.424 5.385,37.640 5.385,37.640 C5.385,37.640 14.544,37.640 14.544,37.640 C14.544,37.640 14.544,35.424 14.544,35.424 ZM27.603,22.859 C27.603,22.859 19.552,22.859 19.552,22.859 C19.087,22.859 18.711,22.474 18.711,21.999 C18.711,21.525 19.087,21.139 19.552,21.139 C19.552,21.139 27.603,21.139 27.603,21.139 C28.068,21.139 28.445,21.525 28.445,21.999 C28.445,22.474 28.068,22.859 27.603,22.859 ZM19.552,14.608 C19.087,14.608 18.711,14.224 18.711,13.750 C18.711,13.275 19.087,12.890 19.552,12.890 C19.552,12.890 26.001,12.890 26.001,12.890 C26.466,12.890 26.842,13.275 26.842,13.750 C26.842,14.224 26.466,14.608 26.001,14.608 C26.001,14.608 19.552,14.608 19.552,14.608 ZM28.445,17.874 C28.445,18.349 28.068,18.734 27.603,18.734 C27.603,18.734 19.552,18.734 19.552,18.734 C19.087,18.734 18.711,18.349 18.711,17.874 C18.711,17.400 19.087,17.015 19.552,17.015 C19.552,17.015 27.603,17.015 27.603,17.015 C28.068,17.015 28.445,17.400 28.445,17.874 ZM0.841,27.901 C1.306,27.901 1.683,28.285 1.683,28.759 C1.683,28.759 1.683,39.703 1.683,39.703 C1.683,41.124 2.815,42.281 4.207,42.281 C4.207,42.281 27.855,42.281 27.855,42.281 C28.320,42.281 28.696,42.665 28.696,43.140 C28.696,43.614 28.320,43.999 27.855,43.999 C27.855,43.999 4.207,43.999 4.207,43.999 C1.887,43.999 -0.001,42.072 -0.001,39.703 C-0.001,39.703 -0.001,28.759 -0.001,28.759 C-0.001,28.285 0.376,27.901 0.841,27.901 Z" id="path-1" class="cls-3" fill-rule="evenodd"/>
    <path d="M27.855,35.234 C27.855,35.234 19.552,35.234 19.552,35.234 C19.087,35.234 18.711,34.848 18.711,34.374 C18.711,33.900 19.087,33.515 19.552,33.515 C19.552,33.515 27.855,33.515 27.855,33.515 C28.320,33.515 28.696,33.900 28.696,34.374 C28.696,34.848 28.320,35.234 27.855,35.234 ZM27.855,31.109 C27.634,31.109 27.417,31.016 27.260,30.856 C27.104,30.698 27.013,30.475 27.013,30.249 C27.013,30.023 27.104,29.801 27.260,29.641 C27.417,29.482 27.634,29.390 27.855,29.390 C28.076,29.390 28.294,29.482 28.451,29.641 C28.606,29.801 28.696,30.023 28.696,30.249 C28.696,30.475 28.606,30.698 28.451,30.856 C28.294,31.017 28.076,31.109 27.855,31.109 ZM24.461,31.109 C24.461,31.109 19.552,31.109 19.552,31.109 C19.087,31.109 18.711,30.724 18.711,30.249 C18.711,29.775 19.087,29.390 19.552,29.390 C19.552,29.390 24.461,29.390 24.461,29.390 C24.925,29.390 25.302,29.775 25.302,30.249 C25.302,30.724 24.925,31.109 24.461,31.109 ZM15.387,22.859 C15.387,22.859 4.544,22.859 4.544,22.859 C4.078,22.859 3.702,22.474 3.702,21.999 C3.702,21.999 3.702,18.924 3.702,18.924 C3.702,16.900 5.206,15.229 7.132,15.013 C6.866,14.532 6.713,13.978 6.713,13.387 C6.713,13.387 6.713,12.772 6.713,12.772 C6.713,10.942 8.172,9.453 9.965,9.453 C11.757,9.453 13.216,10.942 13.216,12.772 C13.216,12.772 13.216,13.387 13.216,13.387 C13.216,13.978 13.064,14.532 12.798,15.013 C14.725,15.229 16.228,16.900 16.228,18.924 C16.228,18.924 16.228,21.999 16.228,21.999 C16.228,22.474 15.851,22.859 15.387,22.859 ZM11.533,12.772 C11.533,11.889 10.830,11.171 9.965,11.171 C9.100,11.171 8.397,11.889 8.397,12.772 C8.397,12.772 8.397,13.387 8.397,13.387 C8.397,14.270 9.100,14.989 9.965,14.989 C10.830,14.989 11.533,14.270 11.533,13.387 C11.533,13.387 11.533,12.772 11.533,12.772 ZM14.544,18.924 C14.544,17.701 13.571,16.708 12.375,16.708 C12.375,16.708 7.555,16.708 7.555,16.708 C6.358,16.708 5.385,17.701 5.385,18.924 C5.385,18.924 5.385,21.139 5.385,21.139 C5.385,21.139 14.544,21.139 14.544,21.139 C14.544,21.139 14.544,18.924 14.544,18.924 ZM19.552,37.640 C19.552,37.640 27.855,37.640 27.855,37.640 C28.320,37.640 28.696,38.025 28.696,38.499 C28.696,38.974 28.320,39.358 27.855,39.358 C27.855,39.358 19.552,39.358 19.552,39.358 C19.087,39.358 18.711,38.974 18.711,38.499 C18.711,38.025 19.087,37.640 19.552,37.640 Z" id="path-2" class="cls-4" fill-rule="evenodd"/>
  </g>
</svg>
