<svg xmlns="http://www.w3.org/2000/svg" xmlns:xlink="http://www.w3.org/1999/xlink" preserveAspectRatio="xMidYMid" width="43" height="43" viewBox="0 0 43 43">
  <defs>
    <style>

      .cls-3 {
        fill: #ffffff;
      }

      .cls-4 {
        fill: #fc793f;
      }
    </style>
  </defs>
  <g id="ик-2">
    <path d="M40.478,34.601 C40.478,34.601 25.698,34.601 25.698,34.601 C25.698,34.601 25.698,35.440 25.698,35.440 C25.698,36.112 25.959,36.745 26.436,37.222 C26.911,37.697 27.545,37.960 28.217,37.960 C30.536,37.960 32.415,39.839 32.415,42.159 C32.415,42.622 32.039,42.999 31.575,42.999 C31.575,42.999 11.419,42.999 11.419,42.999 C10.955,42.999 10.579,42.622 10.579,42.159 C10.579,39.839 12.459,37.960 14.779,37.960 C16.168,37.960 17.298,36.830 17.298,35.440 C17.298,35.440 17.298,34.601 17.298,34.601 C17.298,34.601 2.518,34.601 2.518,34.601 C1.128,34.601 -0.002,33.470 -0.002,32.081 C-0.002,32.081 -0.002,2.519 -0.002,2.519 C-0.002,1.130 1.128,-0.001 2.518,-0.001 C2.518,-0.001 40.478,-0.001 40.478,-0.001 C41.867,-0.001 42.998,1.130 42.998,2.519 C42.998,2.519 42.998,32.081 42.998,32.081 C42.998,33.470 41.867,34.601 40.478,34.601 ZM14.779,39.640 C13.661,39.640 12.740,40.363 12.403,41.319 C12.403,41.319 30.593,41.319 30.593,41.319 C30.255,40.363 29.335,39.640 28.217,39.640 C28.217,39.640 14.779,39.640 14.779,39.640 ZM18.136,37.960 C18.136,37.960 24.858,37.960 24.858,37.960 C24.312,37.237 24.017,36.361 24.017,35.440 C24.017,35.440 24.017,34.601 24.017,34.601 C24.017,34.601 18.977,34.601 18.977,34.601 C18.977,34.601 18.977,35.440 18.977,35.440 C18.977,36.385 18.664,37.257 18.136,37.960 ZM41.317,2.519 C41.317,2.055 40.940,1.679 40.478,1.679 C40.478,1.679 2.518,1.679 2.518,1.679 C2.055,1.679 1.677,2.055 1.677,2.519 C1.677,2.519 1.677,26.202 1.677,26.202 C1.677,26.202 3.609,26.202 3.609,26.202 C3.609,26.202 3.609,4.198 3.609,4.198 C3.609,3.735 3.985,3.358 4.448,3.358 C4.448,3.358 38.547,3.358 38.547,3.358 C39.010,3.358 39.386,3.735 39.386,4.198 C39.386,4.198 39.386,26.202 39.386,26.202 C39.386,26.202 41.317,26.202 41.317,26.202 C41.317,26.202 41.317,2.519 41.317,2.519 ZM5.289,5.038 C5.289,5.038 5.289,26.202 5.289,26.202 C5.289,26.202 37.705,26.202 37.705,26.202 C37.705,26.202 37.705,5.038 37.705,5.038 C37.705,5.038 5.289,5.038 5.289,5.038 ZM41.317,27.882 C41.317,27.882 1.677,27.882 1.677,27.882 C1.677,27.882 1.677,32.081 1.677,32.081 C1.677,32.544 2.055,32.921 2.518,32.921 C2.518,32.921 40.478,32.921 40.478,32.921 C40.940,32.921 41.317,32.544 41.317,32.081 C41.317,32.081 41.317,27.882 41.317,27.882 ZM24.856,31.242 C24.393,31.242 24.017,30.865 24.017,30.402 C24.017,29.938 24.393,29.561 24.856,29.561 C25.319,29.561 25.698,29.938 25.698,30.402 C25.698,30.865 25.319,31.242 24.856,31.242 ZM21.498,31.242 C21.498,31.242 18.138,31.242 18.138,31.242 C17.675,31.242 17.298,30.865 17.298,30.402 C17.298,29.937 17.675,29.561 18.138,29.561 C18.138,29.561 21.498,29.561 21.498,29.561 C21.962,29.561 22.337,29.937 22.337,30.402 C22.337,30.865 21.962,31.242 21.498,31.242 Z" id="path-1" class="cls-3" fill-rule="evenodd"/>
    <path d="M34.935,18.980 C34.935,18.980 28.217,18.980 28.217,18.980 C27.752,18.980 27.376,18.604 27.376,18.140 C27.376,18.140 27.376,9.741 27.376,9.741 C27.376,9.277 27.752,8.901 28.217,8.901 C28.217,8.901 34.935,8.901 34.935,8.901 C35.399,8.901 35.774,9.277 35.774,9.741 C35.774,9.741 35.774,18.140 35.774,18.140 C35.774,18.604 35.399,18.980 34.935,18.980 ZM34.095,10.581 C34.095,10.581 29.056,10.581 29.056,10.581 C29.056,10.581 29.056,17.300 29.056,17.300 C29.056,17.300 34.095,17.300 34.095,17.300 C34.095,17.300 34.095,10.581 34.095,10.581 ZM24.856,22.339 C24.856,22.339 18.138,22.339 18.138,22.339 C17.675,22.339 17.298,21.963 17.298,21.499 C17.298,21.036 17.675,20.659 18.138,20.659 C18.138,20.659 24.856,20.659 24.856,20.659 C25.321,20.659 25.698,21.036 25.698,21.499 C25.698,21.963 25.321,22.339 24.856,22.339 ZM24.856,18.980 C24.856,18.980 18.138,18.980 18.138,18.980 C17.675,18.980 17.298,18.604 17.298,18.140 C17.298,18.140 17.298,9.741 17.298,9.741 C17.298,9.277 17.675,8.901 18.138,8.901 C18.138,8.901 24.856,8.901 24.856,8.901 C25.321,8.901 25.698,9.277 25.698,9.741 C25.698,9.741 25.698,18.140 25.698,18.140 C25.698,18.604 25.321,18.980 24.856,18.980 ZM24.017,10.581 C24.017,10.581 18.977,10.581 18.977,10.581 C18.977,10.581 18.977,17.300 18.977,17.300 C18.977,17.300 24.017,17.300 24.017,17.300 C24.017,17.300 24.017,10.581 24.017,10.581 ZM14.779,22.339 C14.779,22.339 8.060,22.339 8.060,22.339 C7.597,22.339 7.221,21.963 7.221,21.499 C7.221,21.036 7.597,20.659 8.060,20.659 C8.060,20.659 14.779,20.659 14.779,20.659 C15.243,20.659 15.619,21.036 15.619,21.499 C15.619,21.963 15.243,22.339 14.779,22.339 ZM14.779,18.980 C14.779,18.980 8.060,18.980 8.060,18.980 C7.597,18.980 7.221,18.604 7.221,18.140 C7.221,18.140 7.221,9.741 7.221,9.741 C7.221,9.277 7.597,8.901 8.060,8.901 C8.060,8.901 14.779,8.901 14.779,8.901 C15.243,8.901 15.619,9.277 15.619,9.741 C15.619,9.741 15.619,18.140 15.619,18.140 C15.619,18.604 15.243,18.980 14.779,18.980 ZM13.939,10.581 C13.939,10.581 8.901,10.581 8.901,10.581 C8.901,10.581 8.901,17.300 8.901,17.300 C8.901,17.300 13.939,17.300 13.939,17.300 C13.939,17.300 13.939,10.581 13.939,10.581 ZM28.217,20.659 C28.217,20.659 34.935,20.659 34.935,20.659 C35.399,20.659 35.774,21.036 35.774,21.499 C35.774,21.963 35.399,22.339 34.935,22.339 C34.935,22.339 28.217,22.339 28.217,22.339 C27.752,22.339 27.376,21.963 27.376,21.499 C27.376,21.036 27.752,20.659 28.217,20.659 Z" id="path-2" class="cls-4" fill-rule="evenodd"/>
  </g>
</svg>
