<svg xmlns="http://www.w3.org/2000/svg" xmlns:xlink="http://www.w3.org/1999/xlink" preserveAspectRatio="xMidYMid" width="38" height="39" viewBox="0 0 38 39">
  <defs>
    <style>
      .cls-1 {
        fill: #c8c8c8;
      }

      .cls-1, .cls-2 {
        fill-rule: evenodd;
      }

      .cls-2 {
        fill: #eb702c;
      }
    </style>
  </defs>
  <g>
    <path d="M-0.000,4.930 L-0.000,2.589 C-0.000,2.058 0.438,1.660 0.966,1.660 L8.399,1.660 L8.399,0.959 C8.399,0.429 8.827,-0.001 9.355,-0.001 C9.884,-0.001 10.313,0.429 10.313,0.959 L10.313,1.660 L25.197,1.660 L25.197,0.959 C25.197,0.429 25.626,-0.001 26.154,-0.001 C26.682,-0.001 27.111,0.429 27.111,0.959 L27.111,1.660 L34.582,1.660 C35.110,1.660 35.510,2.058 35.510,2.589 L35.510,4.930 C35.510,5.460 35.082,5.891 34.553,5.891 C34.024,5.891 33.596,5.460 33.596,4.930 L33.596,3.581 L27.111,3.581 L27.111,4.217 C27.111,4.747 26.682,5.178 26.154,5.178 C25.626,5.178 25.197,4.747 25.197,4.217 L25.197,3.581 L10.313,3.581 L10.313,4.217 C10.313,4.747 9.884,5.178 9.355,5.178 C8.827,5.178 8.399,4.747 8.399,4.217 L8.399,3.581 L1.913,3.581 L1.913,4.930 C1.913,5.460 1.485,5.891 0.957,5.891 C0.428,5.891 -0.000,5.460 -0.000,4.930 L-0.000,4.930 ZM20.466,24.710 C20.466,25.240 20.038,25.670 19.510,25.670 L18.712,25.670 L18.712,32.728 C18.712,33.258 18.293,33.685 17.764,33.685 C17.732,33.685 17.709,33.679 17.678,33.676 C17.647,33.679 17.615,33.673 17.583,33.673 L0.966,33.673 C0.438,33.673 -0.000,33.258 -0.000,32.728 L-0.000,8.575 C-0.000,8.045 0.438,7.636 0.966,7.636 L34.582,7.636 C35.110,7.636 35.510,8.045 35.510,8.575 L35.510,18.989 C35.510,19.519 35.082,19.949 34.553,19.949 C34.024,19.949 33.596,19.519 33.596,18.989 L33.596,17.560 L27.111,17.560 L27.111,17.642 C27.111,18.173 26.682,18.603 26.154,18.603 C25.626,18.603 25.197,18.173 25.197,17.642 L25.197,17.560 L18.712,17.560 L18.712,23.749 L19.510,23.749 C20.038,23.749 20.466,24.179 20.466,24.710 L20.466,24.710 ZM8.399,25.670 L1.913,25.670 L1.913,31.752 L8.399,31.752 L8.399,25.670 ZM8.399,17.560 L1.913,17.560 L1.913,23.749 L8.399,23.749 L8.399,17.560 ZM16.798,25.670 L10.313,25.670 L10.313,31.752 L16.798,31.752 L16.798,25.670 ZM16.798,17.560 L10.313,17.560 L10.313,23.749 L16.798,23.749 L16.798,17.560 ZM18.712,11.655 L18.712,15.639 L25.197,15.639 L25.197,11.655 C25.197,11.125 25.626,10.695 26.154,10.695 C26.682,10.695 27.111,11.125 27.111,11.655 L27.111,15.639 L33.596,15.639 L33.596,9.556 L1.913,9.556 L1.913,15.639 L8.399,15.639 L8.399,11.655 C8.399,11.125 8.827,10.695 9.355,10.695 C9.884,10.695 10.313,11.125 10.313,11.655 L10.313,15.639 L16.798,15.639 L16.798,11.655 C16.798,11.125 17.226,10.695 17.755,10.695 C18.284,10.695 18.712,11.125 18.712,11.655 L18.712,11.655 Z" class="cls-1"/>
    <path d="M32.385,22.212 C33.181,22.511 33.921,22.925 34.587,23.434 L35.059,22.959 C35.433,22.584 36.039,22.584 36.412,22.959 C36.786,23.334 36.786,23.942 36.412,24.318 L35.972,24.759 C37.237,26.266 38.000,28.211 38.000,30.332 L38.000,30.332 C38.000,35.111 34.125,38.999 29.363,38.999 C24.602,38.999 20.728,35.111 20.728,30.331 C20.728,26.618 23.066,23.441 26.342,22.208 M29.363,23.585 C25.657,23.585 22.641,26.612 22.641,30.332 C22.641,34.053 25.657,37.079 29.363,37.079 C33.070,37.079 36.085,34.053 36.085,30.332 L36.085,30.332 C36.085,26.612 33.070,23.585 29.363,23.585 M30.658,27.960 L30.300,28.309 L30.300,26.823 C30.300,26.292 29.872,25.863 29.344,25.863 C28.815,25.863 28.387,26.292 28.387,26.823 L28.387,30.627 C28.387,30.758 28.423,30.882 28.470,30.996 C28.516,31.109 28.591,31.215 28.682,31.307 C28.776,31.401 28.886,31.471 29.002,31.518 C29.002,31.518 29.004,31.518 29.004,31.518 C29.004,31.518 29.005,31.494 29.006,31.494 C29.107,31.535 29.217,31.539 29.331,31.539 L29.333,31.539 C29.343,31.539 29.354,31.540 29.363,31.540 C29.374,31.540 29.384,31.539 29.394,31.539 L29.396,31.539 C29.512,31.539 29.623,31.534 29.726,31.492 C29.840,31.445 29.947,31.388 30.041,31.294 L32.022,29.311 C32.395,28.936 32.390,28.331 32.016,27.956 C31.643,27.581 31.032,27.584 30.658,27.960 L30.658,27.960 Z" class="cls-2"/>
  </g>
</svg>
