<svg xmlns="http://www.w3.org/2000/svg" xmlns:xlink="http://www.w3.org/1999/xlink" preserveAspectRatio="xMidYMid" width="41" height="41.03" viewBox="0 0 41 41.03">
  <defs>
    <style>
      .cls-1 {
        fill: #c8c8c8;
      }

      .cls-1, .cls-2 {
        fill-rule: evenodd;
      }

      .cls-2 {
        fill: #eb702c;
      }
    </style>
  </defs>
  <g>
    <path d="M23.233,34.874 C22.856,34.874 22.550,34.568 22.550,34.190 C22.550,33.813 22.856,33.506 23.233,33.506 L24.600,33.506 C24.977,33.506 25.283,33.813 25.283,34.190 C25.283,34.568 24.977,34.874 24.600,34.874 L23.233,34.874 ZM36.900,33.506 C37.277,33.506 37.583,33.813 37.583,34.190 C37.583,34.568 37.277,34.874 36.900,34.874 L35.533,34.874 C35.156,34.874 34.850,34.568 34.850,34.190 C34.850,33.813 35.156,33.506 35.533,33.506 L36.900,33.506 ZM40.316,41.030 L19.817,41.030 C19.439,41.030 19.133,40.723 19.133,40.345 L19.133,28.035 C19.133,27.657 19.439,27.351 19.817,27.351 L31.433,27.351 C31.810,27.351 32.116,27.657 32.116,28.035 C32.116,28.413 31.810,28.719 31.433,28.719 L23.855,28.719 C23.563,30.438 22.217,31.785 20.500,32.077 L20.500,36.303 C22.217,36.596 23.563,37.943 23.855,39.662 L36.278,39.662 C36.570,37.943 37.915,36.596 39.633,36.303 L39.633,32.077 C37.915,31.785 36.570,30.438 36.278,28.719 L34.167,28.719 C33.789,28.719 33.483,28.413 33.483,28.035 C33.483,27.657 33.789,27.351 34.167,27.351 L40.316,27.351 C40.694,27.351 41.000,27.657 41.000,28.035 L41.000,40.345 C41.000,40.723 40.694,41.030 40.316,41.030 ZM22.461,28.719 L20.500,28.719 L20.500,30.682 C21.462,30.433 22.212,29.681 22.461,28.719 ZM20.500,37.699 L20.500,39.662 L22.461,39.662 C22.212,38.699 21.462,37.948 20.500,37.699 ZM39.633,28.719 L37.672,28.719 C37.921,29.681 38.672,30.433 39.633,30.682 L39.633,28.719 ZM39.633,37.699 C38.672,37.948 37.921,38.699 37.672,39.662 L39.633,39.662 L39.633,37.699 ZM30.067,36.242 C30.444,36.242 30.750,36.548 30.750,36.926 C30.750,37.304 30.444,37.610 30.067,37.610 C28.180,37.610 26.650,36.079 26.650,34.190 C26.650,32.302 28.180,30.771 30.067,30.771 C31.953,30.771 33.483,32.302 33.483,34.190 C33.483,34.568 33.177,34.874 32.800,34.874 C32.422,34.874 32.116,34.568 32.116,34.190 C32.116,33.057 31.199,32.138 30.067,32.138 C28.934,32.138 28.016,33.057 28.016,34.190 C28.016,35.323 28.934,36.242 30.067,36.242 ZM28.016,24.615 C28.394,24.615 28.700,24.922 28.700,25.300 C28.700,25.677 28.394,25.983 28.016,25.983 L0.683,25.983 C0.306,25.983 -0.000,25.677 -0.000,25.300 L-0.000,22.564 C-0.000,22.186 0.306,21.880 0.683,21.880 L2.733,21.880 L2.733,19.828 C2.733,19.450 3.039,19.144 3.416,19.144 L8.200,19.144 L8.200,9.569 L6.833,9.569 L6.833,17.093 C6.833,17.470 6.527,17.776 6.150,17.776 C5.772,17.776 5.467,17.470 5.467,17.093 L5.467,9.569 L3.416,9.569 C3.122,9.569 2.861,9.381 2.768,9.102 C2.675,8.822 2.771,8.515 3.006,8.338 L13.940,0.131 C14.183,-0.052 14.517,-0.052 14.760,0.131 L25.693,8.338 C25.928,8.515 26.025,8.822 25.931,9.102 C25.838,9.381 25.577,9.569 25.283,9.569 L20.500,9.569 L20.500,19.144 L21.866,19.144 L21.866,11.621 C21.866,11.244 22.172,10.937 22.550,10.937 C22.927,10.937 23.233,11.244 23.233,11.621 L23.233,19.144 L25.283,19.144 C25.660,19.144 25.966,19.450 25.966,19.828 L25.966,21.880 L28.016,21.880 C28.394,21.880 28.700,22.186 28.700,22.564 C28.700,22.942 28.394,23.248 28.016,23.248 L1.367,23.248 L1.367,24.615 L28.016,24.615 ZM23.233,8.201 L14.350,1.533 L5.467,8.201 L23.233,8.201 ZM9.566,9.569 L9.566,19.144 L12.300,19.144 L12.300,9.569 L9.566,9.569 ZM13.666,9.569 L13.666,19.144 L15.033,19.144 L15.033,9.569 L13.666,9.569 ZM16.400,9.569 L16.400,19.144 L19.133,19.144 L19.133,9.569 L16.400,9.569 ZM4.100,21.880 L24.600,21.880 L24.600,20.512 L4.100,20.512 L4.100,21.880 ZM14.350,3.414 C15.482,3.414 16.400,4.332 16.400,5.466 C16.400,6.599 15.482,7.517 14.350,7.517 C13.218,7.517 12.300,6.599 12.300,5.466 C12.300,4.332 13.218,3.414 14.350,3.414 ZM14.350,6.149 C14.727,6.149 15.033,5.843 15.033,5.466 C15.033,5.088 14.727,4.782 14.350,4.782 C13.972,4.782 13.666,5.088 13.666,5.466 C13.666,5.843 13.972,6.149 14.350,6.149 Z" class="cls-1"/>
    <path d="M37.583,24.615 C37.206,24.615 36.900,24.309 36.900,23.931 L36.900,15.724 C36.900,14.591 35.982,13.673 34.850,13.673 L30.067,13.673 C29.710,13.674 29.412,13.400 29.383,13.044 L27.743,14.357 L29.383,15.670 C29.412,15.314 29.710,15.040 30.067,15.041 L34.850,15.041 C35.227,15.041 35.533,15.347 35.533,15.724 L35.533,23.931 C35.533,24.309 35.227,24.615 34.850,24.615 C34.472,24.615 34.167,24.309 34.167,23.931 L34.167,16.408 L30.750,16.408 L30.750,17.093 C30.743,17.364 30.577,17.605 30.326,17.708 C30.100,17.806 29.839,17.774 29.643,17.626 L26.226,14.890 L26.260,13.823 L29.677,11.088 C29.873,10.939 30.134,10.907 30.360,11.005 C30.598,11.119 30.749,11.358 30.750,11.621 L30.750,12.305 L34.850,12.305 C36.737,12.305 38.266,13.836 38.266,15.724 L38.266,23.931 C38.266,24.309 37.961,24.615 37.583,24.615 ZM12.724,37.459 C12.603,37.556 12.454,37.609 12.300,37.610 C12.198,37.612 12.097,37.588 12.006,37.541 C11.769,37.428 11.617,37.189 11.616,36.926 L11.616,36.242 L7.516,36.242 C5.630,36.242 4.100,34.711 4.100,32.823 L4.100,28.035 C4.100,27.657 4.406,27.351 4.783,27.351 C5.161,27.351 5.467,27.657 5.467,28.035 L5.467,32.823 C5.467,33.955 6.384,34.874 7.516,34.874 L12.300,34.874 C12.657,34.873 12.954,35.147 12.983,35.503 L14.623,34.190 L12.983,32.877 C12.954,33.233 12.657,33.507 12.300,33.506 L7.516,33.506 C7.139,33.506 6.833,33.200 6.833,32.823 L6.833,28.035 C6.833,27.657 7.139,27.351 7.516,27.351 C7.894,27.351 8.200,27.657 8.200,28.035 L8.200,32.138 L11.616,32.138 L11.616,31.455 C11.617,31.192 11.769,30.952 12.006,30.839 C12.241,30.727 12.519,30.759 12.724,30.921 L16.140,33.657 C16.302,33.787 16.396,33.983 16.396,34.190 C16.396,34.398 16.302,34.594 16.140,34.723 L12.724,37.459 Z" class="cls-2"/>
  </g>
</svg>
