<svg xmlns="http://www.w3.org/2000/svg" xmlns:xlink="http://www.w3.org/1999/xlink" preserveAspectRatio="xMidYMid" width="34" height="43" viewBox="0 0 34 43">
  <defs>
    <style>
      .cls-1 {
        fill: #c8c8c8;
      }

      .cls-1, .cls-2 {
        fill-rule: evenodd;
      }

      .cls-2 {
        fill: #eb702c;
      }
    </style>
  </defs>
  <g>
    <path d="M33.783,13.074 L19.216,27.737 L19.216,31.878 C19.216,32.288 18.885,32.620 18.477,32.620 L15.483,32.620 C15.330,34.414 14.692,36.133 13.639,37.593 C14.389,39.032 14.781,40.633 14.782,42.257 C14.782,42.667 14.451,42.999 14.043,42.999 C13.634,42.999 13.304,42.667 13.304,42.257 C13.310,40.041 12.449,37.910 10.905,36.324 L10.562,35.977 C10.424,35.839 10.347,35.651 10.347,35.455 L10.347,28.926 C10.347,28.107 9.686,27.443 8.869,27.443 C8.053,27.443 7.391,28.107 7.391,28.926 L7.391,37.691 C7.391,38.101 7.060,38.433 6.652,38.433 C6.243,38.433 5.912,38.101 5.912,37.691 L5.912,32.620 L2.956,32.620 L2.956,33.712 C2.950,36.646 3.935,39.495 5.751,41.794 C6.006,42.114 5.954,42.581 5.635,42.836 C5.317,43.093 4.852,43.041 4.596,42.721 C2.571,40.158 1.472,36.982 1.478,33.712 L1.478,32.620 L0.739,32.620 C0.331,32.620 -0.000,32.288 -0.000,31.878 L-0.000,0.741 C-0.000,0.331 0.331,-0.000 0.739,-0.000 L18.477,-0.000 C18.885,-0.000 19.216,0.331 19.216,0.741 L19.216,3.410 L21.651,0.957 C21.940,0.668 22.407,0.668 22.696,0.957 L33.783,12.025 C33.783,12.025 33.783,12.025 33.783,12.025 C34.072,12.315 34.072,12.784 33.783,13.074 ZM11.825,35.149 L11.953,35.278 C12.247,35.579 12.520,35.900 12.771,36.238 C13.449,35.141 13.868,33.904 13.995,32.620 L11.825,32.620 L11.825,35.149 ZM17.738,1.482 L1.478,1.482 L1.478,31.137 L5.912,31.137 L5.912,29.655 L3.695,29.655 C3.287,29.655 2.956,29.322 2.956,28.913 L2.956,25.206 C2.956,24.796 3.287,24.465 3.695,24.465 C4.103,24.465 4.435,24.796 4.435,25.206 L4.435,28.171 L6.020,28.171 C6.352,26.846 7.548,25.923 8.910,25.937 C10.538,25.955 11.843,27.293 11.825,28.926 L11.825,31.137 L17.738,31.137 L17.738,1.482 ZM22.173,2.530 L19.216,5.509 L19.216,7.848 L21.650,5.406 C21.939,5.117 22.407,5.117 22.696,5.406 L24.174,6.889 C24.451,7.176 24.451,7.632 24.174,7.919 C23.890,8.214 23.422,8.222 23.129,7.938 L22.173,6.979 L19.216,9.944 L19.216,21.192 L27.780,12.603 L26.824,11.644 C26.547,11.357 26.547,10.902 26.824,10.614 C27.108,10.320 27.575,10.311 27.869,10.596 L29.348,12.079 C29.636,12.368 29.636,12.838 29.348,13.127 L19.216,23.289 L19.216,25.636 L32.214,12.552 L22.173,2.530 ZM14.043,28.171 L14.782,28.171 L14.782,25.206 C14.782,24.796 15.113,24.465 15.521,24.465 C15.929,24.465 16.260,24.796 16.260,25.206 L16.260,28.913 C16.260,29.322 15.929,29.655 15.521,29.655 L14.043,29.655 C13.634,29.655 13.304,29.322 13.304,28.913 C13.304,28.504 13.634,28.171 14.043,28.171 Z" class="cls-1"/>
    <path d="M15.521,8.155 C15.113,8.155 14.782,7.823 14.782,7.414 L14.782,4.448 L14.043,4.448 C13.634,4.448 13.304,4.116 13.304,3.706 C13.304,3.297 13.634,2.965 14.043,2.965 L15.521,2.965 C15.929,2.965 16.260,3.297 16.260,3.706 L16.260,7.414 C16.260,7.823 15.929,8.155 15.521,8.155 ZM16.260,15.568 C16.260,19.254 13.282,22.241 9.608,22.241 C5.936,22.236 2.960,19.252 2.956,15.568 C2.956,11.883 5.934,8.896 9.608,8.896 C13.282,8.896 16.260,11.883 16.260,15.568 ZM9.608,20.758 C10.690,20.758 11.744,20.415 12.621,19.779 C11.399,19.366 10.417,18.438 9.932,17.240 C9.192,18.729 7.545,19.534 5.919,19.201 C6.890,20.197 8.220,20.758 9.608,20.758 ZM4.435,15.568 C4.435,16.796 5.427,17.792 6.652,17.792 C7.876,17.792 8.869,16.796 8.869,15.568 C8.869,14.340 7.876,13.344 6.652,13.344 C5.427,13.344 4.435,14.340 4.435,15.568 ZM9.608,10.379 C8.220,10.379 6.890,10.940 5.919,11.936 C7.545,11.603 9.192,12.407 9.932,13.897 C10.417,12.698 11.399,11.771 12.621,11.357 C11.744,10.722 10.690,10.379 9.608,10.379 ZM13.861,12.621 C12.363,12.703 11.166,13.904 11.084,15.406 C10.994,17.034 12.238,18.427 13.861,18.516 C14.461,17.651 14.783,16.622 14.782,15.568 C14.783,14.514 14.461,13.485 13.861,12.621 ZM5.173,4.448 L4.435,4.448 L4.435,7.414 C4.435,7.823 4.103,8.155 3.695,8.155 C3.287,8.155 2.956,7.823 2.956,7.414 L2.956,3.706 C2.956,3.297 3.287,2.965 3.695,2.965 L5.173,2.965 C5.582,2.965 5.912,3.297 5.912,3.706 C5.912,4.116 5.582,4.448 5.173,4.448 Z" class="cls-2"/>
  </g>
</svg>
