<svg xmlns="http://www.w3.org/2000/svg" xmlns:xlink="http://www.w3.org/1999/xlink" preserveAspectRatio="xMidYMid" width="33" height="36" viewBox="0 0 33 36">
  <defs>
    <style>

      .cls-2 {
        fill: #ee6e2d;
      }
    </style>
  </defs>
  <path d="M30.301,36.000 C30.301,36.000 10.107,36.000 10.107,36.000 C8.619,36.000 7.408,34.758 7.408,33.231 C7.408,33.231 7.408,27.000 7.408,27.000 C7.408,27.000 2.019,27.000 2.019,27.000 C0.905,27.000 -0.000,26.069 -0.000,24.925 C-0.000,24.925 -0.000,14.536 -0.000,14.536 C-0.000,13.392 0.905,12.461 2.019,12.461 C2.019,12.461 7.408,12.461 7.408,12.461 C7.408,12.461 7.408,2.773 7.408,2.773 C7.408,1.244 8.619,-0.000 10.107,-0.000 C10.107,-0.000 23.404,-0.000 23.404,-0.000 C23.587,-0.000 23.763,0.076 23.890,0.212 C23.890,0.212 32.812,9.742 32.812,9.742 C32.932,9.871 33.000,10.043 33.000,10.222 C33.000,10.222 33.000,33.233 33.000,33.233 C33.000,34.758 31.789,36.000 30.301,36.000 ZM2.019,13.846 C1.648,13.846 1.347,14.156 1.347,14.536 C1.347,14.536 1.347,24.925 1.347,24.925 C1.347,25.305 1.648,25.615 2.019,25.615 C2.019,25.615 20.205,25.615 20.205,25.615 C20.576,25.615 20.877,25.305 20.877,24.925 C20.877,24.925 20.877,14.536 20.877,14.536 C20.877,14.156 20.576,13.846 20.205,13.846 C20.205,13.846 2.019,13.846 2.019,13.846 ZM23.571,1.869 C23.571,1.869 23.571,9.692 23.571,9.692 C23.571,9.692 30.895,9.692 30.895,9.692 C30.895,9.692 23.571,1.869 23.571,1.869 ZM31.653,11.077 C31.653,11.077 22.898,11.077 22.898,11.077 C22.526,11.077 22.224,10.766 22.224,10.384 C22.224,10.384 22.224,1.384 22.224,1.384 C22.224,1.384 10.107,1.384 10.107,1.384 C9.361,1.384 8.755,2.007 8.755,2.773 C8.755,2.773 8.755,12.461 8.755,12.461 C8.755,12.461 20.205,12.461 20.205,12.461 C21.319,12.461 22.224,13.392 22.224,14.536 C22.224,14.536 22.224,24.925 22.224,24.925 C22.224,26.069 21.319,27.000 20.205,27.000 C20.205,27.000 8.755,27.000 8.755,27.000 C8.755,27.000 8.755,33.231 8.755,33.231 C8.755,33.994 9.361,34.615 10.107,34.615 C10.107,34.615 30.301,34.615 30.301,34.615 C31.046,34.615 31.653,33.995 31.653,33.233 C31.653,33.233 31.653,11.077 31.653,11.077 ZM16.358,19.312 C16.358,19.312 18.773,19.312 18.773,19.312 C18.773,19.312 18.773,20.319 18.773,20.319 C18.773,20.319 16.358,20.319 16.358,20.319 C16.358,20.319 16.358,22.846 16.358,22.846 C16.358,22.846 15.190,22.846 15.190,22.846 C15.190,22.846 15.190,16.899 15.190,16.899 C15.190,16.899 19.156,16.899 19.156,16.899 C19.156,16.899 19.156,17.905 19.156,17.905 C19.156,17.905 16.358,17.905 16.358,17.905 C16.358,17.905 16.358,19.312 16.358,19.312 ZM13.394,22.245 C13.192,22.448 12.918,22.606 12.573,22.720 C12.316,22.804 11.971,22.846 11.540,22.846 C11.540,22.846 9.341,22.846 9.341,22.846 C9.341,22.846 9.341,16.899 9.341,16.899 C9.341,16.899 11.476,16.899 11.476,16.899 C11.958,16.899 12.325,16.937 12.577,17.012 C12.917,17.115 13.207,17.298 13.449,17.560 C13.691,17.822 13.876,18.144 14.002,18.524 C14.128,18.904 14.191,19.372 14.191,19.929 C14.191,20.419 14.132,20.840 14.014,21.195 C13.869,21.627 13.662,21.978 13.394,22.245 ZM12.865,18.818 C12.787,18.572 12.676,18.380 12.534,18.242 C12.392,18.104 12.212,18.011 11.993,17.962 C11.830,17.924 11.511,17.905 11.034,17.905 C11.034,17.905 10.510,17.905 10.510,17.905 C10.510,17.905 10.510,21.844 10.510,21.844 C10.510,21.844 11.382,21.844 11.382,21.844 C11.708,21.844 11.943,21.825 12.088,21.787 C12.277,21.738 12.435,21.656 12.560,21.539 C12.685,21.423 12.787,21.232 12.865,20.965 C12.944,20.699 12.984,20.336 12.984,19.877 C12.984,19.417 12.944,19.064 12.865,18.818 ZM7.702,20.235 C7.503,20.377 7.301,20.471 7.096,20.517 C6.817,20.574 6.414,20.602 5.885,20.602 C5.885,20.602 5.123,20.602 5.123,20.602 C5.123,20.602 5.123,22.846 5.123,22.846 C5.123,22.846 3.955,22.846 3.955,22.846 C3.955,22.846 3.955,16.899 3.955,16.899 C3.955,16.899 5.830,16.899 5.830,16.899 C6.540,16.899 7.003,16.928 7.219,16.988 C7.550,17.077 7.828,17.271 8.051,17.570 C8.275,17.869 8.387,18.255 8.387,18.728 C8.387,19.094 8.322,19.400 8.193,19.649 C8.064,19.898 7.901,20.093 7.702,20.235 ZM6.997,18.209 C6.874,18.068 6.717,17.981 6.528,17.946 C6.389,17.918 6.108,17.905 5.687,17.905 C5.687,17.905 5.123,17.905 5.123,17.905 C5.123,17.905 5.123,19.593 5.123,19.593 C5.123,19.593 5.762,19.593 5.762,19.593 C6.223,19.593 6.531,19.561 6.686,19.499 C6.841,19.437 6.963,19.340 7.051,19.207 C7.139,19.074 7.183,18.920 7.183,18.744 C7.183,18.528 7.121,18.350 6.997,18.209 Z" id="path-1" class="cls-2" fill-rule="evenodd"/>
</svg>
