<svg xmlns="http://www.w3.org/2000/svg" xmlns:xlink="http://www.w3.org/1999/xlink" preserveAspectRatio="xMidYMid" width="39" height="39" viewBox="0 0 39 39">
  <defs>
    <style>
      .cls-1 {
        fill: #eb702c;
      }

      .cls-1, .cls-2 {
        fill-rule: evenodd;
      }

      .cls-2 {
        fill: #c5c5c5;
      }
    </style>
  </defs>
  <g>
    <path d="M35.101,18.848 C34.024,18.848 33.151,17.975 33.151,16.897 C33.151,15.821 34.024,14.947 35.101,14.947 C36.178,14.947 37.051,15.821 37.051,16.897 C37.051,17.975 36.178,18.848 35.101,18.848 ZM35.101,16.248 C34.742,16.248 34.451,16.539 34.451,16.897 C34.451,17.257 34.742,17.548 35.101,17.548 C35.460,17.548 35.751,17.257 35.751,16.897 C35.751,16.539 35.460,16.248 35.101,16.248 ZM35.751,11.698 C35.392,11.698 35.101,11.407 35.101,11.048 C35.101,10.689 35.392,10.398 35.751,10.398 C36.110,10.398 36.401,10.689 36.401,11.048 C36.401,11.407 36.110,11.698 35.751,11.698 ZM33.151,5.848 C32.792,5.848 32.501,5.557 32.501,5.197 C32.501,4.839 32.792,4.548 33.151,4.548 C33.510,4.548 33.801,4.839 33.801,5.197 C33.801,5.557 33.510,5.848 33.151,5.848 ZM29.901,11.698 C29.542,11.698 29.251,11.407 29.251,11.048 C29.251,10.689 29.542,10.398 29.901,10.398 C30.260,10.398 30.551,10.689 30.551,11.048 C30.551,11.407 30.260,11.698 29.901,11.698 ZM15.601,31.848 C14.523,31.848 13.650,30.975 13.650,29.899 C13.650,28.821 14.523,27.949 15.601,27.949 C16.677,27.949 17.550,28.821 17.550,29.899 C17.550,30.975 16.677,31.848 15.601,31.848 ZM15.601,29.248 C15.241,29.248 14.950,29.539 14.950,29.899 C14.950,30.257 15.241,30.548 15.601,30.548 C15.959,30.548 16.250,30.257 16.250,29.899 C16.250,29.539 15.959,29.248 15.601,29.248 ZM13.650,24.048 C13.291,24.048 13.000,23.758 13.000,23.398 C13.000,23.039 13.291,22.749 13.650,22.749 C14.009,22.749 14.300,23.039 14.300,23.398 C14.300,23.758 14.009,24.048 13.650,24.048 ZM11.700,27.298 C11.341,27.298 11.050,27.007 11.050,26.648 C11.050,26.289 11.341,25.999 11.700,25.999 C12.059,25.999 12.350,26.289 12.350,26.648 C12.350,27.007 12.059,27.298 11.700,27.298 Z" class="cls-1"/>
    <path d="M37.701,38.999 L16.900,38.999 C16.182,38.999 15.601,38.417 15.601,37.699 L15.601,36.398 C15.601,35.680 16.182,35.099 16.900,35.099 L19.501,35.099 L19.501,33.798 C19.501,33.081 20.083,32.498 20.801,32.498 L22.375,32.498 C22.013,32.249 21.674,31.968 21.364,31.656 C20.175,30.493 19.504,28.900 19.501,27.237 C19.584,25.737 20.160,24.308 21.139,23.170 C21.595,22.594 21.943,21.942 22.167,21.242 C22.279,20.821 22.344,20.388 22.362,19.953 C22.378,19.754 22.394,19.553 22.417,19.350 C22.442,19.121 22.588,18.922 22.799,18.828 C23.010,18.735 23.254,18.760 23.442,18.895 C24.158,19.548 24.615,20.438 24.727,21.401 C24.976,20.909 25.091,20.362 25.062,19.812 C24.967,19.123 24.708,18.465 24.308,17.896 C24.088,17.571 23.848,17.259 23.590,16.961 C23.551,16.916 23.496,16.844 23.431,16.759 C23.330,16.620 23.222,16.486 23.106,16.359 C22.803,16.227 22.647,15.888 22.744,15.572 C22.841,15.256 23.160,15.063 23.485,15.124 C25.906,15.680 28.101,16.957 29.782,18.785 C29.926,18.949 30.061,19.121 30.187,19.300 C31.475,21.151 31.505,23.458 31.133,25.465 C31.355,25.199 31.537,24.902 31.671,24.584 C31.768,24.348 31.852,24.108 31.921,23.864 C31.958,23.736 31.991,23.611 32.023,23.481 C32.029,23.458 32.041,23.417 32.058,23.366 C32.068,23.333 32.084,23.289 32.095,23.249 C32.098,22.971 32.278,22.726 32.542,22.639 C32.807,22.552 33.098,22.643 33.265,22.866 C33.942,23.778 34.382,24.841 34.547,25.965 C34.890,28.318 33.648,30.861 31.373,32.498 L33.801,32.498 C34.519,32.498 35.101,33.081 35.101,33.798 L35.101,35.099 L37.701,35.099 C38.419,35.099 39.001,35.680 39.001,36.398 L39.001,37.699 C39.001,38.417 38.419,38.999 37.701,38.999 ZM33.259,26.154 C33.197,25.732 33.087,25.319 32.930,24.922 C32.910,24.979 32.888,25.033 32.865,25.088 C32.371,26.232 31.471,27.154 30.339,27.676 C30.105,27.793 29.824,27.759 29.625,27.588 C29.426,27.418 29.349,27.145 29.429,26.896 C30.059,24.882 30.515,22.058 29.113,20.044 C29.016,19.906 28.912,19.772 28.801,19.646 C27.838,18.583 26.667,17.730 25.360,17.140 L25.382,17.172 C25.905,17.919 26.236,18.781 26.349,19.685 C26.388,20.635 26.160,21.578 25.693,22.407 C25.464,22.924 25.201,23.427 24.905,23.911 C24.902,23.917 24.873,23.961 24.869,23.967 C24.709,24.203 24.414,24.308 24.140,24.223 C23.868,24.140 23.681,23.888 23.681,23.603 C23.676,23.101 23.627,22.601 23.534,22.109 C23.510,21.973 23.475,21.773 23.425,21.549 C23.418,21.572 23.411,21.597 23.404,21.619 C23.135,22.465 22.716,23.257 22.166,23.955 C21.364,24.875 20.885,26.030 20.801,27.247 C20.805,28.564 21.340,29.824 22.283,30.744 C22.740,31.198 23.266,31.576 23.844,31.861 C23.718,31.457 23.654,31.037 23.655,30.614 C23.621,27.442 26.555,24.982 26.681,24.879 C26.926,24.678 27.281,24.682 27.520,24.891 C27.759,25.099 27.813,25.449 27.648,25.720 C27.412,26.104 27.636,27.292 28.871,28.621 C29.634,29.529 29.999,30.706 29.883,31.887 C30.088,31.788 30.285,31.675 30.474,31.549 C31.972,30.519 33.600,28.494 33.259,26.154 ZM24.956,30.597 C24.973,32.174 25.895,32.442 26.258,32.488 C26.321,32.490 26.381,32.498 26.446,32.498 C27.146,32.519 27.846,32.466 28.534,32.340 C28.643,31.588 28.681,30.319 27.920,29.499 C27.238,28.799 26.724,27.956 26.414,27.029 C25.542,28.021 25.028,29.277 24.956,30.597 ZM33.801,33.798 L20.801,33.798 L20.801,35.099 L33.801,35.099 L33.801,33.798 ZM37.701,36.398 L16.900,36.398 L16.900,37.699 L37.701,37.699 L37.701,36.398 ZM19.594,20.148 C19.086,20.656 18.264,20.656 17.756,20.148 L15.429,17.830 C12.851,20.006 9.165,20.277 6.296,18.502 C3.427,16.728 2.024,13.309 2.819,10.030 C3.017,9.119 3.402,8.259 3.949,7.504 C4.022,7.412 4.097,7.324 4.172,7.233 C4.302,7.077 4.427,6.923 4.537,6.771 C3.544,6.500 2.600,6.071 1.743,5.500 C1.321,5.223 0.927,4.956 0.559,4.703 C0.210,4.461 0.001,4.063 -0.000,3.637 L-0.000,2.042 C0.000,1.554 0.273,1.109 0.706,0.886 C1.140,0.663 1.662,0.703 2.058,0.986 C2.447,1.269 2.860,1.553 3.282,1.837 C3.110,1.479 3.115,1.061 3.294,0.707 C3.516,0.270 3.965,-0.004 4.454,-0.003 L6.058,-0.003 C6.491,-0.004 6.897,0.210 7.139,0.570 C7.624,1.275 8.026,2.034 8.339,2.831 C8.607,2.715 8.868,2.574 9.138,2.425 C9.466,2.236 9.805,2.066 10.153,1.916 C10.979,1.569 11.859,1.370 12.753,1.331 C14.570,1.239 16.362,1.780 17.823,2.864 C18.124,3.089 18.408,3.335 18.674,3.601 C21.536,6.471 21.726,11.054 19.110,14.151 L21.431,16.472 C21.939,16.981 21.939,17.803 21.431,18.311 L19.594,20.148 ZM4.083,10.336 C3.550,12.540 4.201,14.865 5.803,16.471 C8.166,18.823 11.923,19.011 14.511,16.908 L13.585,15.983 C12.675,16.693 11.554,17.077 10.400,17.074 L10.391,17.074 C9.012,17.076 7.689,16.526 6.719,15.547 C5.356,14.197 4.854,12.202 5.419,10.369 C5.550,9.884 5.773,9.431 6.076,9.032 C6.175,8.911 6.270,8.794 6.370,8.677 C6.564,8.465 6.738,8.237 6.890,7.993 C7.066,7.692 7.209,7.374 7.316,7.041 C7.224,7.051 7.133,7.047 7.040,7.051 C6.928,7.056 6.816,7.062 6.706,7.062 C6.576,7.062 6.445,7.056 6.315,7.049 C6.211,7.045 6.105,7.041 6.003,7.033 C5.976,7.028 5.941,7.028 5.911,7.028 C5.703,7.400 5.455,7.750 5.171,8.068 L4.967,8.318 C4.538,8.924 4.238,9.610 4.083,10.336 ZM10.855,11.414 L12.699,9.575 C13.207,9.070 14.028,9.070 14.536,9.575 L16.334,11.373 C16.805,10.715 17.058,9.928 17.058,9.118 C17.057,7.861 16.450,6.681 15.429,5.949 C14.407,5.216 13.095,5.021 11.904,5.423 C11.580,5.547 11.268,5.699 10.971,5.878 C10.740,6.008 10.510,6.137 10.270,6.248 C9.771,6.486 9.250,6.677 8.715,6.817 C8.582,7.460 8.345,8.078 8.016,8.646 C7.826,8.958 7.606,9.251 7.361,9.522 C7.275,9.626 7.187,9.731 7.101,9.839 C6.900,10.109 6.754,10.416 6.669,10.741 C6.241,12.118 6.617,13.619 7.644,14.631 C8.372,15.366 9.363,15.779 10.396,15.777 L10.400,15.777 C11.209,15.777 11.998,15.523 12.656,15.052 L10.855,13.255 C10.611,13.011 10.473,12.680 10.473,12.335 C10.473,11.989 10.611,11.658 10.855,11.414 ZM6.064,1.297 L4.454,1.297 L4.810,1.798 C5.086,2.174 5.333,2.570 5.550,2.983 C5.601,2.997 5.653,3.011 5.704,3.023 C5.851,3.057 5.999,3.083 6.148,3.102 C6.233,3.114 6.321,3.125 6.408,3.132 C6.570,3.142 6.733,3.144 6.896,3.136 C6.949,3.132 7.002,3.136 7.056,3.132 C6.789,2.488 6.456,1.873 6.064,1.297 ZM17.753,4.519 C17.529,4.297 17.290,4.090 17.038,3.901 C15.820,3.000 14.326,2.549 12.812,2.628 C12.067,2.662 11.334,2.828 10.647,3.118 C10.343,3.250 10.047,3.400 9.760,3.566 C9.239,3.886 8.675,4.130 8.085,4.292 L8.064,4.292 C7.826,4.349 7.584,4.390 7.340,4.415 C7.254,4.425 7.169,4.425 7.083,4.431 C6.962,4.439 6.840,4.452 6.718,4.452 C6.685,4.452 6.650,4.444 6.616,4.444 C6.418,4.439 6.220,4.422 6.023,4.396 C5.933,4.386 5.843,4.382 5.752,4.366 C5.462,4.318 5.176,4.248 4.895,4.158 C4.284,3.964 3.704,3.685 3.171,3.328 C2.518,2.901 1.885,2.468 1.295,2.039 L1.300,3.637 C1.657,3.880 2.042,4.143 2.457,4.411 C3.404,5.050 4.477,5.479 5.603,5.671 C5.809,5.706 6.016,5.730 6.225,5.743 C6.829,5.784 7.437,5.748 8.032,5.635 C8.617,5.519 9.185,5.328 9.722,5.068 C9.931,4.969 10.133,4.856 10.335,4.742 C10.701,4.525 11.085,4.341 11.484,4.192 C13.360,3.560 15.433,4.043 16.835,5.440 C18.689,7.292 18.873,10.235 17.264,12.304 L18.190,13.229 C20.297,10.643 20.109,6.882 17.753,4.519 ZM17.753,14.633 L13.617,10.497 L11.776,12.335 L14.069,14.623 C14.073,14.627 14.081,14.628 14.081,14.631 L15.920,16.471 L15.925,16.478 L18.676,19.229 L20.510,17.390 L17.753,14.633 Z" class="cls-2"/>
  </g>
</svg>
