<svg xmlns="http://www.w3.org/2000/svg" xmlns:xlink="http://www.w3.org/1999/xlink" preserveAspectRatio="xMidYMid" width="32" height="39" viewBox="0 0 32 39">
  <defs>
    <style>
      .cls-1 {
        fill: #c5c5c5;
      }

      .cls-1, .cls-2 {
        fill-rule: evenodd;
      }

      .cls-2 {
        fill: #eb702c;
      }
    </style>
  </defs>
  <g>
    <path d="M31.915,18.562 C31.732,22.287 31.213,24.955 30.232,27.211 C28.150,32.005 23.919,34.913 16.335,38.914 C16.228,38.970 16.111,38.998 15.993,38.998 C15.876,38.998 15.758,38.970 15.651,38.914 C8.068,34.913 3.837,32.005 1.755,27.211 C0.775,24.955 0.255,22.287 0.071,18.562 C-0.095,15.195 0.014,11.189 0.259,5.406 C0.276,5.003 0.595,4.681 0.989,4.671 C6.232,4.539 12.051,3.908 15.451,0.238 C15.592,0.085 15.788,-0.002 15.993,-0.002 C16.198,-0.002 16.395,0.084 16.536,0.238 C19.937,3.908 25.755,4.539 30.998,4.671 C31.391,4.681 31.710,5.003 31.727,5.406 C31.972,11.190 32.082,15.196 31.915,18.562 ZM30.261,6.187 C25.159,6.012 19.636,5.279 15.994,1.844 C12.352,5.279 6.829,6.012 1.725,6.187 C0.879,26.531 1.482,29.667 15.993,37.366 C30.504,29.668 31.108,26.532 30.261,6.187 ZM15.985,32.296 C22.931,28.603 25.383,26.398 26.105,20.982 C26.161,20.562 26.539,20.267 26.948,20.325 C27.358,20.382 27.645,20.770 27.589,21.190 C27.174,24.301 26.236,26.442 24.452,28.349 C22.617,30.311 19.917,31.945 16.430,33.789 C16.301,33.883 16.148,33.933 15.993,33.933 C15.877,33.933 15.759,33.905 15.651,33.848 C10.086,30.911 6.976,28.760 5.418,25.152 C3.891,21.615 3.978,16.724 4.301,9.089 C4.318,8.685 4.637,8.364 5.031,8.354 C8.775,8.258 12.976,7.936 15.432,5.310 C15.435,5.306 15.439,5.302 15.443,5.298 L15.464,5.277 C15.606,5.130 15.802,5.052 16.001,5.051 C16.202,5.053 16.394,5.139 16.533,5.288 C18.988,7.913 23.189,8.234 26.935,8.330 C27.329,8.340 27.647,8.661 27.664,9.065 C27.753,11.173 27.807,12.719 27.837,14.077 C27.847,14.501 27.519,14.853 27.106,14.863 C26.693,14.874 26.350,14.536 26.340,14.112 C26.314,12.923 26.269,11.586 26.198,9.845 C22.588,9.721 18.682,9.285 15.995,6.881 C13.306,9.305 9.387,9.744 5.767,9.869 C5.164,24.469 5.638,26.791 15.985,32.296 Z" class="cls-1"/>
    <path d="M27.097,18.303 C26.684,18.303 26.348,17.959 26.348,17.536 L26.348,17.520 C26.348,17.096 26.684,16.752 27.097,16.752 C27.511,16.752 27.846,17.096 27.846,17.520 L27.846,17.536 C27.846,17.959 27.511,18.303 27.097,18.303 ZM15.219,22.192 C15.155,22.253 15.091,22.284 14.996,22.284 C14.900,22.284 14.837,22.253 14.773,22.192 L12.290,19.618 L12.226,19.526 C12.162,19.465 12.131,19.373 12.131,19.312 C12.131,19.250 12.162,19.158 12.226,19.097 L12.672,18.669 C12.799,18.546 12.990,18.546 13.118,18.669 L13.149,18.699 L14.900,20.507 C14.964,20.568 15.059,20.568 15.123,20.507 L19.389,16.247 L19.421,16.247 C19.548,16.124 19.739,16.124 19.866,16.247 L20.312,16.676 C20.439,16.799 20.439,16.982 20.312,17.105 L15.219,22.192 Z" class="cls-2"/>
  </g>
</svg>
