<svg xmlns="http://www.w3.org/2000/svg" xmlns:xlink="http://www.w3.org/1999/xlink" preserveAspectRatio="xMidYMid" width="40" height="40" viewBox="0 0 40 40">
  <defs>
    <style>
      .cls-1 {
        fill: #eb702c;
      }

      .cls-1, .cls-2 {
        fill-rule: evenodd;
      }

      .cls-2 {
        fill: #c5c5c5;
      }
    </style>
  </defs>
  <g>
    <path d="M39.219,36.853 L38.093,36.853 C37.661,36.853 37.312,36.503 37.312,36.072 C37.312,35.640 37.661,35.291 38.093,35.291 L39.219,35.291 C39.651,35.291 40.000,35.640 40.000,36.072 C40.000,36.503 39.651,36.853 39.219,36.853 ZM36.094,39.978 C35.662,39.978 35.313,39.628 35.313,39.197 L35.313,38.070 C35.313,37.639 35.662,37.289 36.094,37.289 C36.525,37.289 36.875,37.639 36.875,38.070 L36.875,39.197 C36.875,39.628 36.525,39.978 36.094,39.978 ZM36.094,34.854 C35.662,34.854 35.313,34.505 35.313,34.073 L35.313,32.947 C35.313,32.515 35.662,32.166 36.094,32.166 C36.525,32.166 36.875,32.515 36.875,32.947 L36.875,34.073 C36.875,34.505 36.525,34.854 36.094,34.854 ZM34.095,36.853 L32.969,36.853 C32.537,36.853 32.187,36.503 32.187,36.072 C32.187,35.640 32.537,35.291 32.969,35.291 L34.095,35.291 C34.527,35.291 34.876,35.640 34.876,36.072 C34.876,36.503 34.527,36.853 34.095,36.853 ZM22.422,27.488 L23.112,29.683 C23.227,30.050 23.103,30.450 22.803,30.677 C22.654,30.790 22.478,30.846 22.303,30.846 C22.127,30.846 21.951,30.790 21.801,30.676 L20.010,29.313 L18.219,30.676 C17.919,30.903 17.516,30.904 17.216,30.677 C16.916,30.450 16.792,30.050 16.908,29.683 L17.597,27.488 L15.798,26.133 C15.498,25.907 15.373,25.508 15.487,25.141 C15.601,24.774 15.926,24.527 16.297,24.527 L18.519,24.527 L19.199,22.334 C19.314,21.967 19.639,21.719 20.010,21.719 C20.380,21.719 20.706,21.967 20.820,22.334 L21.501,24.527 L23.722,24.527 C24.093,24.527 24.418,24.774 24.532,25.141 C24.646,25.508 24.521,25.907 24.221,26.133 L22.422,27.488 ZM21.061,25.787 C20.798,25.787 20.566,25.611 20.485,25.351 L20.010,23.819 L19.534,25.351 C19.454,25.611 19.221,25.787 18.959,25.787 L17.403,25.787 L18.664,26.737 C18.877,26.897 18.966,27.183 18.884,27.443 L18.402,28.975 L19.653,28.025 C19.759,27.945 19.885,27.904 20.010,27.904 C20.135,27.904 20.260,27.945 20.366,28.025 L21.617,28.975 L21.135,27.443 C21.054,27.183 21.143,26.897 21.356,26.737 L22.617,25.787 L21.061,25.787 ZM11.160,36.333 C10.954,36.333 10.753,36.250 10.608,36.104 C10.462,35.959 10.379,35.758 10.379,35.552 C10.379,35.345 10.462,35.145 10.608,35.000 C10.753,34.854 10.954,34.771 11.160,34.771 C11.366,34.771 11.567,34.854 11.712,35.000 C11.859,35.145 11.941,35.347 11.941,35.552 C11.941,35.758 11.859,35.959 11.712,36.104 C11.567,36.250 11.366,36.333 11.160,36.333 ZM7.030,14.461 L5.904,14.461 C5.473,14.461 5.123,14.111 5.123,13.680 C5.123,13.248 5.473,12.899 5.904,12.899 L7.030,12.899 C7.462,12.899 7.812,13.248 7.812,13.680 C7.812,14.111 7.462,14.461 7.030,14.461 ZM3.905,17.586 C3.474,17.586 3.124,17.236 3.124,16.804 L3.124,15.678 C3.124,15.247 3.474,14.897 3.905,14.897 C4.337,14.897 4.686,15.247 4.686,15.678 L4.686,16.804 C4.686,17.236 4.337,17.586 3.905,17.586 ZM3.905,12.462 C3.474,12.462 3.124,12.113 3.124,11.681 L3.124,10.555 C3.124,10.124 3.474,9.774 3.905,9.774 C4.337,9.774 4.686,10.124 4.686,10.555 L4.686,11.681 C4.686,12.113 4.337,12.462 3.905,12.462 ZM1.906,14.461 L0.780,14.461 C0.349,14.461 -0.001,14.111 -0.001,13.680 C-0.001,13.248 0.349,12.899 0.780,12.899 L1.906,12.899 C2.338,12.899 2.687,13.248 2.687,13.680 C2.687,14.111 2.338,14.461 1.906,14.461 Z" class="cls-1"/>
    <path d="M25.139,14.461 C26.709,15.120 28.151,16.084 29.391,17.324 C31.900,19.832 33.281,23.167 33.281,26.714 C33.281,30.261 31.900,33.596 29.391,36.104 C26.829,38.666 23.427,39.998 19.992,39.998 C17.678,39.998 15.350,39.394 13.251,38.155 C12.880,37.936 12.757,37.457 12.976,37.086 C13.195,36.714 13.675,36.591 14.046,36.810 C18.647,39.527 24.503,38.783 28.286,34.999 C30.500,32.786 31.719,29.844 31.719,26.714 C31.719,23.584 30.500,20.642 28.286,18.429 C26.073,16.216 23.130,14.996 20.000,14.996 C19.091,14.996 18.198,15.100 17.334,15.300 C17.238,15.346 17.132,15.372 17.025,15.376 C15.033,15.895 13.207,16.935 11.713,18.429 C7.929,22.212 7.184,28.066 9.902,32.667 C10.121,33.038 9.998,33.517 9.626,33.736 C9.255,33.956 8.776,33.832 8.556,33.461 C5.476,28.247 6.320,21.611 10.608,17.324 C11.852,16.080 13.300,15.113 14.876,14.455 L7.197,1.171 C7.057,0.929 7.057,0.631 7.197,0.389 C7.336,0.147 7.594,-0.002 7.873,-0.002 L15.036,-0.002 C15.315,-0.002 15.573,0.147 15.713,0.389 L20.010,7.821 L24.306,0.389 C24.446,0.147 24.704,-0.002 24.983,-0.002 L32.146,-0.002 C32.425,-0.002 32.683,0.147 32.822,0.389 C32.962,0.631 32.962,0.929 32.822,1.171 L25.139,14.461 ZM14.585,1.560 L9.227,1.560 L16.379,13.931 C16.418,13.921 16.457,13.910 16.496,13.899 L19.107,9.382 L14.585,1.560 ZM25.434,1.560 L18.522,13.516 C19.009,13.462 19.502,13.434 20.000,13.434 C21.247,13.434 22.468,13.606 23.637,13.937 L30.792,1.560 L25.434,1.560 ZM20.000,17.184 C25.255,17.184 29.531,21.459 29.531,26.714 C29.531,31.968 25.255,36.245 20.000,36.245 C14.744,36.245 10.468,31.968 10.468,26.714 C10.468,21.459 14.744,17.184 20.000,17.184 ZM20.000,34.682 C24.394,34.682 27.969,31.108 27.969,26.714 C27.969,22.321 24.394,18.747 20.000,18.747 C15.606,18.747 12.030,22.321 12.030,26.714 C12.030,31.108 15.606,34.682 20.000,34.682 Z" class="cls-2"/>
  </g>
</svg>
