<svg xmlns="http://www.w3.org/2000/svg" xmlns:xlink="http://www.w3.org/1999/xlink" preserveAspectRatio="xMidYMid" width="39" height="39" viewBox="0 0 39 39">
  <defs>
    <style>
      .cls-1 {
        fill: #eb702c;
      }

      .cls-1, .cls-2 {
        fill-rule: evenodd;
      }

      .cls-2 {
        fill: #c5c5c5;
      }
    </style>
  </defs>
  <g>
    <path d="M23.792,27.728 C23.826,28.298 23.623,28.849 23.234,29.238 L20.736,31.735 C21.208,31.930 21.633,32.215 22.003,32.584 L22.086,32.667 C23.487,34.068 23.589,36.245 22.314,37.519 C21.039,38.794 18.862,38.693 17.461,37.291 L17.378,37.209 C17.008,36.839 16.723,36.413 16.529,35.942 L14.034,38.437 C13.674,38.798 13.174,38.999 12.648,38.999 C12.606,38.999 12.565,38.997 12.523,38.995 C11.978,38.961 11.457,38.723 11.056,38.321 L8.162,35.428 C8.014,35.896 7.759,36.318 7.416,36.661 L7.342,36.735 C6.744,37.333 5.947,37.628 5.125,37.628 C4.195,37.628 3.233,37.251 2.489,36.507 C1.088,35.107 0.986,32.929 2.261,31.655 L2.334,31.582 C2.678,31.237 3.100,30.982 3.568,30.835 L0.674,27.942 C-0.179,27.088 -0.230,25.753 0.559,24.963 L3.179,22.344 C3.500,22.023 3.966,21.889 4.427,21.987 C4.927,22.093 5.337,22.441 5.522,22.920 C5.639,23.223 5.819,23.497 6.057,23.735 L6.140,23.818 C6.543,24.221 7.055,24.461 7.582,24.492 C8.075,24.523 8.521,24.364 8.838,24.046 C9.156,23.729 9.315,23.283 9.285,22.790 C9.253,22.263 9.013,21.751 8.611,21.348 L8.527,21.265 C8.289,21.026 8.015,20.847 7.713,20.730 C7.234,20.545 6.885,20.136 6.779,19.635 C6.681,19.175 6.815,18.709 7.136,18.388 L9.759,15.765 C10.548,14.975 11.884,15.028 12.737,15.880 L15.631,18.774 C15.779,18.306 16.034,17.884 16.377,17.541 L16.451,17.467 C17.081,16.837 17.942,16.521 18.876,16.578 C19.775,16.631 20.637,17.028 21.304,17.695 C22.705,19.095 22.807,21.272 21.532,22.547 L21.458,22.621 C21.115,22.965 20.693,23.219 20.225,23.367 L23.119,26.260 C23.520,26.661 23.759,27.182 23.792,27.728 ZM22.042,27.338 L19.015,24.311 C18.626,23.923 18.478,23.369 18.627,22.865 C18.766,22.397 19.135,22.056 19.613,21.954 C19.914,21.891 20.172,21.752 20.381,21.543 L20.455,21.470 C21.136,20.788 21.034,19.578 20.227,18.771 C19.824,18.368 19.311,18.130 18.784,18.097 C18.292,18.068 17.846,18.226 17.528,18.543 L17.455,18.618 C17.246,18.826 17.107,19.084 17.044,19.385 C16.942,19.864 16.601,20.232 16.133,20.371 C15.629,20.520 15.075,20.372 14.687,19.983 L11.660,16.957 C11.405,16.703 11.028,16.650 10.836,16.842 L8.338,19.339 C8.809,19.533 9.235,19.819 9.605,20.188 L9.688,20.271 C11.089,21.672 11.191,23.848 9.916,25.123 C8.641,26.398 6.463,26.296 5.063,24.895 L4.979,24.812 C4.610,24.443 4.325,24.017 4.131,23.547 L1.636,26.041 C1.531,26.145 1.516,26.285 1.522,26.383 C1.532,26.553 1.616,26.729 1.751,26.863 L4.778,29.891 C5.166,30.278 5.315,30.833 5.166,31.337 C5.027,31.805 4.658,32.145 4.179,32.247 C3.879,32.311 3.620,32.450 3.412,32.658 L3.338,32.731 C2.657,33.412 2.759,34.623 3.566,35.429 C4.373,36.237 5.584,36.339 6.265,35.657 L6.338,35.584 C6.547,35.375 6.685,35.117 6.749,34.817 C6.851,34.338 7.192,33.969 7.660,33.831 C7.789,33.793 7.922,33.774 8.055,33.774 C8.438,33.774 8.818,33.930 9.106,34.218 L9.895,35.007 L12.423,32.479 C12.721,32.181 13.203,32.181 13.501,32.479 C13.798,32.776 13.798,33.259 13.501,33.557 L10.972,36.084 L12.133,37.245 C12.269,37.380 12.444,37.464 12.615,37.474 C12.713,37.481 12.852,37.465 12.957,37.360 L15.577,34.740 C15.898,34.419 16.364,34.286 16.825,34.383 C17.325,34.489 17.735,34.838 17.920,35.317 C18.037,35.619 18.217,35.893 18.455,36.131 L18.538,36.215 C19.345,37.022 20.556,37.123 21.237,36.442 C21.918,35.762 21.815,34.551 21.008,33.744 L20.926,33.661 C20.687,33.424 20.413,33.243 20.111,33.127 C19.632,32.941 19.282,32.532 19.177,32.031 C19.079,31.571 19.213,31.105 19.534,30.784 L22.157,28.161 C22.262,28.056 22.277,27.917 22.271,27.819 C22.261,27.648 22.177,27.473 22.042,27.338 ZM14.916,31.825 C14.715,31.825 14.519,31.744 14.378,31.602 C14.236,31.461 14.154,31.264 14.154,31.064 C14.154,30.864 14.236,30.667 14.378,30.525 C14.519,30.384 14.716,30.302 14.916,30.302 C15.117,30.302 15.313,30.384 15.455,30.525 C15.597,30.667 15.678,30.864 15.678,31.064 C15.678,31.264 15.597,31.461 15.455,31.602 C15.313,31.744 15.117,31.825 14.916,31.825 Z" class="cls-1"/>
    <path d="M38.996,12.522 C39.031,13.093 38.827,13.644 38.438,14.033 L35.884,16.586 C36.423,16.775 36.923,17.092 37.337,17.506 L37.421,17.589 C38.822,18.990 38.924,21.167 37.649,22.441 C36.373,23.716 34.196,23.614 32.795,22.213 L32.712,22.131 C32.298,21.716 31.982,21.216 31.793,20.677 L29.239,23.231 C28.864,23.605 28.366,23.791 27.855,23.791 C27.290,23.791 26.708,23.564 26.260,23.116 L23.236,20.090 C22.848,19.702 22.700,19.148 22.849,18.644 C22.988,18.176 23.356,17.836 23.835,17.734 C24.136,17.670 24.394,17.532 24.603,17.323 L24.676,17.249 C24.994,16.932 25.152,16.486 25.123,15.993 C25.091,15.466 24.851,14.954 24.448,14.551 C24.045,14.148 23.533,13.909 23.006,13.877 C22.514,13.847 22.067,14.006 21.750,14.323 L21.676,14.396 C21.467,14.605 21.329,14.864 21.265,15.164 C21.163,15.643 20.823,16.012 20.354,16.150 C19.851,16.299 19.296,16.151 18.908,15.763 L15.878,12.736 C15.025,11.883 14.974,10.547 15.763,9.757 L18.317,7.204 C17.779,7.015 17.278,6.698 16.864,6.285 L16.781,6.201 C15.380,4.801 15.278,2.624 16.553,1.349 C17.828,0.074 20.006,0.176 21.406,1.577 L21.489,1.660 C21.903,2.074 22.220,2.575 22.409,3.113 L24.963,0.559 C25.752,-0.230 27.088,-0.179 27.941,0.674 L30.782,3.514 C30.935,3.114 31.169,2.750 31.469,2.450 L31.543,2.377 C32.818,1.102 34.995,1.204 36.396,2.604 C37.797,4.005 37.899,6.182 36.624,7.457 L36.550,7.531 C36.250,7.831 35.887,8.065 35.487,8.217 L38.324,11.054 C38.725,11.456 38.963,11.976 38.996,12.522 ZM37.246,12.132 L34.289,9.175 C33.914,8.800 33.761,8.262 33.890,7.770 C34.010,7.313 34.352,6.966 34.806,6.840 C35.064,6.768 35.289,6.637 35.473,6.453 L35.546,6.380 C36.228,5.698 36.125,4.488 35.319,3.681 C34.512,2.875 33.301,2.772 32.620,3.454 L32.546,3.527 C32.362,3.711 32.232,3.936 32.160,4.194 C32.034,4.648 31.686,4.990 31.229,5.110 C30.738,5.239 30.199,5.086 29.824,4.711 L26.864,1.751 C26.610,1.497 26.233,1.444 26.040,1.637 L23.358,4.319 C23.026,4.650 22.545,4.780 22.071,4.666 C21.564,4.545 21.149,4.161 20.987,3.665 C20.877,3.323 20.678,3.002 20.412,2.737 L20.329,2.654 C19.522,1.847 18.312,1.745 17.631,2.427 C16.950,3.107 17.052,4.318 17.859,5.124 L17.942,5.207 C18.207,5.473 18.528,5.672 18.869,5.782 C19.365,5.944 19.749,6.359 19.871,6.866 C19.985,7.340 19.855,7.821 19.523,8.152 L16.841,10.834 C16.735,10.940 16.720,11.079 16.726,11.176 C16.737,11.348 16.820,11.523 16.956,11.658 L19.853,14.552 C20.000,14.086 20.255,13.663 20.599,13.320 L20.672,13.246 C21.302,12.616 22.163,12.300 23.097,12.356 C23.997,12.410 24.859,12.807 25.525,13.474 C26.192,14.140 26.589,15.002 26.643,15.902 C26.700,16.835 26.384,17.696 25.753,18.326 L25.680,18.399 C25.336,18.743 24.914,18.998 24.446,19.146 L27.338,22.039 C27.473,22.174 27.649,22.258 27.819,22.268 C27.917,22.274 28.056,22.259 28.161,22.154 L30.844,19.472 C31.176,19.140 31.657,19.010 32.130,19.123 C32.638,19.246 33.053,19.630 33.214,20.125 C33.325,20.467 33.524,20.788 33.790,21.053 L33.873,21.136 C34.679,21.943 35.890,22.045 36.571,21.364 C37.252,20.683 37.150,19.472 36.343,18.666 L36.260,18.582 C35.994,18.318 35.674,18.118 35.332,18.008 C34.836,17.846 34.452,17.432 34.330,16.923 C34.217,16.450 34.347,15.969 34.679,15.637 L35.061,15.255 L32.536,12.731 C32.239,12.433 32.239,11.951 32.536,11.654 C32.834,11.356 33.316,11.356 33.614,11.654 L36.138,14.177 L37.361,12.956 C37.466,12.850 37.481,12.711 37.475,12.614 C37.465,12.443 37.382,12.267 37.246,12.132 ZM31.094,10.973 C30.893,10.973 30.697,10.892 30.555,10.750 C30.413,10.609 30.332,10.412 30.332,10.211 C30.332,10.011 30.413,9.814 30.555,9.673 C30.697,9.530 30.893,9.449 31.094,9.449 C31.294,9.449 31.491,9.530 31.632,9.673 C31.774,9.814 31.856,10.011 31.856,10.211 C31.856,10.412 31.774,10.609 31.632,10.750 C31.491,10.892 31.294,10.973 31.094,10.973 Z" class="cls-2"/>
  </g>
</svg>
